<svg version="1.1" xmlns="http://www.w3.org/2000/svg" xmlns:xlink="http://www.w3.org/1999/xlink" width="33.6787" height="42.30711" viewBox="0,0,33.6787,42.30711"><g transform="translate(-223.16065,-158.95674)"><g data-paper-data="{&quot;isPaintingLayer&quot;:true}" fill-rule="nonzero" stroke="#000000" stroke-width="2" stroke-linecap="butt" stroke-linejoin="miter" stroke-miterlimit="10" stroke-dasharray="" stroke-dashoffset="0" style="mix-blend-mode: normal"><g><path d="M227.42357,177.06024c0,0 2.23907,-8.97449 3.08642,-12.37079c0.59327,-2.37789 2.30215,-4.06357 2.30215,-4.06357c0,0 1.5225,-1.42379 4.54722,-0.66914c4.16182,1.03834 9.67354,2.41348 12.37079,3.08642c3.03513,0.75724 4.42766,2.90831 4.42766,2.90831c0,0 2.17215,2.65397 1.57888,5.03186c-0.84735,3.3963 -3.08642,12.37079 -3.08642,12.37079z" fill="#ffffff"/><path d="M225.06681,193.7357c0,0 -1.38544,-2.70897 -0.73015,-5.33544c0.83422,-3.34366 2.84435,-11.40053 2.84435,-11.40053l25.22671,6.29388c0,0 -2.12312,8.50975 -2.96539,11.88566c-0.62522,2.50597 -3.39344,4.30663 -3.39344,4.30663c0,0 -1.55312,1.41615 -5.51748,0.42707c-4.34794,-1.08478 -9.47992,-2.36517 -11.88566,-2.96539c-2.58728,-0.64551 -3.57894,-3.21189 -3.57894,-3.21189z" fill="#ffbaba"/></g></g></g></svg>