<svg version="1.1" xmlns="http://www.w3.org/2000/svg" xmlns:xlink="http://www.w3.org/1999/xlink" width="71.28639" height="43.6282" viewBox="0,0,71.28639,43.6282"><g transform="translate(-204.3568,-158.18589)"><g data-paper-data="{&quot;isPaintingLayer&quot;:true}" fill-rule="nonzero" stroke="none" stroke-width="1" stroke-linecap="butt" stroke-linejoin="miter" stroke-miterlimit="10" stroke-dasharray="" stroke-dashoffset="0" style="mix-blend-mode: normal"><g><path d="M209.44521,164.12853c0.97079,0.79762 1.13608,1.18593 1.84187,1.49554c2.08326,0.90257 6.27338,2.12524 8.11787,1.85761c3.55518,-0.50376 3.06716,-0.45391 6.40982,-0.66643c0.17841,-0.95767 -1.94157,-1.42732 -1.84449,-2.37187c1.12559,-0.54574 3.8228,-2.88612 5.03235,-3.38726c2.08326,-0.86584 5.44952,-1.62672 7.55115,-2.25642c2.42697,-0.73465 5.2921,-0.75302 7.82139,-0.35421c1.86024,0.29386 2.84677,4.93789 3.20884,6.68268c0.22302,1.06787 1.70544,1.7343 2.37712,2.58702c0.58247,0.74252 2.19608,1.569 2.64736,2.38761c1.02851,1.86548 2.28266,1.75791 3.48958,3.38726c1.304,1.76053 2.39811,3.00157 4.34493,3.89364c2.30627,1.05737 1.18593,1.24628 4.00384,1.87598c1.38009,0.30698 4.28196,1.08361 5.6122,1.40895c1.1597,0.28074 3.56305,0.99178 3.58142,2.51093c1.56113,2.47157 2.05439,4.65453 -0.18629,7.32813c-1.1046,1.31712 -2.52405,2.64736 -3.99072,3.37676c-1.83138,0.90782 -3.47909,1.99667 -5.37343,2.76281c-2.13311,0.86321 -4.31606,1.88123 -6.59872,2.22494c-2.23543,0.33846 -4.50497,1.20955 -6.79026,1.31187c-4.98774,0.22039 -12.75404,1.99405 -15.98125,-2.39286c-2.61063,-3.53944 -6.541,-6.15794 -10.15653,-8.73183c-3.84117,-2.73657 -7.70595,-3.38726 -11.778,-5.6463c-1.98618,-1.1046 -5.68041,-2.15147 -6.77714,-4.23473c-1.06524,-2.02291 -0.70316,-3.86478 -0.81599,-6.16318c-0.09445,-1.89959 -0.00525,-4.66502 0.77925,-6.28125c0.72415,-1.48504 1.65821,-1.90222 3.74671,-1.80514" fill="#2fa64a"/><path d="M204.97434,177.6041c5.29735,0.86059 10.98563,4.37641 15.96813,6.3862c5.5571,2.24068 10.05682,6.39407 15.72149,8.47208c6.32061,2.32464 14.01606,1.51653 20.32092,-0.87108c2.95696,-1.12559 6.02675,-1.79464 8.34352,-3.45548c1.43257,-1.03113 3.03043,-1.56113 3.63914,-3.08815c0.42242,-1.05737 -0.37782,-1.7789 0.10233,-2.68409c0.13119,-0.24926 -0.49326,-1.12034 -0.48015,-1.38009c3.07503,-0.35158 4.22948,1.2594 5.87719,3.89102c1.74742,2.79167 -0.01837,4.59681 -1.2489,6.70892c-2.98845,5.12418 -11.1588,6.59872 -16.79461,8.12575c-5.62531,1.52702 -14.21546,2.94647 -19.59939,0.48802c-1.50341,-0.68742 -1.64771,-1.52702 -2.6185,-2.58439c-0.82123,-0.90782 -2.099,-1.51128 -3.06191,-2.26954c-1.31974,-1.04163 -2.02553,-2.38236 -3.20622,-3.403c-0.97079,-0.8396 -1.89959,-1.39321 -3.06191,-1.98355c-3.56043,-1.80776 -7.83976,-3.90151 -11.5235,-5.48888c-1.5139,-0.65069 -4.50497,-1.75004 -5.85883,-2.62112c-2.01504,-1.29613 -1.10722,-2.90711 -2.53192,-4.42101" fill="#a9d7aa"/><path d="M246.92807,166.52926c-0.58247,-0.34371 0.73203,-0.92618 1.14395,-0.68742c4.84081,2.83627 7.1707,7.5459 11.43429,11.02499c3.67587,2.99894 8.14411,2.42172 12.13483,4.48923c1.94682,1.0049 3.79919,2.75493 3.98022,5.10581c0.39094,5.07433 -4.54958,7.51179 -8.3855,9.69999c-6.04511,3.4476 -13.58314,5.1268 -20.47573,5.52561c-2.95172,0.17054 -6.30224,0.34896 -9.11227,-0.76613c-2.88612,-1.14658 -4.47087,-3.07241 -6.56986,-5.26848c-4.94576,-5.17665 -11.80949,-8.70559 -18.50004,-11.13518c-2.17771,-0.7845 -5.02972,-1.60311 -6.50165,-3.5578c-1.63984,-2.18558 -1.67657,-4.75685 -1.68969,-7.40946c-0.01837,-3.33216 -0.4749,-7.23105 2.94384,-8.92599c0.45128,-0.22564 1.49029,0.07609 0.72153,0.49851c-0.13643,0.07609 -0.27287,0.1548 -0.40668,0.22827c-0.46178,0.25713 -1.7238,0.04723 -0.8842,-0.4198c0.13381,-0.07609 0.27025,-0.1548 0.40668,-0.22564c0.23876,0.16267 0.48015,0.33322 0.72153,0.49851c-2.51617,1.2489 -2.1541,5.67517 -2.08326,7.96307c0.07084,2.32989 -0.18891,5.39967 1.58737,7.2363c2.92285,3.01993 7.90797,3.94874 11.62058,5.74076c4.4525,2.1436 9.07292,4.4525 12.53889,8.07852c1.83925,1.92321 3.59716,4.58106 6.15794,5.59645c3.74934,1.47979 7.845,1.34073 11.78063,0.84747c6.65382,-0.83173 13.16072,-2.60013 18.92509,-6.11333c1.9888,-1.21217 5.59908,-3.16949 5.78274,-5.86408c0.265,-3.94349 -2.08063,-6.4413 -5.84571,-7.37273c-5.23438,-1.304 -8.97059,-2.18558 -12.63334,-6.39407c-2.80479,-3.21409 -5.05859,-6.20779 -8.79218,-8.39337zM205.01108,177.90321c-0.59034,-0.24663 0.70841,-0.86584 1.13346,-0.68217c6.72466,2.79167 13.75631,5.10319 20.08216,8.76069c2.95434,1.70806 5.63319,4.0222 8.68198,5.54398c3.83854,1.92058 8.04441,2.11212 12.25552,1.60573c4.78572,-0.57985 24.49006,-4.17438 20.73023,-12.05874c-0.20203,-0.42505 1.18856,-0.87633 1.42469,-0.38307c3.66538,7.6902 -13.81403,11.85671 -18.61024,12.67795c-7.69545,1.31974 -14.01868,1.08361 -20.53345,-3.46072c-7.72956,-5.38918 -16.52699,-8.42223 -25.16436,-12.00364zM246.64733,168.68861c-0.26762,0.37782 -1.70281,0.50376 -1.32762,-0.02886c1.26202,-1.79464 1.41158,-6.83486 -0.38569,-8.45371c-2.59751,-2.34563 -9.1595,-0.33584 -11.99315,0.56935c-1.85761,0.59034 -3.69686,1.2594 -5.4469,2.11736c-2.76805,1.3591 -2.65261,1.79727 -1.0941,4.03795c1.32499,1.91009 2.53979,3.75196 3.40825,5.9113c0.18104,0.44866 -1.22267,0.87896 -1.42207,0.38307c-1.26202,-3.14325 -3.43973,-5.71715 -5.14517,-8.61376c-0.12332,-0.2099 0.02886,-0.38831 0.21777,-0.49326c5.5571,-3.07503 13.1476,-6.41506 19.6991,-5.72239c4.4971,0.4749 5.90081,6.86897 3.48958,10.29296zM228.86094,173.66323c-0.96292,-0.07609 0.01049,-0.85009 0.55361,-0.81074c5.37343,0.4198 12.79602,-0.31747 16.42728,-4.8172c0.28861,-0.35158 1.7238,-0.46178 1.32499,0.03148c-4.06943,5.04547 -12.26864,6.06873 -18.30589,5.59645z" fill="#010101"/></g></g></g></svg>