<svg version="1.1" xmlns="http://www.w3.org/2000/svg" xmlns:xlink="http://www.w3.org/1999/xlink" width="110.09846" height="110.09846" viewBox="0,0,110.09846,110.09846"><defs><linearGradient x1="366.60133" y1="621.2189" x2="366.60133" y2="666.3867" gradientUnits="userSpaceOnUse" id="color-1"><stop offset="0" stop-color="#000000"/><stop offset="1" stop-color="#811150"/></linearGradient><linearGradient x1="366.55713" y1="617.76759" x2="366.55713" y2="662.93539" gradientUnits="userSpaceOnUse" id="color-2"><stop offset="0" stop-color="#ed2b8f"/><stop offset="1" stop-color="#811150"/></linearGradient></defs><g transform="translate(-184.95077,-124.95077)"><g data-paper-data="{&quot;isPaintingLayer&quot;:true}" fill-rule="nonzero" stroke-linecap="butt" stroke-linejoin="miter" stroke-miterlimit="10" stroke-dasharray="" stroke-dashoffset="0" style="mix-blend-mode: normal"><path d="M185.95077,180c0,-29.85057 24.19866,-54.04923 54.04923,-54.04923c29.85057,0 54.04923,24.19866 54.04923,54.04923c0,29.85057 -24.19866,54.04923 -54.04923,54.04923c-29.85057,0 -54.04923,-24.19866 -54.04923,-54.04923z" fill="#880000" stroke="#000000" stroke-width="2"/><path d="M246.66313,176.2503c0,0 -22.9255,0.0097 -33.3375,0.0097c-2.7274,0 -4.9382,-2.2113 -4.9382,-4.9382c0,-2.7274 2.2108,-4.9378 4.9382,-4.9378c8.7293,0 33.3107,-0.0102 33.3107,-0.0102c0,0 -1.6503,-1.6701 -9.2636,-9.2829c-1.9286,-1.9287 -1.9286,-5.055 0,-6.9832c1.9296,-1.9282 5.0555,-1.9287 6.9837,0c6.1733,6.1724 17.7163,17.7167 17.7163,17.7167c1.9282,1.9287 1.9282,5.0554 0,6.9832c0,0 -9.9613,9.9617 -17.5745,17.575c-1.9296,1.9296 -5.0559,1.9296 -6.9837,0c-1.9287,-1.9283 -1.9287,-5.0555 0,-6.9823c6.1734,-6.1752 9.1486,-9.15 9.1486,-9.15z" fill="url(#color-1)" stroke="#ffffff" stroke-width="1.15823"/><path d="M246.61893,172.79899c0,0 -22.9255,0.0097 -33.3375,0.0097c-2.7274,0 -4.9382,-2.2113 -4.9382,-4.9382c0,-2.7274 2.2108,-4.9378 4.9382,-4.9378c8.7293,0 33.3107,-0.0102 33.3107,-0.0102c0,0 -1.6503,-1.6701 -9.2636,-9.2829c-1.9286,-1.9287 -1.9286,-5.055 0,-6.9832c1.9296,-1.9282 5.0555,-1.9287 6.9837,0c6.1733,6.1724 17.7163,17.7167 17.7163,17.7167c1.9282,1.9287 1.9282,5.0554 0,6.9832c0,0 -9.9613,9.9617 -17.5745,17.575c-1.9296,1.9296 -5.0559,1.9296 -6.9837,0c-1.9287,-1.9283 -1.9287,-5.0555 0,-6.9823c6.1734,-6.1752 9.1486,-9.15 9.1486,-9.15z" fill="url(#color-2)" stroke="#ffffff" stroke-width="1.15823"/><text transform="translate(203.26261,211.90092) scale(0.40024,0.5)" font-size="40" xml:space="preserve" fill="#ededed" fill-rule="nonzero" stroke="none" stroke-width="1" stroke-linecap="butt" stroke-linejoin="miter" stroke-miterlimit="10" stroke-dasharray="" stroke-dashoffset="0" font-family="Handwriting" font-weight="normal" text-anchor="start" style="mix-blend-mode: normal"><tspan x="0" dy="0">Next Offer</tspan></text></g></g></svg>