<svg version="1.1" xmlns="http://www.w3.org/2000/svg" xmlns:xlink="http://www.w3.org/1999/xlink" width="189" height="189" viewBox="0,0,189,189"><g transform="translate(-156.60001,-96.39999)"><g data-paper-data="{&quot;isPaintingLayer&quot;:true}" fill-rule="nonzero" stroke-linejoin="miter" stroke-miterlimit="10" stroke-dasharray="" stroke-dashoffset="0" style="mix-blend-mode: normal"><path d="M157.60001,190.89999c0,-51.63862 41.86138,-93.5 93.5,-93.5c51.63862,0 93.5,41.86138 93.5,93.5c0,51.63862 -41.86138,93.5 -93.5,93.5c-51.63862,0 -93.5,-41.86138 -93.5,-93.5z" fill="#ffffff" stroke="#000000" stroke-width="2" stroke-linecap="butt"/><path d="M159.01991,191.16967c0,-50.8929 41.25686,-92.14976 92.14976,-92.14976c50.8929,0 92.14976,41.25686 92.14976,92.14976c0,50.8929 -41.25686,92.14976 -92.14976,92.14976c-50.8929,0 -92.14976,-41.25686 -92.14976,-92.14976z" fill="#000000" stroke="none" stroke-width="0" stroke-linecap="butt"/><text transform="translate(191.81195,181.74493) scale(0.87817,0.87817)" font-size="40" xml:space="preserve" fill="#9465ff" fill-rule="nonzero" stroke="none" stroke-width="1" stroke-linecap="butt" stroke-linejoin="miter" stroke-miterlimit="10" stroke-dasharray="" stroke-dashoffset="0" font-family="Handwriting" font-weight="normal" text-anchor="start" style="mix-blend-mode: normal"><tspan x="0" dy="0">CLASS</tspan><tspan x="0" dy="46.150000000000006px">CLUB</tspan></text><path d="M174.4662,151.84219c0,0 12.18672,-19.88909 19.37721,-26.05237c7.4598,-6.39411 27.98749,-16.38304 27.98749,-16.38304" fill="none" stroke="#ffffff" stroke-width="2" stroke-linecap="round"/></g></g></svg>