<svg version="1.1" xmlns="http://www.w3.org/2000/svg" xmlns:xlink="http://www.w3.org/1999/xlink" width="67.37148" height="67.40976" viewBox="0,0,67.37148,67.40976"><g transform="translate(-206.50542,-146.38917)"><g data-paper-data="{&quot;isPaintingLayer&quot;:true}" fill-rule="evenodd" stroke="none" stroke-width="1" stroke-linecap="butt" stroke-linejoin="miter" stroke-miterlimit="10" stroke-dasharray="" stroke-dashoffset="0" style="mix-blend-mode: normal"><g><path d="M269.64392,196.36678c-1.47356,3.56049 -3.87968,6.65789 -6.96516,8.9662c-0.53875,0.41367 -1.09672,0.81773 -1.66433,1.20254c-7.27594,5.75416 -16.60734,8.24369 -25.78264,6.87859c-9.27405,-0.7985 -17.86507,-5.22387 -22.7426,-14.19008c-8.25375,-11.92646 -7.94288,-27.79811 0.77158,-39.3922c8.71447,-11.59411 23.87406,-16.30503 37.62494,-11.69216c13.75088,4.61287 23.00271,17.51284 22.96232,32.01676c-0.00799,5.67203 -1.45446,11.24938 -4.20411,16.21037z" fill="#e6781e"/><g fill="#824600"><path d="M241.06176,213.79893h-0.84659h-0.11544c-0.18279,-22.90615 -0.00962,-47.47662 0.13468,-67.24653h0.96204c-0.1443,19.76991 -0.31747,44.32113 -0.13468,67.24653z"/><path d="M273.8769,178.94426c0,0.33671 0,0.68305 0,1.02938h-67.23689c0,-0.34633 0,-0.68305 0,-1.01976z"/><path d="M261.91875,205.91021c-0.27898,0.20202 -0.54835,0.41367 -0.83697,0.60609c-9.87051,-9.93787 -11.81384,-27.16798 -8.37936,-40.01121c1.26104,-5.0512 3.80616,-9.69072 7.38847,-13.46854c0.26937,0.1924 0.53875,0.40405 0.7985,0.60607c-3.52824,3.67402 -6.03248,8.20821 -7.26339,13.15107c-4.35804,16.3258 0.65418,31.38172 8.29276,39.1165z"/><path d="M218.55966,206.72795c-0.26937,-0.21806 -0.52912,-0.44896 -0.77925,-0.69267c7.9272,-7.15757 13.45893,-21.54004 9.85128,-38.33725c-1.13266,-5.43483 -3.6101,-10.49889 -7.20568,-14.72881l0.80812,-0.57722c3.65156,4.34221 6.17019,9.52162 7.33073,15.07516c1.60917,7.73822 1.37518,15.74647 -0.68305,23.37754c-1.83749,6.66693 -5.03146,12.07359 -9.32216,15.88326z"/></g></g></g></g></svg>