<svg version="1.1" xmlns="http://www.w3.org/2000/svg" xmlns:xlink="http://www.w3.org/1999/xlink" width="118.15164" height="118.15164" viewBox="0,0,118.15164,118.15164"><defs><linearGradient x1="366.60133" y1="621.2189" x2="366.60133" y2="666.3867" gradientUnits="userSpaceOnUse" id="color-1"><stop offset="0" stop-color="#000000"/><stop offset="1" stop-color="#811150"/></linearGradient><linearGradient x1="365.62792" y1="621.48444" x2="365.62792" y2="666.65224" gradientUnits="userSpaceOnUse" id="color-2"><stop offset="0" stop-color="#ed2b8f"/><stop offset="1" stop-color="#811150"/></linearGradient></defs><g transform="translate(-180.92418,-120.92418)"><g data-paper-data="{&quot;isPaintingLayer&quot;:true}" fill-rule="nonzero" stroke-linecap="butt" stroke-linejoin="miter" stroke-miterlimit="10" stroke-dasharray="" stroke-dashoffset="0" style="mix-blend-mode: normal"><path d="M181.92418,180c0,-32.07439 26.00143,-58.07582 58.07582,-58.07582c32.07439,0 58.07582,26.00143 58.07582,58.07582c0,32.07439 -26.00143,58.07582 -58.07582,58.07582c-32.07439,0 -58.07582,-26.00143 -58.07582,-58.07582z" fill="#880000" stroke="#000000" stroke-width="2"/><path d="M246.66313,176.2503c0,0 -22.9255,0.0097 -33.3375,0.0097c-2.7274,0 -4.9382,-2.2113 -4.9382,-4.9382c0,-2.7274 2.2108,-4.9378 4.9382,-4.9378c8.7293,0 33.3107,-0.0102 33.3107,-0.0102c0,0 -1.6503,-1.6701 -9.2636,-9.2829c-1.9286,-1.9287 -1.9286,-5.055 0,-6.9832c1.9296,-1.9282 5.0555,-1.9287 6.9837,0c6.1733,6.1724 17.7163,17.7167 17.7163,17.7167c1.9282,1.9287 1.9282,5.0554 0,6.9832c0,0 -9.9613,9.9617 -17.5745,17.575c-1.9296,1.9296 -5.0559,1.9296 -6.9837,0c-1.9287,-1.9283 -1.9287,-5.0555 0,-6.9823c6.1734,-6.1752 9.1486,-9.15 9.1486,-9.15z" fill="url(#color-1)" stroke="#ffffff" stroke-width="1.15823"/><path d="M245.68972,176.51584c0,0 -22.9255,0.0097 -33.3375,0.0097c-2.7274,0 -4.9382,-2.2113 -4.9382,-4.9382c0,-2.7274 2.2108,-4.9378 4.9382,-4.9378c8.7293,0 33.3107,-0.0102 33.3107,-0.0102c0,0 -1.6503,-1.6701 -9.2636,-9.2829c-1.9286,-1.9287 -1.9286,-5.055 0,-6.9832c1.9296,-1.9282 5.0555,-1.9287 6.9837,0c6.1733,6.1724 17.7163,17.7167 17.7163,17.7167c1.9282,1.9287 1.9282,5.0554 0,6.9832c0,0 -9.9613,9.9617 -17.5745,17.575c-1.9296,1.9296 -5.0559,1.9296 -6.9837,0c-1.9287,-1.9283 -1.9287,-5.0555 0,-6.9823c6.1734,-6.1752 9.1486,-9.15 9.1486,-9.15z" fill="url(#color-2)" stroke="#ffffff" stroke-width="1.15823"/><text transform="translate(200.47206,212.36553) scale(0.43123,0.53872)" font-size="40" xml:space="preserve" fill="#ededed" fill-rule="nonzero" stroke="none" stroke-width="1" stroke-linecap="butt" stroke-linejoin="miter" stroke-miterlimit="10" stroke-dasharray="" stroke-dashoffset="0" font-family="Handwriting" font-weight="normal" text-anchor="start" style="mix-blend-mode: normal"><tspan x="0" dy="0">Next Offer</tspan></text></g></g></svg>