<svg version="1.1" xmlns="http://www.w3.org/2000/svg" xmlns:xlink="http://www.w3.org/1999/xlink" width="142.8382" height="232.81814" viewBox="0,0,142.8382,232.81814"><g transform="translate(-165.39226,-56.68165)"><g data-paper-data="{&quot;isPaintingLayer&quot;:true}" fill-rule="nonzero" stroke="none" stroke-linecap="butt" stroke-linejoin="miter" stroke-miterlimit="10" stroke-dasharray="" stroke-dashoffset="0" style="mix-blend-mode: normal"><path d="M292.65248,80.55841c0.5033,0.35516 0.93324,0.96198 0.93324,1.99874c0,0.99644 -0.39715,1.59572 -0.87487,1.95614c-0.05305,0.31828 -0.10609,0.63657 -0.15914,0.95485l-0.17755,0.41523c0.144,0.33357 0.28754,0.68464 0.43155,1.05271c0.51358,1.31258 0.60531,2.41103 0.44962,3.42199c3.14952,-1.99403 7.36784,-2.15968 8.90877,2.67064c0.30043,0.94173 0.02235,1.91517 -0.32834,2.89258c2.96294,-0.30466 6.49742,3.0323 6.39242,6.27667c-0.04789,1.47955 -1.36163,2.65671 -2.31197,3.79171c-3.56957,4.26313 -10.72325,3.3971 -12.8796,8.96352l-0.86343,1.1163c0,0 -1.76776,1.76776 -3.53553,0c-0.02407,-0.02407 -0.0475,-0.04815 -0.07028,-0.07222c-0.29204,0.48666 -0.72978,0.76516 -1.13516,0.92454c-1.33405,2.02698 -0.23143,4.31265 -0.94348,7.02007c-0.32139,1.22199 -0.95254,2.34313 -1.51281,3.47567c-2.19961,4.4463 -6.09044,7.73002 -8.377,12.08357c-1.58808,3.02366 -3.00189,6.08743 -4.71445,9.08353c-2.43588,3.87626 -5.53505,7.37845 -8.64475,10.74903c-1.87099,2.02795 -4.86162,4.08606 -5.80631,6.78909c-1.11576,3.19253 -0.53053,8.40376 -0.528,11.84562c0.00646,8.78191 -0.33334,17.54679 -0.33334,26.33334c0,0 0,2.00463 -1.79508,2.42375c-0.43583,0.26262 -0.82925,0.35005 -0.82925,0.35005c-0.796,0.17689 -1.59201,0.35378 -2.38802,0.53067c0.00051,0.12264 0.00426,0.24355 0.01236,0.3622c0.26724,3.91434 -0.72122,7.89145 -0.34533,11.75532c0.59151,6.08036 3.87217,11.48435 4.33806,17.72072c0.70349,9.41696 -0.19007,18.91586 -1.41308,28.17783c-0.51282,1.22504 -1.01443,2.97565 -1.66492,4.62747c0.89628,-0.03467 1.79215,-0.04989 2.68528,-0.048c1.88872,0.004 5.51548,-0.26018 7.09874,1.07801c1.04944,0.887 1.32557,2.41917 1.79762,3.70962c1.80401,4.93169 1.01141,9.70238 -4.58061,11.57553c-2.84955,0.95451 -7.25372,1.20403 -10.31575,1.13683c-1.1099,-0.02436 -2.29263,0.2609 -3.32752,-0.14093c-0.55433,-0.21524 -4.95054,-3.78023 -5.70354,-4.38274c-1.64532,-1.31158 -2.95514,-3.1165 -3.79014,-5.04785l-0.17881,-2.92848c0,0 0,-0.33112 0.1205,-0.75234c-0.43072,-0.23978 -0.79846,-0.51177 -1.08594,-0.81661c-2.05823,-2.18252 -1.63312,-8.01025 -1.63457,-10.66438c-0.00338,-6.17292 0.24921,-12.40314 0.00185,-18.57073c-0.06737,-1.6797 -0.03581,-4.19311 -0.49912,-6.32411l-0.01106,0.01483c-3.55805,2.07893 -2.82733,4.24306 -4.36047,7.86481c-2.38609,5.63668 -4.32066,11.33496 -6.65483,16.97191c-0.91908,2.21956 -0.96228,4.78 -2.10686,6.89212c-0.47543,0.87731 -1.38918,1.94223 -2.45773,2.96358c0.91976,0.34085 1.79707,0.80906 2.5832,1.3463c1.04685,0.71542 2.45149,1.07534 3.14857,2.1345c2.93978,4.46679 -0.27032,8.14561 -3.61633,10.4927c-1.05436,0.73959 -1.87473,1.90882 -3.09969,2.30649c-4.87415,1.58233 -8.84752,-1.28931 -10.26064,-5.78469c-0.28489,-0.90629 -0.02898,-3.5793 0.06141,-4.78381l-1.12829,-1.29057c0,0 -1.5,-2 0.5,-3.5l0.00001,-0.00004c0.32586,-0.24439 0.63844,-0.39587 0.93342,-0.47824c0.07765,-0.50541 0.24839,-0.88936 0.469,-1.18068l-0.83576,-0.07442c0,-11.91092 -2.34543,-23.6243 -2.32951,-35.52841c-0.704,-6.26025 -1.7004,-12.39475 -2.00167,-18.70102c-0.04496,-0.94109 0.02962,-7.26604 0.1171,-7.53351c0.43249,-1.32244 1.12094,-2.32713 1.97989,-3.09886c-1.09915,-0.6927 -1.09915,-2.13819 -1.09915,-2.13819c0.0257,-4.695 -1.66879,-8.91484 -2.611,-13.47536c-1.44995,-7.01809 -1.39304,-13.86635 -1.38917,-20.96388c-3.19961,7.42731 -4.5026,17.09892 -2.72604,24.89692l-0.50386,1.32393l0.43257,1.75361c0.3682,1.16416 1.32242,2.29107 1.10461,3.49249c-0.2451,1.35192 -1.44236,2.35516 -2.35153,3.3853c-1.87455,2.124 -6.9709,6.88161 -10.28452,5.46706c-0.13846,-0.0591 -0.27083,-0.11794 -0.3973,-0.1765c-0.21452,0.25363 -0.47204,0.45938 -0.79203,0.5956c-1.52746,0.65018 -3.36426,-0.477 -4.80903,-1.29463c-5.1977,-2.94152 -3.67273,-11.57239 -3.67273,-16.33786c0,0 0,-0.1182 0.0257,-0.3032c-0.00496,-0.03758 -0.0094,-0.0758 -0.01329,-0.1147c-0.13279,-1.3279 0.51415,-2.01784 1.14621,-2.37253c-1.90369,-5.2723 -1.49195,-11.28725 -1.49195,-16.87623c0,-2.81405 -0.56204,-6.5218 0.06688,-9.24105c1.25521,-5.42713 5.44384,-8.97021 8.31811,-13.42522c2.53611,-3.9309 4.40715,-7.4808 7.54917,-10.58887c-1.641,-1.09649 -3.07968,-2.53775 -4.87719,-3.3464c-0.72845,-0.32771 -1.60615,-0.16607 -2.35463,-0.44502c-1.89056,-0.70459 -3.36134,-2.27219 -5.20908,-3.08242c-0.7783,-0.34128 -1.72415,-0.15319 -2.5,-0.5c-1.50287,-0.67178 1.26063,-1.48122 -0.30382,-1.99348c-3.91047,-1.28044 2.12481,-0.7976 -1.7039,-2.26481c-1.6454,-0.63054 -0.94704,-2.78792 -0.94704,-2.78792c0,0 -3.09321,-0.68946 -1.97517,-2.92553c0.01252,-0.02504 -1.65655,-2.4533 -1.65655,-2.4533c1.15841,-2.84658 -3.43105,-1.78509 -2.16438,-4.61617c1.68269,-3.76092 -2.81528,-8.73658 -0.96833,-12.42341c1.25282,-2.50084 -1.22274,-6.91715 0.18442,-9.27485c2.29535,-3.84586 1.20586,-9.65758 4.43028,-12.88201c1.88463,-1.88463 4.44785,-4.89292 6.60449,-6.44307c8.49282,-1.69856 13.13294,-10.10571 21.35309,-12.62702c0.7967,-0.24437 1.70148,0.23834 2.5,0c0.85454,-0.25506 1.43316,-1.10325 2.26584,-1.42252c1.82326,-0.69908 3.93422,-0.12179 5.82711,-0.60132c2.88559,-0.73101 5.18156,-2.23358 8.32804,-2.55471c4.83086,-0.49304 9.74321,-0.20416 14.54014,-1.00365c3.57426,-0.00822 9.07173,-0.93436 12.49677,0.11977c0.79646,0.24513 1.20945,1.23643 2,1.5c0.80225,0.26747 1.75389,-0.30667 2.53695,0.01264c2.91431,1.18835 5.52693,4.2061 8.31921,5.63758c1.93784,0.99344 4.39781,0.52081 6.37255,1.43871c1.9181,0.89158 2.97287,3.08207 4.79505,4.15615c0.85819,0.50586 1.95427,0.46799 2.84594,0.91218c0.70044,0.34893 1.14769,1.10851 1.86016,1.43218c3.58848,1.63024 -0.87911,8.48539 2.76307,9.98384c0.33622,0.13833 -0.15324,4.1464 0.34756,4.52209c0.41234,0.3298 1.42467,3.45961 1.83701,3.78941c0.03004,0.00378 2.52042,-5.51234 6.32732,-8.75285c2.13168,-1.81453 6.59823,-2.22911 6.61562,-2.22622c0,0 1.35429,0.5246 1.65574,0.96729zM267.0653,87.4394c-0.81031,-0.35395 -0.54947,-7.77133 -1.33984,-8.16782c-0.99406,-0.49866 0.99595,-4.50963 0.04594,-5.08782c-0.28322,-0.17237 -3.50412,-3.53617 -4.20495,-3.84385c-2.07817,-0.91237 -4.5896,-0.5621 -6.62745,-1.56129c-2.0204,-0.99063 -3.81567,-2.38675 -5.70066,-3.61565c-0.73731,-0.48068 -1.16021,-1.42676 -1.98013,-1.74677c-0.76484,-0.29851 -1.68414,0.27222 -2.46305,0.01264c-0.79059,-0.26347 -1.21839,-1.21097 -2,-1.5c-0.53594,-0.19819 -1.13823,0.11273 -1.70943,0.12829c-2.92326,0.07963 -5.86981,-0.00096 -8.7938,-0.00852c-4.7695,0.79492 -9.65668,0.52726 -14.45986,0.99635c-2.95894,0.28898 -4.9031,1.76071 -7.67196,2.44529c-1.07706,0.2663 -2.22182,-0.03055 -3.32804,0.05471c-1.65038,0.1272 -2.99415,1.44381 -4.57901,1.92145c-0.79788,0.24047 -1.70006,-0.23356 -2.5,0c-4.08261,1.19199 -7.39368,4.80022 -10.52933,7.47935c-2.61993,2.23849 -6.78407,4.22693 -10.11758,4.89363c-1.66423,1.33291 -3.75485,2.48769 -5.25266,3.9855c-2.95509,2.95509 -1.59507,7.89172 -3.71257,11.4037c-1.33413,2.21273 3.06619,5.81318 1.8987,8.15372c-1.83046,3.66964 3.18576,6.1372 1.46024,9.8623c-1.23606,2.66845 4.49262,4.48809 3.40705,7.24097c0,0 2.56554,4.01473 2.55352,4.04138l2.10772,3.34987c2.1059,0.37812 -1.5217,-0.61434 0.47428,0.15629c3.7451,1.44595 -2.94915,-0.5637 0.86753,0.73519c1.69053,0.57532 -6.93734,-0.71492 -5.30382,0.00652c0.7774,0.34333 1.72492,0.15147 2.5,0.5c1.70532,0.76682 3.02793,2.29468 4.79092,2.91758c0.70636,0.24958 1.50072,0.20827 2.21923,0.40307c-0.02019,-0.02453 -0.03058,-0.03837 -0.03058,-0.03837l0.00001,-0.00001c-0.42191,-0.57335 -0.87967,-1.1072 -1.36308,-1.61285c2.8569,-2.35902 0.59328,-5.91199 -1.02713,-7.77532c-0.02029,-0.62454 -0.04156,-1.2487 -0.09764,-1.86548c-0.48584,-5.34419 -1.88982,-11.18042 -0.988,-16.5931c0.35339,-2.12102 1.58605,-4.0202 2.02094,-6.12602c0.35022,-1.6958 -0.42541,-3.52827 0.0456,-5.19457c0.53832,-1.90438 1.76901,-3.58195 2.2051,-5.51231c1.30809,-1.38088 3.0842,-2.31525 4.21989,-3.84107c0.44161,-0.59332 0.4169,-1.42716 0.74468,-2.09019c0.81787,-1.65438 2.16669,-2.99912 3.06021,-4.61391c1.05654,-1.9094 1.8896,-4.03412 3.43947,-5.57035c3.69009,-3.65761 9.21155,-3.71447 13.9936,-4.19267c8.67684,-0.86768 17.22261,-2.03885 25.99269,-2c2.31254,0.52783 4.71496,1.61935 6.22417,3.4493c2.41884,2.9329 4.00421,6.54436 5.72195,9.935c-0.50665,1.06533 0.07147,2.22158 0.07147,2.22158l1.23607,2.38197c1.60233,2.09279 1.94382,5.22011 3.59669,7.12093c0.31196,0.35877 3.93494,2.51946 5.24976,3.30348c-0.16341,0.51671 -0.33933,1.0193 -0.52527,1.50409l-0.30938,0.19837c0.14423,3.04907 -1.10268,4.35544 -2.23036,6.73639c-0.14162,2.24405 -0.98796,4.35426 -1.50686,6.68742c-0.20522,0.92273 0.20586,1.92246 -0.03864,2.83557c-0.25254,0.94313 -1.08337,1.6476 -1.40832,2.5683c-1.40183,3.97185 -1.63707,8.13358 -4.35449,11.64084c-1.77227,2.28739 -4.11501,4.47344 -6.01861,6.69073c-1.16546,1.59773 -2.32388,2.56404 -3.56985,3.43265c0.95971,0.02028 1.89169,-0.01916 2.72893,-0.19575c0.94308,-0.19891 1.88817,-0.42081 2.83754,-0.60887c0.23226,-0.5688 0.6008,-0.93734 0.6008,-0.93734c2.47226,-2.4699 5.28246,-5.7678 7.97265,-7.927c0.65422,-0.52509 1.64172,-0.48651 2.31513,-0.98675c1.75157,-1.30114 2.49262,-3.58964 3.89809,-5.25865c4.42268,-5.25194 0.35589,-4.96145 4.77596,-10.25162c0.04898,-0.36732 -1.7329,-4.72952 0.47793,-9.40755c0.38799,-0.82097 0.55998,-2.96482 -0.17519,-3.24682c0,0 3.34317,-8.62704 0.16307,-10.01615zM200.31457,141.70486c-0.59121,1.77362 -2.06665,1.77877 -2.7732,1.66857c-0.50876,0.37756 -1.70741,1.03653 -2.96005,0.06921c-3.38615,2.95526 -5.03505,6.52566 -7.53705,10.38244c-2.54738,3.92675 -6.53752,7.16009 -7.68189,11.90812c-0.55814,2.31573 0.06687,5.68895 0.06687,8.09229c0,4.83865 -0.60503,10.60841 1.17416,15.12219c0,0 0.19872,0.52992 0.15493,1.18005c3.51692,-0.02523 6.73107,0.53227 9.75279,2.23813c-0.8867,-8.10197 0.40832,-17.64886 3.985,-24.44808c-0.07913,-2.79907 -0.24564,-6.13701 1.52857,-8.54001c1.03027,-1.3954 1.93999,-4.05938 3.64059,-3.71798c2.16513,0.43466 3.07143,3.26875 4.03043,5.25799c0.08522,0.17676 0.06687,5.41221 0.06687,5.90771c0,4.88993 -0.40904,9.95952 -0.00573,14.8308c0.65099,7.86272 3.96986,15.30623 4.00573,23.1692c0,0 0,0.05946 -0.00917,0.16005c2.02884,-0.56122 4.25191,-0.73217 6.20371,-0.97465c9.28679,-1.15374 18.55885,-2.67694 27.97212,-2.68539c2.44396,0.01475 5.9722,-0.29274 8.21571,1.29848c0.42958,-0.09546 0.85918,-0.19093 1.28876,-0.28639c0.0392,-8.17688 0.3231,-16.33682 0.32886,-24.51209c0.00282,-4.00913 -0.52862,-9.73067 0.80533,-13.48771c1.23426,-3.47625 4.45294,-5.93761 6.86036,-8.54425c2.86476,-3.10182 5.79885,-6.33775 8.02192,-9.91763c1.67947,-2.93995 3.04228,-5.95929 4.61888,-8.91647c2.28574,-4.28732 6.08724,-7.57079 8.28967,-11.91644c1.71616,-3.38617 0.4311,-5.99559 1.55316,-9.4019c0.3606,-1.09471 1.39786,-1.83293 2.09679,-2.7494l0.37502,-0.14968c-0.04505,-0.06377 -0.08777,-0.13092 -0.1273,-0.20152l-1.76159,-0.61392c-1.32236,-1.33098 -2.70421,-2.42435 -4.15697,-3.49014c-4.24642,5.05786 -8.58664,9.96079 -12.82672,14.99588c-1.8089,2.14807 -2.51385,4.2934 -4.76857,6.07469c-0.66973,0.52911 -1.6841,0.48125 -2.35154,1.01325c-1.89119,1.50743 -3.82238,3.66025 -5.64231,5.6119c0.17193,0.32649 0.28053,0.73895 0.28053,1.26l0.00001,-0.00001c0,2.5 -2.5,2.5 -2.5,2.5c-1.86949,-0.02786 -3.69072,0.60418 -5.52724,0.95489c-2.61536,0.49944 -5.80403,0.04511 -8.47276,0.04511h-0.86286c-0.10628,0.077 -0.22002,0.14372 -0.34341,0.19731c-0.72133,0.31327 -6.63095,0.23603 -7.39373,0.23603c-4,0 -8,0.00127 -12,0c-4.10551,-0.0013 -7.13937,-0.32752 -10.98719,-1.42036c-1.07312,-0.30478 -2.37624,0.03732 -3.29268,-0.59877c-0.09706,-0.06736 -0.19062,-0.13492 -0.28082,-0.20266c-0.30748,0.40165 -0.62366,0.7969 -0.94754,1.18593c0.09038,0.39193 0.07852,0.8603 -0.10645,1.41522zM189.26989,133.44534c-0.13288,0.0215 -0.26167,0.02939 -0.38594,0.02609c0.20274,0.13427 0.41113,0.27631 0.623,0.42335c-0.07513,-0.15202 -0.15387,-0.30199 -0.23706,-0.44944zM252.7068,102.29625l0.41488,-0.81044c0.0415,-0.10163 0.0855,-0.20206 0.13167,-0.30145c-0.05823,-0.34405 -0.15259,-0.69239 -0.29076,-1.04578c-0.58508,-1.49636 -2.42317,-2.15229 -3.35342,-3.46227c-0.97142,-1.36798 -1.52887,-3.00059 -2.50095,-4.3681c-1.61559,-2.27281 -3.81262,-4.0705 -5.69199,-6.13055c-2.91129,-3.19117 -6.02978,-7.10238 -9.78073,-9.26543c-2.37005,0.02533 -4.072,0.80858 -5.89022,1.89766l-0.00002,-0.00001c0.01136,0.11053 0.01733,0.22675 0.01733,0.34893c0,2.5 -2.5,2.5 -2.5,2.5c-6.76553,-0.00826 -14.58047,3.03662 -17.77221,9.63444c-0.87484,1.80844 -1.37587,3.80585 -2.43449,5.51322c-4.1265,6.65525 -8.5728,12.83844 -5.14,20.75412c0.69798,1.89445 0.88104,3.94203 1.41101,5.89016c0.44127,1.62208 2.06691,2.68079 2.80454,4.19134c0.6128,1.25492 0.92748,2.64048 1.24399,4.00069c0.04505,0.19361 -0.04218,2.98528 0.83371,3.36849c0.62354,0.2728 1.37946,-0.09342 2.04066,0.0679c0.80859,0.19728 1.48124,0.80372 2.29259,0.98933c5.09439,1.16537 11.15771,0.25699 16.38687,0.25699c2.22222,0 4.44667,-0.09937 6.66667,0c0.36076,0.01615 0.74154,0.22709 1.09762,0.29144c0.2979,-0.29152 0.65315,-0.46579 0.97142,-0.56996c0.20645,-0.39274 0.33242,-0.87687 0.66991,-1.14708c2.80744,-2.24779 4.55425,-2.30508 6.62623,-5.28261c1.90713,-2.22837 4.16389,-4.3698 5.98139,-6.64261c2.38599,-2.98371 2.44275,-6.95134 3.64551,-10.35915c0.27144,-0.76909 1.04915,-1.31007 1.25834,-2.09836c0.21359,-0.80483 -0.21913,-1.68488 -0.03864,-2.49777c0.2365,-1.06515 0.66706,-2.11982 1.00982,-3.19154c-0.80798,-1.13712 -0.11073,-2.53161 -0.11073,-2.53161zM211.07411,269.7732c0.28575,0.41622 0.37368,0.86488 0.37064,1.26583c3.76171,-0.91802 4.56432,-7.05246 5.84147,-10.17026c1.25133,-3.05479 2.14708,-6.16833 3.29832,-9.24399c1.2142,-3.24389 3.38216,-6.4176 4.26507,-9.7865c1.11844,-4.26759 1.51873,-5.58304 5.42131,-8.1328l-0.57774,0.3353c0,0 0.17544,-0.35087 0.52631,-0.70514c-0.26705,-0.63691 -0.32915,-1.50193 0.45587,-2.44395c1.60046,-1.92056 3.52102,-0.32009 3.52102,-0.32009c0.86442,0.79607 2.02812,1.35787 2.59325,2.3882c0.55969,1.02041 0.37816,2.2971 0.60294,3.43901c1.39602,7.09188 1.03668,14.2183 1.03668,21.42668c0,2.83711 -0.14512,5.67768 -0.00483,8.51132c0.06333,1.27916 -0.42584,2.82106 0.37027,3.82429c0.71936,0.90652 2.31065,0.16909 3.4679,0.16438c1.49773,-0.0061 3.30608,0.75743 4.49039,-0.15942c1.1671,-0.90353 1.81367,-4.59763 2.42996,-5.99444c1.01862,-8.71789 1.90381,-17.62778 1.25359,-26.48884c-0.45383,-6.18467 -3.73711,-11.53383 -4.32861,-17.61262c-0.29655,-3.04759 0.32322,-6.18463 0.32133,-9.24468c-0.00062,-1 -0.11376,-2.00649 0,-3c0.05948,-0.51955 0.88011,-1.10986 0.51324,-1.48252c-0.47054,-0.47796 -1.34103,-0.03726 -2.01173,-0.0396c-1.00052,-0.00349 -2.001,0.01475 -3.0015,0.02212c-9.20434,-0.0089 -18.28093,1.5062 -27.3612,2.64793c-1.7467,0.21963 -7.43291,-0.09955 -7.92472,2.61501c-0.49989,2.75912 0.16513,6.91475 0.43915,9.64481c0.49751,4.95664 1.12994,9.81536 1.67628,14.78732c0.01379,11.31249 2.07974,22.45243 2.31536,33.75264zM287.45772,109.07096l2.44593,0.97837c0.00185,0.00069 0.00371,0.00139 0.00556,0.00208c1.28069,-1.71215 2.87887,-2.87121 5.19505,-4.10806c2.87135,-1.53332 5.78865,-1.71863 8.00221,-4.34744c0.84422,-1.00259 -2.61186,-0.25833 -3.88139,-0.62957l-2.87527,-0.31948c-1.2652,-0.12362 -2.2539,-1.19037 -2.2539,-2.48804c0,-0.85068 0.42488,-1.60213 1.07401,-2.0537l1.76904,-1.2636c0.20534,-0.56748 0.53717,-1.44245 0.16208,-1.23217c-0.44689,0.25053 -0.62149,0.84391 -1.05377,1.11887c-1.21137,0.77052 -2.25635,1.27171 -3.29114,1.64547l-3.58907,1.95767c-0.36495,0.20838 -0.78749,0.32746 -1.23782,0.32746c-1.38071,0 -2.5,-1.11929 -2.5,-2.5c0,-0.36938 0.08011,-0.72007 0.22391,-1.0356l0.97823,-2.28253l0.0238,0.0102l0.00612,-0.07727c1.05546,-1.97799 1.4478,-3.25749 1.02754,-5.04026c-0.25876,-0.22382 -0.43658,-0.46864 -0.55489,-0.71839c-0.19075,0.43735 -0.44525,0.84858 -0.64574,1.2825c-0.55179,1.19428 -1.06917,2.40442 -1.63098,3.59403c-2.03053,4.29955 -3.77717,7.34374 -4.10204,12.12574c0,0 -0.00001,0.00017 -0.00004,0.00051c1.62904,1.18628 3.17631,2.37933 4.66567,3.78331c0.48609,0.15189 1.06953,0.46601 1.40382,1.1156c0.37657,0.05172 0.63306,0.15432 0.63306,0.15432zM241.21046,276.96137c0.43994,0.84168 1.07866,1.60041 1.84984,2.12112c1.462,1.16938 2.57184,2.88885 4.29646,3.61726c1.49547,0.63162 5.36426,-0.41732 6.81187,-0.61478c0.51056,-0.06964 5.72359,-0.1572 5.92255,-2.07917c0.06187,-0.59767 -0.77591,-4.67599 -1.16067,-5.02499c-0.2838,-0.25743 -0.76452,0.05819 -1.1476,0.06585c-2.31983,0.04639 -5.12024,-0.40671 -7.4069,-0.012c-3.00837,0.51929 -6.17994,0.89963 -9.05618,1.89587c0,0 -0.03926,0.01309 -0.10936,0.03084zM179.72246,202.71276c0.0174,0.10734 0.65898,1.54586 1.11597,2.62484l0.26943,-2.42488c0.12362,-1.2652 1.19037,-2.2539 2.48804,-2.2539c0.99801,0 1.85943,0.58479 2.26029,1.4304l0.6783,1.35662c0.47647,0.48225 0.77689,0.99273 0.73597,1.59318c0.41611,-0.41012 0.92541,-0.73035 1.36862,-1.11468c1.95179,-1.69247 4.06162,-2.03449 2.58764,-3.96741l-0.2962,-1.17133c-0.47214,-0.22878 -0.76905,-0.52568 -0.76905,-0.52568l-0.21183,-0.21966c-2.90686,-2.66729 -6.4536,-3.11633 -10.22874,-2.90928c-0.11019,2.49984 -0.37586,5.25459 0.00155,7.58177zM210.89542,277.97814c-0.04019,2.75579 -0.01847,7.91904 3.8063,6.2216c0.77553,-0.34418 1.20446,-1.20802 1.90031,-1.69351c0.60714,-0.4236 1.47166,-0.47082 1.9771,-1.01174c1.9375,-2.07351 -1.35777,-4.0003 -2.84046,-4.56397c-1.22455,-0.46554 -3.37696,0.41321 -4.84325,1.04762z" fill="#000000" stroke-width="0.5"/><path d="M261.61087,120.75585c-1.40547,1.66901 -2.15017,3.96353 -3.90174,5.26467c-0.67341,0.50024 -1.66234,0.46358 -2.31656,0.98867c-2.69019,2.1592 -5.50932,5.46595 -7.98158,7.93585c0,0 -0.36947,0.36924 -0.60173,0.93804c-0.94937,0.18806 -1.89694,0.41166 -2.84002,0.61057c-0.83724,0.17659 -1.82089,0.13046 -2.7806,0.11018c1.24597,-0.86861 2.39956,-1.83181 3.56502,-3.42954c1.9036,-2.21729 4.23833,-4.39605 6.0106,-6.68344c2.71742,-3.50726 2.94438,-7.65606 4.34621,-11.62791c0.32495,-0.9207 1.15439,-1.62166 1.40693,-2.56479c0.2445,-0.91311 -0.16764,-1.90945 0.03758,-2.83218c0.5189,-2.33316 1.36364,-4.43449 1.50526,-6.67854c1.12768,-2.38095 2.37457,-3.67873 2.23034,-6.7278l0.3094,-0.19816c0.18595,-0.48479 0.36205,-0.98563 0.52546,-1.50234c-1.31482,-0.78402 -4.93685,-2.93946 -5.24882,-3.29822c-1.65286,-1.90081 -1.99071,-5.01784 -3.59304,-7.11063l-1.23431,-2.37865c0,0 -0.57674,-1.15399 -0.07008,-2.21932c-1.71774,-3.39063 -3.29331,-6.99105 -5.71215,-9.92395c-1.50921,-1.82995 -3.90413,-2.91628 -6.21667,-3.44411c-8.77008,-0.03885 -17.28031,1.13757 -25.95715,2.00525c-4.78205,0.4782 -10.28392,0.52587 -13.97401,4.18348c-1.54987,1.53623 -2.37606,3.65454 -3.4326,5.56394c-0.89352,1.61479 -2.23727,2.95273 -3.05514,4.60711c-0.32778,0.66303 -0.30138,1.49394 -0.74299,2.08726c-1.13569,1.52582 -2.90868,2.45301 -4.21677,3.83389c-0.43609,1.93036 -1.66471,3.59973 -2.20303,5.50411c-0.47101,1.6663 0.30527,3.4914 -0.04495,5.1872c-0.43489,2.10582 -1.66812,3.99673 -2.02151,6.11775c-0.90182,5.41268 0.49522,11.23011 0.98106,16.5743c0.05607,0.61678 0.07632,1.23935 0.09661,1.86389c1.62041,1.86333 3.87939,5.41044 1.02249,7.76946c0.48341,0.50565 0.93962,1.03789 1.36153,1.61124l-0.00001,0.00001c0,0 -0.06012,0.08477 -0.03992,0.10929c-0.71851,-0.1948 -1.5142,-0.15487 -2.22056,-0.40444c-1.76299,-0.62291 0.91096,0.38358 -0.79436,-0.38324c-0.15544,-0.06989 0.37445,0.11265 0.20783,0.07745c-0.6642,-0.14031 1.98952,0.61863 1.36802,0.34415c-1.63353,-0.72144 0.08816,0.07058 -1.60237,-0.50474c-3.81668,-1.2989 2.38003,1.48745 -1.36507,0.0415c-1.99598,-0.77063 3.23771,0.75464 1.13181,0.37653l0.48967,-0.46681c0.01202,-0.02665 -1.70936,0.06249 -1.70936,0.06249c0.08557,0.15621 -7.28741,-1.62989 -6.05134,-4.29833c0.97271,-2.09992 -4.45767,-6.26958 -5.7978,-17.45423c-1.03716,-8.65608 1.77921,-24.92272 3.06845,-26.21195c1.49781,-1.49781 3.59061,-2.65813 5.25485,-3.99105c3.33351,-0.6667 7.50343,-2.66463 10.12336,-4.90312c3.13565,-2.67912 6.45892,-6.29862 10.54152,-7.49061c0.79994,-0.23356 1.70456,0.23897 2.50245,-0.0015c1.58486,-0.47765 2.93477,-1.79725 4.58515,-1.92444c1.10622,-0.08526 2.25515,0.21011 3.33221,-0.05619c2.76886,-0.68458 4.72405,-2.15836 7.68299,-2.44734c4.80318,-0.46909 9.70921,-0.19917 14.4787,-0.99409c2.92399,0.00756 5.87965,0.09211 8.8029,0.01248c0.5712,-0.01556 1.17491,-0.32565 1.71086,-0.12746c0.78161,0.28903 1.21184,1.23809 2.00242,1.50156c0.77891,0.25958 1.70006,-0.30982 2.4649,-0.01131c0.81992,0.32001 1.24513,1.26793 1.98244,1.74862c1.88499,1.22891 3.68545,2.63014 5.70586,3.62077c2.03785,0.99918 4.5527,0.65327 6.63086,1.56564c0.70083,0.30768 3.92457,3.67605 4.20778,3.84842c0.95001,0.57819 0.36105,5.39119 1.35511,5.88985c0.79037,0.39648 0.33043,4.81579 1.14074,5.16974c3.68706,1.61055 -2.55036,11.50051 1.09144,9.61986c1.03886,-0.53647 -3.11188,20.29328 -7.53456,25.54522z" data-paper-data="{&quot;noHover&quot;:false,&quot;origItem&quot;:[&quot;Path&quot;,{&quot;applyMatrix&quot;:true,&quot;segments&quot;:[[[281.81651,78.99842],[1.10877,0.42531],[-3.71326,-1.42436]],[[269.77958,75.98226],[3.68706,1.61055],[-0.81031,-0.35395]],[[267.63974,74.41445],[0.79037,0.39648],[-0.99406,-0.49866]],[[264.48568,73.32662],[0.95001,0.57819],[-0.28322,-0.17237]],[[260.28073,69.48278],[0.70083,0.30768],[-2.07817,-0.91237]],[[253.65328,67.92149],[2.03785,0.99918],[-2.0204,-0.99063]],[[247.95262,64.30584],[1.88499,1.22891],[-0.73731,-0.48068]],[[245.97249,62.55907],[0.81992,0.32001],[-0.76484,-0.29851]],[[243.50943,62.57171],[0.77891,0.25958],[-0.79059,-0.26347]],[[241.50943,61.07171],[0.78161,0.28903],[-0.53594,-0.19819]],[[239.8,61.2],[0.5712,-0.01556],[-2.92326,0.07963]],[[231.0062,61.19148],[2.92399,0.00756],[-4.7695,0.79492]],[[216.54635,62.18783],[4.80318,-0.46909],[-2.95894,0.28898]],[[208.87439,64.63312],[2.76886,-0.68458],[-1.07706,0.2663]],[[205.54635,64.68783],[1.10622,-0.08526],[-1.65038,0.1272]],[[200.96734,66.60928],[1.58486,-0.47765],[-0.79788,0.24047]],[[198.46734,66.60928],[0.79994,-0.23356],[-4.08261,1.19199]],[[187.93801,74.08863],[3.13565,-2.67912],[-2.61993,2.23849]],[[177.82043,78.98226],[3.33351,-0.6667],[-1.66423,1.33291]],[[172.56777,82.96776],[1.49781,-1.49781],[-2.95509,2.95509]],[[165.42663,93.51432],[2.1175,-3.51198],[-1.33413,2.21273]],[[161.03962,99.8109],[1.16749,-2.34054],[-1.83046,3.66964]],[[156.07129,111.24464],[1.72552,-3.72511],[-1.23606,2.66845]],[[153.62119,119.62847],[1.08557,-2.75288],[0,0]],[[153.60328,119.66985],[0.01202,-0.02665],[0,0]],[[153.711,119.73401],[0,0],[2.1059,0.37812]],[[159.75671,121.8903],[-1.99598,-0.77063],[3.7451,1.44595]],[[171.62424,125.33978],[-3.81668,-1.2989],[1.69053,0.57532]],[[176.32043,127.91773],[-1.63353,-0.72144],[0.7774,0.34333]],[[178.82043,128.41773],[-0.77508,-0.34853],[1.70532,0.76682]],[[183.61134,131.33531],[-1.76299,-0.62291],[0.70636,0.24958]],[[185.83057,131.73838],[-0.71851,-0.1948],[-0.02019,-0.02453]],[185.79999,131.70001],[[185.8,131.7],[0,0],[-0.42191,-0.57335]],[[184.43693,130.08715],[0.48341,0.50565],[2.8569,-2.35902]],[[183.4098,122.31183],[1.62041,1.86333],[-0.02029,-0.62454]],[[183.31216,120.44634],[0.05607,0.61678],[-0.48584,-5.34419]],[[182.32416,103.85324],[-0.90182,5.41268],[0.35339,-2.12102]],[[184.3451,97.72722],[-0.43489,2.10582],[0.35022,-1.6958]],[[184.3907,92.53265],[-0.47101,1.6663],[0.53832,-1.90438]],[[186.5958,87.02034],[-0.43609,1.93036],[1.30809,-1.38088]],[[190.81569,83.17927],[-1.13569,1.52582],[0.44161,-0.59332]],[[191.56037,81.08908],[-0.32778,0.66303],[0.81787,-1.65438]],[[194.62058,76.47517],[-0.89352,1.61479],[1.05654,-1.9094]],[[198.06005,70.90482],[-1.54987,1.53623],[3.69009,-3.65761]],[[212.05365,66.71215],[-4.78205,0.4782],[8.67684,-0.86768]],[[238.04634,64.71215],[-8.77008,-0.03885],[2.31254,0.52783]],[[244.27051,68.16145],[-1.50921,-1.82995],[2.41884,2.9329]],[[249.99246,78.09645],[-1.71774,-3.39063],[-0.50665,1.06533]],[250.06394,80.31803],[[251.30001,82.7],[0,0],[1.60233,2.09279]],[[254.89669,89.82092],[-1.65286,-1.90081],[0.31196,0.35877]],[[260.14645,93.12441],[-1.31482,-0.78402],[-0.16341,0.51671]],[[259.62118,94.62849],[0.18595,-0.48479],[0,0]],[[259.3118,94.82686],[0,0],[0.14423,3.04907]],[[257.08144,101.56325],[1.12768,-2.38095],[-0.14162,2.24405]],[[255.57458,108.25067],[0.5189,-2.33316],[-0.20522,0.92273]],[[255.53594,111.08624],[0.2445,-0.91311],[-0.25254,0.94313]],[[254.12762,113.65454],[0.32495,-0.9207],[-1.40183,3.97185]],[[249.77313,125.29538],[2.71742,-3.50726],[-1.77227,2.28739]],[[243.75452,131.98611],[1.9036,-2.21729],[-1.16546,1.59773]],[[240.18467,135.41876],[1.24597,-0.86861],[0.95971,0.02028]],[[242.9136,135.22301],[-0.83724,0.17659],[0.94308,-0.19891]],[[245.75114,134.61414],[-0.94937,0.18806],[0.23226,-0.5688]],[[246.35194,133.6768],[0,0],[2.47226,-2.4699]],[[254.32459,125.7498],[-2.69019,2.1592],[0.65422,-0.52509]],[[256.63972,124.76305],[-0.67341,0.50024],[1.75157,-1.30114]],[[260.53781,119.5044],[-1.40547,1.66901],[4.42268,-5.25194]],[[273.91377,103.85278],[-4.42007,5.29017],[0.04898,-0.36732]],[[274.4187,102.65814],[-0.30459,0.42643],[0.04733,-0.06626]],[[274.56245,102.47028],[-0.04847,0.05903],[0.03771,-0.04747]],[[274.68304,102.32819],[-0.0427,0.04707],[0.53458,-5.08468]],[[279.1917,89.04523],[-2.21083,4.67803],[0.38799,-0.82097]],[[282.78908,82.24542],[-1.02884,0.71122],[0.67108,-0.46391]],[[284.64367,81.15796],[-0.56806,0.26253],[-0.89713,-0.80299]]],&quot;closed&quot;:true}]}" fill="#767676" stroke-width="0.5"/><path d="M214.60513,276.16711c1.48269,0.56367 4.81735,2.55094 2.87985,4.62445c-0.50544,0.54092 -1.38618,0.6148 -1.99332,1.0384c-0.69585,0.48549 -1.1619,1.3611 -1.93743,1.70528c-3.82477,1.69744 -3.88377,-3.54285 -3.84358,-6.29864c1.46629,-0.63441 3.66992,-1.53503 4.89447,-1.06949z" data-paper-data="{&quot;noHover&quot;:false,&quot;origItem&quot;:[&quot;Path&quot;,{&quot;applyMatrix&quot;:true,&quot;segments&quot;:[[[209.75256,277.26385],[1.46629,-0.63441],[-0.04019,2.75579]],[[213.55886,283.48545],[-3.82477,1.69744],[0.77553,-0.34418]],[[215.45917,281.79194],[-0.69585,0.48549],[0.60714,-0.4236]],[[217.43627,280.7802],[-0.50544,0.54092],[1.9375,-2.07351]],[[214.59581,276.21623],[1.48269,0.56367],[-1.22455,-0.46554]]],&quot;closed&quot;:true,&quot;fillColor&quot;:[0,0,0],&quot;strokeWidth&quot;:0.5}]}" fill="#ffffff" stroke-width="0.25"/><path d="M240.01863,276.23708c0.0701,-0.01775 0.10942,-0.03111 0.10942,-0.03111c2.87624,-0.99624 6.09317,-1.4162 9.10154,-1.93549c2.28666,-0.39471 5.13467,0.08456 7.4545,0.03817c0.38308,-0.00766 0.865,-0.32091 1.1488,-0.06348c0.38476,0.349 1.22697,4.45454 1.1651,5.05221c-0.19896,1.92197 -5.42466,2.03729 -5.93522,2.10693c-1.44761,0.19746 -5.38607,1.25058 -6.88154,0.61896c-1.72462,-0.72841 -2.85175,-2.48442 -4.31375,-3.6538c-0.77118,-0.52071 -1.40891,-1.29072 -1.84885,-2.1324z" data-paper-data="{&quot;noHover&quot;:false,&quot;origItem&quot;:[&quot;Path&quot;,{&quot;applyMatrix&quot;:true,&quot;segments&quot;:[[[240.0676,276.24708],[0,0],[0.43994,0.84168]],[[241.91744,278.3682],[-0.77118,-0.52071],[1.462,1.16938]],[[246.2139,281.98546],[-1.72462,-0.72841],[1.49547,0.63162]],[[253.02577,281.37068],[-1.44761,0.19746],[0.51056,-0.06964]],[[258.94832,279.29151],[-0.19896,1.92197],[0.06187,-0.59767]],[[257.78765,274.26652],[0.38476,0.349],[-0.2838,-0.25743]],[[256.64005,274.33237],[0.38308,-0.00766],[-2.31983,0.04639]],[[249.23315,274.32037],[2.28666,-0.39471],[-3.00837,0.51929]],[[240.17697,276.21624],[2.87624,-0.99624],[0,0]],[[240.06761,276.24708],[0.0701,-0.01775],[0,0]]],&quot;closed&quot;:true,&quot;fillColor&quot;:[0,0,0],&quot;strokeWidth&quot;:0.5}]}" fill="#ffffff" stroke-width="0.25"/><path d="M211.30682,270.30252c-0.23562,-11.30021 -2.32671,-22.49017 -2.3405,-33.80266c-0.54634,-4.97196 -1.16808,-9.85569 -1.66559,-14.81233c-0.27402,-2.73006 -0.93166,-6.89309 -0.43177,-9.65221c0.49181,-2.71456 6.18817,-2.40177 7.93487,-2.6214c9.08027,-1.14173 18.19737,-2.65781 27.40171,-2.64891c1.0005,-0.00737 2.00445,-0.02401 3.00497,-0.02052c0.6707,0.00234 1.54334,-0.4372 2.01388,0.04076c0.36687,0.37266 -0.45341,0.96317 -0.51289,1.48272c-0.11376,0.99351 0.00133,2.00119 0.00195,3.00119c0.00189,3.06005 -0.61055,6.20284 -0.314,9.25043c0.5915,6.07879 3.89034,11.46219 4.34417,17.64686c0.65022,8.86106 -0.25356,17.81193 -1.27218,26.52982c-0.61629,1.39681 -1.26928,5.0953 -2.43638,5.99883c-1.18431,0.91685 -2.9978,0.1559 -4.49553,0.162c-1.15725,0.00471 -2.75294,0.7438 -3.4723,-0.16272c-0.79611,-1.00323 -0.3391,-2.63981 -0.40243,-3.91897c-0.14029,-2.83364 -0.00124,-5.67159 -0.00124,-8.5087c0,-7.20838 0.33361,-14.27832 -1.06241,-21.3702c-0.22478,-1.14191 -0.036,-2.40239 -0.59569,-3.4228c-0.56513,-1.03033 -1.71632,-1.57944 -2.58074,-2.37551c0,0 -1.90504,-1.59315 -3.5055,0.32741c-0.78502,0.94202 -0.69458,1.71116 -0.42753,2.34807c-0.35087,0.35427 -0.52929,0.7043 -0.52929,0.7043l0.54908,-0.23961c-3.90258,2.54976 -4.24874,3.78504 -5.36718,8.05263c-0.88291,3.3689 -3.06236,6.53294 -4.27656,9.77683c-1.15124,3.07566 -2.0505,6.18724 -3.30183,9.24203c-1.27715,3.1178 -2.12565,9.34108 -5.88736,10.2591c0.00304,-0.40095 -0.08602,-0.85022 -0.37177,-1.26644z" data-paper-data="{&quot;noHover&quot;:false,&quot;origItem&quot;:[&quot;Path&quot;,{&quot;applyMatrix&quot;:true,&quot;segments&quot;:[[[209.93125,269.05891],[0,0],[0.28575,0.41622]],[[210.30189,270.32474],[0.00304,-0.40095],[3.76171,-0.91802]],[[216.14336,260.15448],[-1.27715,3.1178],[1.25133,-3.05479]],[[219.44168,250.91049],[-1.15124,3.07566],[1.2142,-3.24389]],[[223.70675,241.12399],[-0.88291,3.3689],[1.11844,-4.26759]],[[229.12806,232.99119],[-3.90258,2.54976],[0,0]],[228.55032,233.32649],[[229.07663,232.62135],[-0.35087,0.35427],[-0.26705,-0.63691]],[[229.5325,230.1774],[-0.78502,0.94202],[1.60046,-1.92056]],[[233.05352,229.85731],[0,0],[0.86442,0.79607]],[[235.64677,232.24551],[-0.56513,-1.03033],[0.55969,1.02041]],[[236.24971,235.68452],[-0.22478,-1.14191],[1.39602,7.09188]],[[237.28639,257.1112],[0,-7.20838],[0,2.83711]],[[237.28156,265.62252],[-0.14029,-2.83364],[0.06333,1.27916]],[[237.65183,269.44681],[-0.79611,-1.00323],[0.71936,0.90652]],[[241.11973,269.61119],[-1.15725,0.00471],[1.49773,-0.0061]],[[245.61012,269.45177],[-1.18431,0.91685],[1.1671,-0.90353]],[[248.04008,263.45733],[-0.61629,1.39681],[1.01862,-8.71789]],[[249.29367,236.96849],[0.65022,8.86106],[-0.45383,-6.18467]],[[244.96506,219.35587],[0.5915,6.07879],[-0.29655,-3.04759]],[[245.28639,210.11119],[0.00189,3.06005],[-0.00062,-1]],[[245.28639,207.11119],[-0.11376,0.99351],[0.05948,-0.51955]],[[245.79963,205.62867],[0.36687,0.37266],[-0.47054,-0.47796]],[[243.7879,205.58907],[0.6707,0.00234],[-1.00052,-0.00349]],[[240.7864,205.61119],[1.0005,-0.00737],[-9.20434,-0.0089]],[[213.4252,208.25912],[9.08027,-1.14173],[-1.7467,0.21963]],[[205.50048,210.87413],[0.49181,-2.71456],[-0.49989,2.75912]],[[205.93963,220.51894],[-0.27402,-2.73006],[0.49751,4.95664]],[[207.61591,235.30626],[-0.54634,-4.97196],[0.01379,11.31249]],[[209.93127,269.0589],[-0.23562,-11.30021],[0,0]]],&quot;closed&quot;:true,&quot;fillColor&quot;:[0,0,0],&quot;strokeWidth&quot;:0.5}]}" fill="#c1c1c1" stroke-width="0.25"/><path d="M178.53357,202.01797c-0.37741,-2.32718 -0.1036,-5.13406 0.00659,-7.6339c3.77514,-0.20705 7.40446,0.25217 10.31132,2.91946l0.21308,0.22233c0,0 0.29927,0.30368 0.77141,0.53246l0.29786,1.18203c1.47398,1.93292 -0.65427,2.31603 -2.60606,4.0085c-0.44321,0.38433 -0.96789,0.71307 -1.384,1.12319c0.04092,-0.60045 -0.26209,-1.11012 -0.73856,-1.59237l-0.68571,-1.35513c-0.40086,-0.84561 -1.31725,-1.46927 -2.31526,-1.46927c-1.29767,0 -2.27268,0.95228 -2.3963,2.21748l-0.34646,2.48709c-0.45699,-1.07898 -1.11049,-2.53454 -1.12789,-2.64188z" data-paper-data="{&quot;noHover&quot;:false,&quot;origItem&quot;:[&quot;Path&quot;,{&quot;applyMatrix&quot;:true,&quot;segments&quot;:[[[178.5796,201.99847],[0,0],[0.0174,0.10734]],[[179.69557,204.62331],[-0.45699,-1.07898],[0,0]],[[179.965,202.19843],[0,0],[0.12362,-1.2652]],[[182.45304,199.94453],[-1.29767,0],[0.99801,0]],[[184.71333,201.37493],[-0.40086,-0.84561],[0,0]],[[185.39163,202.73155],[0,0],[0.47647,0.48225]],[[186.1276,204.32473],[0.04092,-0.60045],[0.41611,-0.41012]],[[187.49622,203.21005],[-0.44321,0.38433],[1.95179,-1.69247]],[[190.08386,199.24264],[1.47398,1.93292],[0,0]],[[189.78766,198.07131],[0,0],[-0.47214,-0.22878]],[189.01861,197.54563],[[188.80678,197.32597],[0,0],[-2.90686,-2.66729]],[[178.57804,194.41669],[3.77514,-0.20705],[-0.11019,2.49984]],[[178.57959,201.99846],[-0.37741,-2.32718],[0,0]]],&quot;closed&quot;:true,&quot;fillColor&quot;:[0,0,0],&quot;strokeWidth&quot;:0.5}]}" fill="#ffffff" stroke-width="0.25"/><path d="M286.29571,108.40289c0,0 -0.25895,-0.1037 -0.63552,-0.15542c-0.33429,-0.64959 -0.92422,-0.96744 -1.41031,-1.11933c-1.48936,-1.40398 -3.05281,-2.61516 -4.68185,-3.80144c0.00003,-0.00034 0.00004,-0.00051 0.00004,-0.00051c0.32487,-4.782 2.0781,-7.88229 4.10863,-12.18184c0.56181,-1.18961 1.09241,-2.41049 1.6442,-3.60477c0.24913,-0.5392 0.58699,-1.04596 0.77695,-1.60874c0.05139,-0.15224 -0.09047,-0.53373 -0.03058,-0.38462c1.07725,2.68198 0.81728,4.05453 -0.51351,6.5485l-0.00584,0.07699l-0.02376,-0.01024l-0.96866,2.26881c-0.1438,0.31553 -0.22121,0.65917 -0.22121,1.02855c0,1.38071 1.12094,2.47912 2.50165,2.47912c0.45033,0 0.77345,-0.10874 1.1384,-0.31712l3.65889,-2.00726c1.03479,-0.37376 2.09815,-0.8612 3.30952,-1.63172c0.43228,-0.27496 0.60601,-0.86935 1.0529,-1.11988c0.37509,-0.21028 0.04746,0.67016 -0.15788,1.23764l-1.76849,1.26444c-0.64913,0.45157 -1.06624,1.23077 -1.06624,2.08145c0,1.29767 0.89547,2.33835 2.16067,2.46197l2.87199,0.32626c1.26953,0.37124 4.81985,-0.33976 3.97563,0.66283c-2.21356,2.62881 -5.16012,2.84565 -8.03147,4.37897c-2.31618,1.23685 -3.94143,2.39869 -5.22212,4.11084c-0.00185,-0.00069 -0.00373,-0.00139 -0.00558,-0.00208l-2.45643,-0.98143z" data-paper-data="{&quot;noHover&quot;:false,&quot;origItem&quot;:[&quot;Path&quot;,{&quot;applyMatrix&quot;:true,&quot;segments&quot;:[[286.31486,108.35667],[[288.76079,109.33504],[0,0],[0.00185,0.00069]],[[288.76635,109.33712],[-0.00185,-0.00069],[1.28069,-1.71215]],[[293.9614,105.22906],[-2.31618,1.23685],[2.87135,-1.53332]],[[301.96361,100.88162],[-2.21356,2.62881],[0.84422,-1.00259]],[[298.08222,100.25205],[1.26953,0.37124],[0,0]],[[295.20695,99.93257],[0,0],[-1.2652,-0.12362]],[[292.95305,97.44453],[0,1.29767],[0,-0.85068]],[[294.02706,95.39083],[-0.64913,0.45157],[0,0]],[[295.7961,94.12723],[0,0],[0.20534,-0.56748]],[[295.95818,92.89506],[0.37509,-0.21028],[-0.44689,0.25053]],[[294.90441,94.01393],[0.43228,-0.27496],[-1.21137,0.77052]],[[291.61327,95.6594],[1.03479,-0.37376],[0,0]],[[288.0242,97.61707],[0,0],[-0.36495,0.20838]],[[286.78638,97.94453],[0.45033,0],[-1.38071,0]],[[284.28638,95.44453],[0,1.38071],[0,-0.36938]],[[284.51029,94.40893],[-0.1438,0.31553],[0,0]],[285.48852,92.1264],[285.51232,92.1366],[[285.51844,92.05933],[0,0],[1.33079,-2.49397]],[[286.04856,85.49985],[1.07725,2.68198],[-0.05989,-0.14911]],[[286.117,85.97702],[0.05139,-0.15224],[-0.18996,0.56278]],[[285.34536,87.58318],[0.24913,-0.5392],[-0.55179,1.19428]],[[283.71438,91.17721],[0.56181,-1.18961],[-2.03053,4.29955]],[[279.61234,103.30295],[0.32487,-4.782],[0,0]],[[279.6123,103.30346],[0.00003,-0.00034],[1.62904,1.18628]],[[284.27797,107.08677],[-1.48936,-1.40398],[0.48609,0.15189]],[[285.68179,108.20237],[-0.33429,-0.64959],[0.37657,0.05172]],[286.31485,108.35669]],&quot;closed&quot;:true,&quot;fillColor&quot;:[0,0,0],&quot;strokeWidth&quot;:0.5}]}" fill="#ffffff" stroke-width="0.25"/><path d="M224.60374,78.04563c1.81822,-1.08908 3.52968,-1.87116 5.89973,-1.89649c3.75095,2.16305 6.88975,6.08396 9.80104,9.27513c1.87937,2.06005 4.08708,3.86946 5.70267,6.14227c0.97208,1.36751 1.53395,3.00851 2.50537,4.37649c0.93025,1.30998 2.77074,1.97335 3.35582,3.46971c1.10307,2.82116 -0.58516,5.33458 -1.15358,7.89468c-0.18049,0.81289 0.25181,1.69753 0.03822,2.50236c-0.20919,0.78829 -0.98767,1.3335 -1.25911,2.10259c-1.20276,3.40781 -1.26804,7.39402 -3.65403,10.37773c-1.8175,2.27281 -4.08585,4.42554 -5.99298,6.65391c-2.07198,2.97753 -3.83169,3.04129 -6.63913,5.28908c-0.33749,0.27021 -0.46502,0.75483 -0.67147,1.14757c-0.31827,0.10417 -0.67523,0.27891 -0.97313,0.57043c-0.35608,-0.06435 -0.73845,-0.27491 -1.09921,-0.29106c-2.22,-0.09937 -4.45547,0.0012 -6.67769,0.0012c-5.22916,0 -11.31685,0.90196 -16.41124,-0.26341c-0.81135,-0.18561 -1.48712,-0.79396 -2.29571,-0.99124c-0.6612,-0.16132 -1.41915,0.20348 -2.04269,-0.06932c-0.87589,-0.38321 -0.79182,-3.17742 -0.83687,-3.37103c-0.31651,-1.36021 -0.63531,-2.7498 -1.24811,-4.00472c-0.73763,-1.51055 -2.36826,-2.57573 -2.80953,-4.19781c-0.52997,-1.94813 -0.71755,-4.00445 -1.41553,-5.8989c-3.4328,-7.91568 1.01445,-14.13804 5.14095,-20.79329c1.05862,-1.70737 1.56601,-3.71517 2.44085,-5.52361c3.19174,-6.59782 11.04237,-9.66149 17.8079,-9.65323c0,0 2.50483,-0.0001 2.50483,-2.5001c0,-0.12218 -0.00865,-0.13844 -0.02001,-0.24897z" data-paper-data="{&quot;noHover&quot;:false,&quot;origItem&quot;:[&quot;Path&quot;,{&quot;applyMatrix&quot;:true,&quot;segments&quot;:[[[224.60239,78.0956],[0,0],[0.01136,0.11053]],[[224.61972,78.44453],[0,-0.12218],[0,2.5]],[[222.11972,80.94453],[0,0],[-6.76553,-0.00826]],[[204.34751,90.57897],[3.19174,-6.59782],[-0.87484,1.80844]],[[201.91302,96.09219],[1.05862,-1.70737],[-4.1265,6.65525]],[[196.77302,116.84631],[-3.4328,-7.91568],[0.69798,1.89445]],[[198.18403,122.73647],[-0.52997,-1.94813],[0.44127,1.62208]],[[200.98857,126.92781],[-0.73763,-1.51055],[0.6128,1.25492]],[[202.23256,130.9285],[-0.31651,-1.36021],[0.04505,0.19361]],[[203.06627,134.29699],[-0.87589,-0.38321],[0.62354,0.2728]],[[205.10693,134.36489],[-0.6612,-0.16132],[0.80859,0.19728]],[[207.39952,135.35422],[-0.81135,-0.18561],[5.09439,1.16537]],[[223.78639,135.61121],[-5.22916,0],[2.22222,0]],[[230.45306,135.61121],[-2.22,-0.09937],[0.36076,0.01615]],[[231.55068,135.90265],[-0.35608,-0.06435],[0.2979,-0.29152]],[[232.5221,135.33269],[-0.31827,0.10417],[0.20645,-0.39274]],[[233.19201,134.18561],[-0.33749,0.27021],[2.80744,-2.24779]],[[239.81824,128.903],[-2.07198,2.97753],[1.90713,-2.22837]],[[245.79963,122.26039],[-1.8175,2.27281],[2.38599,-2.98371]],[[249.44514,111.90124],[-1.20276,3.40781],[0.27144,-0.76909]],[[250.70348,109.80288],[-0.20919,0.78829],[0.21359,-0.80483]],[[250.66484,107.30511],[-0.18049,0.81289],[0.56842,-2.5601]],[[251.81972,99.4243],[1.10307,2.82116],[-0.58508,-1.49636]],[[248.4663,95.96203],[0.93025,1.30998],[-0.97142,-1.36798]],[[245.96535,91.59393],[0.97208,1.36751],[-1.61559,-2.27281]],[[240.27336,85.46338],[1.87937,2.06005],[-2.91129,-3.19117]],[[230.49263,76.19795],[3.75095,2.16305],[-2.37005,0.02533]],[[224.60241,78.09561],[1.81822,-1.08908],[0,0]]],&quot;closed&quot;:true,&quot;fillColor&quot;:[0,0,0],&quot;strokeWidth&quot;:0.5}]}" fill="#ffffff" stroke-width="0.25"/><path d="M252.84938,137.31149c0,-0.52105 -0.10729,-0.93212 -0.27922,-1.25861c1.81993,-1.95165 3.82248,-4.17453 5.71367,-5.68196c0.66744,-0.532 1.68262,-0.4833 2.35235,-1.01241c2.25472,-1.78129 2.88761,-3.8573 4.69651,-6.00537c4.24008,-5.03509 8.65062,-10.0091 12.89704,-15.06696c1.45276,1.06579 2.83738,2.16205 4.15974,3.49303l1.76236,0.61482c0.03953,0.0706 0.08236,0.13788 0.12741,0.20165l-0.37508,0.14961c-0.69893,0.91647 -1.73582,1.65514 -2.09642,2.74985c-1.12206,3.40631 0.16621,6.02011 -1.54995,9.40628c-2.20243,4.34565 -6.00092,7.63442 -8.28666,11.92174c-1.5766,2.95718 -2.93647,5.984 -4.61594,8.92395c-2.22307,3.57988 -5.15503,6.82868 -8.01979,9.9305c-2.40742,2.60664 -5.62913,5.08686 -6.86339,8.56311c-1.33395,3.75704 -0.81507,9.49767 -0.81789,13.5068c-0.00576,8.17527 -0.30425,16.34483 -0.34345,24.52171c-0.42958,0.09546 -0.86039,0.19143 -1.28997,0.28689c-2.24351,-1.59122 -5.77922,-1.2814 -8.22318,-1.29615c-9.41327,0.00845 -18.71406,1.5297 -28.00085,2.68344c-1.9518,0.24248 -4.17952,0.4114 -6.20836,0.97262c0.00917,-0.10059 0.00912,-0.16008 0.00912,-0.16008c-0.03587,-7.86297 -3.36976,-15.31796 -4.02075,-23.18068c-0.40331,-4.87128 -0.00396,-9.95714 -0.00396,-14.84707c0,-0.4955 0.01593,-5.74053 -0.06929,-5.91729c-0.959,-1.98924 -1.86583,-4.83238 -4.03096,-5.26704c-1.7006,-0.3414 -2.51049,2.3205 -3.54076,3.7159c-1.77421,2.403 -1.60968,5.73026 -1.53055,8.52933c-3.57668,6.79922 -4.88176,16.32781 -3.99506,24.42978c-3.02172,-1.70586 -6.31552,-2.20326 -9.83244,-2.17803c0.04379,-0.65013 -0.15541,-1.1808 -0.15541,-1.1808c-1.77919,-4.51378 -1.17938,-10.29465 -1.17938,-15.1333c0,-2.40334 -0.62676,-5.78362 -0.06862,-8.09935c1.14437,-4.74803 5.13389,-7.99308 7.68127,-11.91983c2.502,-3.85678 4.15371,-7.44077 7.53986,-10.39603c1.65497,1.27801 3.21635,-0.28444 3.21635,-0.28444c1.27104,-1.27638 2.47961,-2.63227 3.57472,-4.06276c0.0902,0.06774 0.18374,0.13534 0.2808,0.2027c0.91644,0.63609 2.22048,0.29246 3.2936,0.59724c3.84782,1.09284 6.88819,1.41076 10.9937,1.41206c4,0.00127 8.02378,-0.01367 12.02378,-0.01367c0.76278,0 6.6956,0.07701 7.41693,-0.23626c0.12339,-0.05359 0.238,-0.1201 0.34428,-0.1971l0.86531,0.00067c2.66873,0 5.875,0.46382 8.49036,-0.03562c1.83652,-0.35071 3.66294,-0.97773 5.53243,-0.94987c0,0 2.42575,0.06698 2.42575,-2.43302z" data-paper-data="{&quot;noHover&quot;:false,&quot;origItem&quot;:[&quot;Path&quot;,{&quot;applyMatrix&quot;:true,&quot;segments&quot;:[[[251.88639,136.67786],[0,0],[0,2.5]],[[249.38639,139.17786],[0,0],[-1.86949,-0.02786]],[[243.85915,140.13275],[1.83652,-0.35071],[-2.61536,0.49944]],[[235.38639,140.17786],[2.66873,0],[0,0]],[[234.52353,140.17786],[0,0],[-0.10628,0.077]],[[234.18012,140.37517],[0.12339,-0.05359],[-0.72133,0.31327]],[[226.78639,140.6112],[0.76278,0],[-4,0]],[[214.78639,140.6112],[4,0.00127],[-4.10551,-0.0013]],[[203.7992,139.19084],[3.84782,1.09284],[-1.07312,-0.30478]],[[200.50652,138.59207],[0.91644,0.63609],[-0.09706,-0.06736]],[[200.2257,138.38941],[0.0902,0.06774],[-1.09511,1.43049]],[[196.65416,142.44563],[1.27104,-1.27638],[0,0]],[[193.43846,142.72835],[1.65497,1.27801],[-3.38615,2.95526]],[[185.90141,153.11079],[2.502,-3.85678],[-2.54738,3.92675]],[[178.21952,165.01891],[1.14437,-4.74803],[-0.55814,2.31573]],[[178.28639,173.1112],[0,-2.40334],[0,4.83865]],[[179.46055,188.23339],[-1.77919,-4.51378],[0,0]],[[179.61548,189.41344],[0.04379,-0.65013],[3.51692,-0.02523]],[[189.36827,191.65157],[-3.02172,-1.70586],[-0.8867,-8.10197]],[[193.35327,167.20349],[-3.57668,6.79922],[-0.07913,-2.79907]],[[194.88184,158.66348],[-1.77421,2.403],[1.03027,-1.3954]],[[198.52243,154.9455],[-1.7006,-0.3414],[2.16513,0.43466]],[[202.55286,160.20349],[-0.959,-1.98924],[0.08522,0.17676]],[[202.61973,166.1112],[0,-0.4955],[0,4.88993]],[[202.614,180.942],[-0.40331,-4.87128],[0.65099,7.86272]],[[206.61973,204.1112],[-0.03587,-7.86297],[0,0]],[[206.61056,204.27125],[0.00917,-0.10059],[2.02884,-0.56122]],[[212.81427,203.2966],[-1.9518,0.24248],[9.28679,-1.15374]],[[240.78639,200.61121],[-9.41327,0.00845],[2.44396,0.01475]],[[249.0021,201.90969],[-2.24351,-1.59122],[0.42958,-0.09546]],[[250.29086,201.6233],[-0.42958,0.09546],[0.0392,-8.17688]],[[250.61972,177.11121],[-0.00576,8.17527],[0.00282,-4.00913]],[[251.42505,163.6235],[-1.33395,3.75704],[1.23426,-3.47625]],[[258.28541,155.07925],[-2.40742,2.60664],[2.86476,-3.10182]],[[266.30733,145.16162],[-2.22307,3.57988],[1.67947,-2.93995]],[[270.92621,136.24515],[-1.5766,2.95718],[2.28574,-4.28732]],[[279.21588,124.32871],[-2.20243,4.34565],[1.71616,-3.38617]],[[280.76904,114.92681],[-1.12206,3.40631],[0.3606,-1.09471]],[[282.86583,112.17741],[-0.69893,0.91647],[0,0]],[[283.24085,112.02773],[0,0],[-0.04505,-0.06377]],[[283.11355,111.82621],[0.03953,0.0706],[0,0]],[[281.35196,111.21229],[0,0],[-1.32236,-1.33098]],[[277.19499,107.72215],[1.45276,1.06579],[-4.24642,5.05786]],[[264.36827,122.71803],[4.24008,-5.03509],[-1.8089,2.14807]],[[259.5997,128.79272],[2.25472,-1.78129],[-0.66973,0.52911]],[[257.24816,129.80597],[0.66744,-0.532],[-1.89119,1.50743]],[[251.60585,135.41787],[1.81993,-1.95165],[0.17193,0.32649]],[[251.88638,136.67787],[0,-0.52105],[0,0]]],&quot;closed&quot;:true,&quot;fillColor&quot;:[0,0,0],&quot;strokeWidth&quot;:0.5}]}" fill="#750000" stroke-width="0.25"/><path d="M253.93545,102.39564c-1.38407,2.40931 -1.74363,5.40006 -3.04169,7.75749c-0.75431,1.36992 0.23516,3.03292 -0.91457,4.084c-0.51973,0.6209 -1.85553,1.07205 -2.09825,2.19625c-0.87154,4.03673 -1.54296,10.30467 -4.22058,11.52555c-9.18162,8.2469 -14.81547,9.96276 -30.9541,9.78796c-2.35079,-0.02546 -4.32059,-1.86956 -6.55088,-2.61299c-2.23029,-0.74343 -4.91259,-0.45003 -6.8085,-1.84013c-13.04094,-9.56178 -13.87051,-30.09597 -8.22097,-43.82638c0.60137,-1.46155 1.97859,-6.43985 3.08034,-7.7205c11.06297,-12.85927 32.69117,-15.12766 47.99694,-8.40755c0.71193,0.31258 0.97628,1.21862 1.55137,1.74189c2.05051,1.86576 4.40924,3.40912 6.37204,5.35755l1.17342,2.26123c0.03225,0.04212 0.06399,0.08467 0.09525,0.12762c0.04271,0.37085 0.08765,0.74296 0.21643,1.07564c1.35246,3.49372 3.99896,11.26619 3.51877,15.29061c-0.12484,1.04627 -0.81053,1.94527 -1.21579,2.9179z" fill="#ffffff" stroke-width="0.5"/></g></g></svg>