<svg version="1.1" xmlns="http://www.w3.org/2000/svg" xmlns:xlink="http://www.w3.org/1999/xlink" width="74.84211" height="72" viewBox="0,0,74.84211,72"><defs><radialGradient cx="239.14737" cy="176.58947" r="30.31579" gradientUnits="userSpaceOnUse" id="color-1"><stop offset="0" stop-color="#888888"/><stop offset="1" stop-color="#000000"/></radialGradient><radialGradient cx="257.97632" cy="153.85263" r="11.36842" gradientUnits="userSpaceOnUse" id="color-2"><stop offset="0" stop-color="#888888"/><stop offset="1" stop-color="#000000"/></radialGradient><radialGradient cx="271.40526" cy="149.30526" r="7.57895" gradientUnits="userSpaceOnUse" id="color-3"><stop offset="0" stop-color="#888888"/><stop offset="1" stop-color="#000000"/></radialGradient></defs><g transform="translate(-202.57895,-144)"><g data-paper-data="{&quot;isPaintingLayer&quot;:true}" fill-rule="nonzero" stroke="none" stroke-width="0" stroke-linecap="butt" stroke-linejoin="miter" stroke-miterlimit="10" stroke-dasharray="" stroke-dashoffset="0" style="mix-blend-mode: normal"><g><path d="M202.57895,185.68421c0,-16.74295 13.57284,-30.31579 30.31579,-30.31579c16.74295,0 30.31579,13.57284 30.31579,30.31579c0,16.74295 -13.57284,30.31579 -30.31579,30.31579c-16.74295,0 -30.31579,-13.57284 -30.31579,-30.31579z" fill="url(#color-1)"/><path d="M244.26316,157.26316c0,-6.2786 5.08982,-11.36842 11.36842,-11.36842c6.2786,0 11.36842,5.08982 11.36842,11.36842c0,6.2786 -5.08982,11.36842 -11.36842,11.36842c-6.2786,0 -11.36842,-5.08982 -11.36842,-11.36842z" fill="url(#color-2)"/><path d="M262.26316,151.57895c0,-4.18574 3.39321,-7.57895 7.57895,-7.57895c4.18574,0 7.57895,3.39321 7.57895,7.57895c0,4.18574 -3.39321,7.57895 -7.57895,7.57895c-4.18574,0 -7.57895,-3.39321 -7.57895,-7.57895z" fill="url(#color-3)"/></g></g></g></svg>