<svg version="1.1" xmlns="http://www.w3.org/2000/svg" xmlns:xlink="http://www.w3.org/1999/xlink" width="133.88951" height="240.40487" viewBox="0,0,133.88951,240.40487"><defs><linearGradient x1="177.93884" y1="180.00859" x2="302.06598" y2="180.00859" gradientUnits="userSpaceOnUse" id="color-1"><stop offset="0" stop-color="#000000"/><stop offset="1" stop-color="#ffffff"/></linearGradient></defs><g transform="translate(-173.05524,-71.35738)"><g data-paper-data="{&quot;isPaintingLayer&quot;:true}" fill-rule="nonzero" stroke="none" stroke-linecap="butt" stroke-linejoin="miter" stroke-miterlimit="10" stroke-dasharray="" stroke-dashoffset="0" style="mix-blend-mode: normal"><path d="M284.44374,125.98624c0,0 -0.32884,0.54807 -0.9311,0.92369c-2.22623,4.27077 -5.97319,7.49534 -8.19943,11.73403c-1.58808,3.02366 -3.00189,6.08743 -4.71445,9.08353c-2.43588,3.87626 -5.53505,7.37845 -8.64475,10.74903c-1.87099,2.02795 -4.86162,4.08606 -5.80631,6.78909c-1.11576,3.19253 -0.53053,8.40376 -0.528,11.84562c0.00646,8.78191 -0.33334,17.54679 -0.33334,26.33334c0,0 0,2.00463 -1.79508,2.42375c-0.43583,0.26262 -0.82925,0.35005 -0.82925,0.35005c-0.796,0.17689 -1.59201,0.35378 -2.38802,0.53067c0.00051,0.12264 0.00426,0.24355 0.01236,0.3622c0.26724,3.91434 -0.72122,7.89145 -0.34533,11.75532c0.59151,6.08036 3.87217,11.48435 4.33806,17.72072c0.70349,9.41696 -0.19007,18.91586 -1.41308,28.17783c-0.51282,1.22504 -1.01443,2.97565 -1.66492,4.62747c0.89628,-0.03467 1.79215,-0.04989 2.68528,-0.048c1.88872,0.004 5.51548,-0.26018 7.09874,1.07801c1.04944,0.887 1.32557,2.41917 1.79762,3.70962c1.80401,4.93169 1.01141,9.70238 -4.58061,11.57553c-2.84955,0.95451 -7.25372,1.20403 -10.31575,1.13683c-1.1099,-0.02436 -2.29263,0.2609 -3.32752,-0.14093c-0.55433,-0.21524 -4.95054,-3.78023 -5.70354,-4.38274c-1.64532,-1.31158 -2.95514,-3.1165 -3.79014,-5.04785l-0.17881,-2.92848c0,0 0,-0.33112 0.1205,-0.75234c-0.43072,-0.23978 -0.79846,-0.51177 -1.08594,-0.81661c-2.05823,-2.18252 -1.63312,-8.01025 -1.63457,-10.66438c-0.00338,-6.17292 0.24921,-12.40314 0.00185,-18.57073c-0.06737,-1.6797 -0.03581,-4.19311 -0.49912,-6.32411l-0.01106,0.01483c-3.55805,2.07893 -2.82733,4.24306 -4.36047,7.86481c-2.38609,5.63668 -4.32066,11.33496 -6.65483,16.97191c-0.91908,2.21956 -0.96228,4.78 -2.10686,6.89212c-0.47543,0.87731 -1.38918,1.94223 -2.45773,2.96358c0.91976,0.34085 1.79707,0.80906 2.5832,1.3463c1.04685,0.71542 2.45149,1.07534 3.14857,2.1345c2.93978,4.46679 -0.27032,8.14561 -3.61633,10.4927c-1.05436,0.73959 -1.87473,1.90882 -3.09969,2.30649c-4.87415,1.58233 -8.84752,-1.28931 -10.26064,-5.78469c-0.28489,-0.90629 -0.02898,-3.5793 0.06141,-4.78381l-1.12829,-1.29057c0,0 -1.5,-2 0.5,-3.5l0.00001,-0.00004c0.32586,-0.24439 0.63844,-0.39587 0.93342,-0.47824c0.07765,-0.50541 0.24839,-0.88936 0.469,-1.18068l-0.83576,-0.07442c0,-11.91092 -2.34543,-23.6243 -2.32951,-35.52841c-0.704,-6.26025 -1.7004,-12.39475 -2.00167,-18.70102c-0.04496,-0.94109 0.02962,-7.26604 0.1171,-7.53351c0.43249,-1.32244 1.12094,-2.32713 1.97989,-3.09886c-1.09915,-0.6927 -1.09915,-2.13819 -1.09915,-2.13819c0.0257,-4.695 -1.66879,-8.91484 -2.611,-13.47536c-1.44995,-7.01809 -1.39304,-13.86635 -1.38917,-20.96388c-3.19961,7.42731 -4.5026,17.09892 -2.72604,24.89692l-0.50386,1.32393l0.43257,1.75361c0.3682,1.16416 1.32242,2.29107 1.10461,3.49249c-0.2451,1.35192 -1.44236,2.35516 -2.35153,3.3853c-1.87455,2.124 -6.9709,6.88161 -10.28452,5.46706c-0.13846,-0.0591 -0.27083,-0.11794 -0.3973,-0.1765c-0.21452,0.25363 -0.47204,0.45938 -0.79203,0.5956c-1.52746,0.65018 -3.36426,-0.477 -4.80903,-1.29463c-5.1977,-2.94152 -3.67273,-11.57239 -3.67273,-16.33786c0,0 0,-0.1182 0.0257,-0.3032c-0.00496,-0.03758 -0.0094,-0.0758 -0.01329,-0.1147c-0.13279,-1.3279 0.51415,-2.01784 1.14621,-2.37253c-1.90369,-5.2723 -1.49195,-11.28725 -1.49195,-16.87623c0,-2.81405 -0.56204,-6.5218 0.06688,-9.24105c1.25521,-5.42713 5.44384,-8.97021 8.31811,-13.42522c3.12073,-4.83703 5.23441,-9.09717 9.94835,-12.66707l3.14653,-1.07048c0,0 0.18376,-0.0525 0.46418,-0.07767c0.40004,-0.47243 0.78629,-0.95618 1.15596,-1.45185l0.76393,-1.61804c0,0 0.13951,-0.27902 0.41853,-0.59065c-0.14803,-1.16846 -0.3221,-2.39093 -0.98463,-3.67459c-0.92554,-1.79324 -2.59651,-3.21493 -3.19546,-5.142c-0.55266,-1.77814 -0.58884,-3.70463 -1.25566,-5.44317c-4.05508,-9.56063 0.43854,-17.17704 5.52667,-25.24587c0.99854,-1.58349 1.37772,-3.48779 2.23218,-5.15345c3.65718,-7.12928 11.09449,-11.18191 18.71269,-12.14205c0.42401,-0.63972 1.06373,-0.95957 1.06373,-0.95957l0.4597,-0.21726c4.13145,-2.57272 6.69882,-3.65891 11.61877,-3.63341c4.92472,2.6827 8.41919,6.57452 12.21927,10.73457c1.99407,2.18296 4.28958,4.11818 6.01329,6.52036c0.96517,1.34508 1.50846,2.95988 2.46044,4.31433c1.49352,2.12493 2.87991,1.81994 3.97992,4.53773c1.60902,3.97537 -0.02602,7.10283 -0.84513,10.78585c-0.20522,0.92273 0.20586,1.92246 -0.03864,2.83557c-0.25254,0.94313 -1.08337,1.6476 -1.40832,2.5683c-1.40183,3.97185 -1.63707,8.13358 -4.35449,11.64084c-1.77227,2.28739 -4.11501,4.47344 -6.01861,6.69073c-1.16546,1.59773 -2.32388,2.56404 -3.56985,3.43265c0.95971,0.02028 1.89169,-0.01916 2.72893,-0.19575c0.94308,-0.19891 1.88817,-0.42081 2.83754,-0.60887c0.23226,-0.5688 0.6008,-0.93734 0.6008,-0.93734c2.47226,-2.4699 5.28246,-5.7678 7.97265,-7.927c0.65422,-0.52509 1.64172,-0.48651 2.31513,-0.98675c1.75157,-1.30114 2.49262,-3.58964 3.89809,-5.25865c4.42268,-5.25194 8.95589,-10.36145 13.37596,-15.65162c0.04898,-0.36732 0.20034,-0.76821 0.50493,-1.19464c0.04733,-0.06626 0.09528,-0.12883 0.14375,-0.18786c0.03771,-0.04747 0.07789,-0.09502 0.12059,-0.14209c0.53458,-5.08468 2.29783,-8.60493 4.50866,-13.28296c0.38799,-0.82097 2.56854,-6.08859 3.59738,-6.79981c4.68581,-3.23924 6.65895,-1.46199 8.73091,3.83351c0.51358,1.31258 0.60531,2.41103 0.44962,3.42199c3.14952,-1.99403 7.36784,-2.15968 8.90877,2.67064c0.30043,0.94173 0.02235,1.91517 -0.32834,2.89258c2.96294,-0.30466 6.49742,3.0323 6.39242,6.27667c-0.04789,1.47955 -1.36163,2.65671 -2.31197,3.79171c-3.56957,4.26313 -10.72325,3.3971 -12.8796,8.96352l-0.70934,0.91708c-1.21898,4.20873 -4.32722,7.17854 -6.59783,10.97313zM290.09057,109.82829c0.19142,0.06381 0.36224,0.13791 0.51454,0.22024c0.17154,-0.24434 0.34307,-0.48389 0.51501,-0.71698c0.96514,-0.68125 1.76228,-1.58463 2.31705,-2.63574c0.25006,-0.47379 0.45088,-0.9776 0.59564,-1.50461c2.84826,-1.49871 5.73559,-1.70257 7.9308,-4.30959c0.84422,-1.00259 -2.61186,-0.25833 -3.88139,-0.62957l-2.87527,-0.31948c-1.2652,-0.12362 -2.2539,-1.19037 -2.2539,-2.48804c0,-0.85068 0.42488,-1.60213 1.07401,-2.0537l1.76904,-1.2636c0.20534,-0.56748 0.53717,-1.44245 0.16208,-1.23217c-0.44689,0.25053 -0.62149,0.84391 -1.05377,1.11887c-1.21137,0.77052 -2.25635,1.27171 -3.29114,1.64547l-1.49239,0.81403c-1.00103,-0.49515 -2.12846,-0.77343 -3.32088,-0.77343c-0.13972,0 -0.27855,0.00382 -0.41639,0.01136c-0.61859,-0.3093 -1.33405,-0.18173 -2.06163,0.15591c-0.0234,-0.13742 -0.03559,-0.27866 -0.03559,-0.42275c0,-0.36938 0.08011,-0.72007 0.22391,-1.0356l0.97823,-2.28253l0.0238,0.0102l0.00612,-0.07727c1.33079,-2.49397 1.60737,-3.8775 0.53012,-6.55948c-0.05989,-0.14911 0.11983,0.32493 0.06844,0.47717c-0.18996,0.56278 -0.52251,1.06696 -0.77164,1.60616c-0.55179,1.19428 -1.06917,2.40442 -1.63098,3.59403c-1.28932,2.73007 -2.46418,4.954 -3.23327,7.43806c-2.90167,2.14543 -7.5652,8.87673 -7.03823,13.52032c-3.02923,3.52905 -6.07695,7.02272 -9.07461,10.58244c-1.8089,2.14807 -2.51385,4.2934 -4.76857,6.07469c-0.66973,0.52911 -1.6841,0.48125 -2.35154,1.01325c-1.89119,1.50743 -3.82238,3.66025 -5.64231,5.6119c0.17193,0.32649 0.28053,0.73895 0.28053,1.26l0.00001,-0.00001c0,2.5 -2.5,2.5 -2.5,2.5c-1.86949,-0.02786 -3.69072,0.60418 -5.52724,0.95489c-0.12162,0.02323 -0.24449,0.04439 -0.36848,0.06363c-3.0054,-2.08365 -9.12517,-3.50459 -10.91985,-4.49638c-0.13161,-0.07273 -0.25879,-0.15145 -0.38234,-0.23495c0.11301,-0.05345 0.22545,-0.09695 0.33363,-0.13236c0.20645,-0.39274 0.33242,-0.87687 0.66991,-1.14708c2.80744,-2.24779 4.55425,-2.30508 6.62623,-5.28261c1.90713,-2.22837 4.16389,-4.3698 5.98139,-6.64261c2.38599,-2.98371 2.44275,-6.95134 3.64551,-10.35915c0.27144,-0.76909 1.04915,-1.31007 1.25834,-2.09836c0.21359,-0.80483 -0.21913,-1.68488 -0.03864,-2.49777c0.56842,-2.5601 2.25795,-5.05965 1.15488,-7.88081c-0.58508,-1.49636 -2.42317,-2.15229 -3.35342,-3.46227c-0.97142,-1.36798 -1.52887,-3.00059 -2.50095,-4.3681c-1.61559,-2.27281 -3.81262,-4.0705 -5.69199,-6.13055c-2.91129,-3.19117 -6.02978,-7.10238 -9.78073,-9.26543c-2.37005,0.02533 -4.072,0.80858 -5.89022,1.89766l-0.00002,-0.00001c0.01136,0.11053 0.01733,0.22675 0.01733,0.34893c0,2.5 -2.5,2.5 -2.5,2.5c-6.76553,-0.00826 -14.58047,3.03662 -17.77221,9.63444c-0.87484,1.80844 -1.37587,3.80585 -2.43449,5.51322c-4.1265,6.65525 -8.5728,12.83844 -5.14,20.75412c0.69798,1.89445 0.88104,3.94203 1.41101,5.89016c0.44127,1.62208 2.06691,2.68079 2.80454,4.19134c0.6128,1.25492 0.92748,2.64048 1.24399,4.00069c0.04505,0.19361 -0.04218,2.98528 0.83371,3.36849c0.13889,0.06076 0.28434,0.08982 0.43385,0.10007c-0.43226,1.64593 -1.15495,3.02986 -1.20994,4.62825c-0.64346,-0.02817 -1.27348,-0.07913 -1.78367,-0.43324c-0.09706,-0.06736 -0.19062,-0.13492 -0.28082,-0.20266c-1.09511,1.43049 -2.3005,2.77984 -3.57154,4.05622c0,0 -1.56073,1.56073 -3.2157,0.28272c-3.38615,2.95526 -5.03505,6.52566 -7.53705,10.38244c-2.54738,3.92675 -6.53752,7.16009 -7.68189,11.90812c-0.55814,2.31573 0.06687,5.68895 0.06687,8.09229c0,4.71969 -0.57565,10.32526 1.04721,14.78702c-0.65682,1.11477 -1.0336,2.41428 -1.0336,3.80178c0,0.95377 0.17803,1.86596 0.50268,2.70514c-0.07479,0.00358 -0.14967,0.00744 -0.22464,0.01155c-0.11019,2.49984 -0.37586,5.25459 0.00155,7.58177l0.00001,0.00001c0.0174,0.10734 0.65898,1.54586 1.11597,2.62484l0.26943,-2.42488c0.12362,-1.2652 1.19037,-2.2539 2.48804,-2.2539c0.99801,0 1.85943,0.58479 2.26029,1.4304l0.6783,1.35662c0.47647,0.48225 0.77689,0.99273 0.73597,1.59318c0.41611,-0.41012 0.92541,-0.73035 1.36862,-1.11468c1.95179,-1.69247 4.06162,-2.03449 2.58764,-3.96741l-0.2962,-1.17133c-0.00543,-0.00263 -0.01083,-0.00527 -0.01622,-0.00792c2.11907,-1.32533 3.52856,-3.67976 3.52856,-6.36339c0,-2.94803 -1.7009,-5.4988 -4.17489,-6.72448c0.20431,-6.29871 1.60049,-12.77688 4.22815,-17.77203c-0.07913,-2.79907 -0.24564,-6.13701 1.52857,-8.54001c1.03027,-1.3954 1.93999,-4.05938 3.64059,-3.71798c2.16513,0.43466 3.07143,3.26875 4.03043,5.25799c0.08522,0.17676 0.06687,5.41221 0.06687,5.90771c0,4.88993 -0.40904,9.95952 -0.00573,14.8308c0.65099,7.86272 3.96986,15.30623 4.00573,23.1692c0,0 0,0.05946 -0.00917,0.16005c0.25214,-0.06975 0.50728,-0.13347 0.76453,-0.19205c-0.24498,1.66027 -0.23752,3.34777 0.08201,4.93327c-1.01534,0.36172 -1.78871,0.93488 -1.95662,1.86165c-0.49989,2.75912 0.16513,6.91475 0.43915,9.64481c0.49751,4.95664 1.12994,9.81536 1.67628,14.78732c0.0122,10.00846 1.63071,19.88185 2.16686,29.85066c-1.26937,0.85763 -0.93422,2.53337 -0.93422,2.53337c0.67998,3.30889 0.34514,6.24511 1.2823,9.41148c-0.13021,0.0551 -0.25661,0.10943 -0.37829,0.16208c-0.04019,2.75579 -0.01847,7.91904 3.8063,6.2216c0.77553,-0.34418 1.20446,-1.20802 1.90031,-1.69351c0.60714,-0.4236 1.47166,-0.47082 1.9771,-1.01174c1.69081,-1.80951 -0.60348,-3.50728 -2.20052,-4.28489l-0.11456,-0.22379c-1.27182,-3.00124 -0.74941,-6.156 -1.33401,-9.37231c1.0548,-2.21226 1.62845,-4.96821 2.35617,-6.74474c1.25133,-3.05479 2.14708,-6.16833 3.29832,-9.24399c1.2142,-3.24389 3.38216,-6.4176 4.26507,-9.7865c1.11844,-4.26759 1.51873,-5.58304 5.42131,-8.1328l-0.57774,0.3353c0,0 0.17544,-0.35087 0.52631,-0.70514c-0.26705,-0.63691 -0.32915,-1.50193 0.45587,-2.44395c1.60046,-1.92056 3.52102,-0.32009 3.52102,-0.32009c0.86442,0.79607 2.02812,1.35787 2.59325,2.3882c0.55969,1.02041 0.37816,2.2971 0.60294,3.43901c1.39602,7.09188 1.03668,14.2183 1.03668,21.42668c0,2.83711 -0.14512,5.67768 -0.00483,8.51132c0.06333,1.27916 -0.42584,2.82106 0.37027,3.82429c0.21762,0.27424 0.51504,0.39803 0.8561,0.43717c0.29801,2.09538 0.95434,4.52286 2.20732,6.15388c-0.18049,0.05721 -0.35995,0.11661 -0.53828,0.17838c0,0 -0.03926,0.01309 -0.10936,0.03084h-0.00001c0.43994,0.84168 1.07866,1.60041 1.84984,2.12112c1.462,1.16938 2.57184,2.88885 4.29646,3.61726c1.49547,0.63162 5.36426,-0.41732 6.81187,-0.61478c0.51056,-0.06964 5.72359,-0.1572 5.92255,-2.07917c0.06187,-0.59767 -0.77591,-4.67599 -1.16067,-5.02499c-0.2838,-0.25743 -0.76452,0.05819 -1.1476,0.06585c-2.31983,0.04639 -5.12024,-0.40671 -7.4069,-0.012c-0.27441,0.04737 -0.55017,0.09358 -0.82694,0.1392c0.42966,-1.36187 0.65778,-2.84997 0.84525,-3.76928l-1.21538,-3.60832c0,0 -0.27968,-0.55936 -0.83904,-0.97867c0.31188,-1.03672 0.58022,-2.05027 0.84305,-2.64597c1.01862,-8.71789 1.90381,-17.62778 1.25359,-26.48884c-0.45383,-6.18467 -3.73711,-11.53383 -4.32861,-17.61262c-0.29655,-3.04759 0.32322,-6.18463 0.32133,-9.24468c-0.00009,-0.14113 -0.00242,-0.28239 -0.00603,-0.42372c2.07558,-1.13136 3.81712,-2.75711 4.50648,-4.82519c0.342,-1.026 0.41465,-2.10421 0.3058,-3.19493c0.06608,-0.01468 0.13215,-0.02937 0.19822,-0.04405c0.0392,-8.17688 0.3231,-16.33682 0.32886,-24.51209c0.00282,-4.00913 -0.52862,-9.73067 0.80533,-13.48771c1.23426,-3.47625 4.45294,-5.93761 6.86036,-8.54425c2.86476,-3.10182 5.79885,-6.33775 8.02192,-9.91763c1.67947,-2.93995 3.04228,-5.95929 4.61888,-8.91647c2.28574,-4.28732 6.08724,-7.57079 8.28967,-11.91644c1.08372,-2.1383 0.97065,-3.96686 1.02269,-5.88195c1.56467,0.32821 2.92313,-0.04699 4.14402,-0.84269c0.94382,-1.39624 1.70566,-2.84439 1.96596,-4.39436l0.57974,-1.80028c0,0 0.79057,-2.37171 3.16228,-1.58114z" fill="#ffffff" stroke-width="0.5"/><path d="M286.95651,111.36815l-0.57947,1.80047c-0.2603,1.54997 -1.07958,3.07997 -2.0234,4.47621c-1.22089,0.7957 -2.57773,1.17201 -4.1424,0.8438c-0.05204,1.91508 0.11714,3.66089 -0.96659,5.79919c-2.20243,4.34565 -6.00387,7.62916 -8.28961,11.91648c-1.5766,2.95718 -2.93814,5.97744 -4.61761,8.91739c-2.22307,3.57988 -5.21678,6.89609 -8.08154,9.99791c-2.40742,2.60664 -5.56804,4.98659 -6.8023,8.46284c-1.33395,3.75704 -0.78281,9.50643 -0.78563,13.51556c-0.00576,8.17527 -0.31646,16.3936 -0.35566,24.57048c-0.06607,0.01468 -0.13252,0.02954 -0.1986,0.04423c0.10885,1.09072 0.0334,2.17013 -0.3086,3.19613c-0.68936,2.06808 -2.44046,3.69652 -4.51604,4.82788c0.00362,0.14133 0.00584,0.28261 0.00592,0.42374c0.00189,3.06005 -0.63267,6.09822 -0.33612,9.14581c0.5915,6.07879 3.88901,11.52692 4.34284,17.71159c0.65022,8.86106 -0.23822,17.77137 -1.25684,26.48926c-0.26283,0.59571 -0.5318,1.60931 -0.84368,2.64603c0.55936,0.41931 0.83033,0.87905 0.83033,0.87905l1.22501,3.70786c-0.18747,0.91931 -0.41623,2.40748 -0.84589,3.76934c0.27677,-0.04563 0.54328,-0.19141 0.81768,-0.23877c2.28666,-0.39471 5.08325,0.05891 7.40308,0.01252c0.38308,-0.00766 0.86321,-0.32317 1.14701,-0.06574c0.38476,0.349 1.24115,4.52557 1.17928,5.12324c-0.19896,1.92197 -5.41499,2.01001 -5.92555,2.07965c-1.44761,0.19746 -5.31973,1.24671 -6.8152,0.61509c-1.72462,-0.72841 -2.83653,-2.4478 -4.29853,-3.61718c-0.77118,-0.52071 -1.41084,-1.27943 -1.85078,-2.12111l-0.00002,-0.1c0.0701,-0.01775 0.1093,-0.03084 0.1093,-0.03084c0.17833,-0.06177 0.35822,-0.02117 0.53871,-0.07838c-1.25299,-1.63102 -1.91052,-4.05851 -2.20853,-6.15389c-0.34106,-0.03914 -0.63896,-0.16294 -0.85658,-0.43718c-0.79611,-1.00323 -0.30722,-2.54514 -0.37055,-3.8243c-0.14029,-2.83364 0.00466,-5.67422 0.00466,-8.51133c0,-7.20838 0.35773,-14.33488 -1.03829,-21.42676c-0.22478,-1.14191 -0.04404,-2.41866 -0.60373,-3.43907c-0.56513,-1.03033 -1.73158,-1.59244 -2.596,-2.38851c0,0 -1.92387,-1.60105 -3.52433,0.31951c-0.78502,0.94202 -0.70247,1.70915 -0.43542,2.34606c-0.35087,0.35427 -0.52598,0.70521 -0.52598,0.70521l0.55712,-0.23745c-3.90258,2.54976 -4.30569,3.86454 -5.42413,8.13213c-0.88291,3.3689 -3.05191,6.54232 -4.26611,9.78621c-1.15124,3.07566 -2.04733,6.1891 -3.29866,9.24389c-0.72772,1.77653 -1.27262,4.4367 -2.32742,6.64896c0.5846,3.21631 0.06025,6.37053 1.33208,9.37177l0.11448,0.22377c1.59704,0.77761 3.86794,2.57259 2.17712,4.3821c-0.50544,0.54092 -1.37075,0.58796 -1.97789,1.01156c-0.69585,0.48549 -1.12544,1.34917 -1.90097,1.69335c-3.82477,1.69744 -3.84896,-3.46651 -3.80877,-6.2223c0.12168,-0.05265 0.24823,-0.10693 0.37844,-0.16203c-0.93716,-3.16636 -0.60436,-6.10326 -1.28434,-9.41215c0,0 -0.33513,-1.67574 0.93424,-2.53336c-0.53615,-9.96881 -2.16321,-19.84619 -2.17541,-29.85465c-0.54634,-4.97196 -1.18568,-9.83556 -1.68319,-14.7922c-0.27402,-2.73006 -0.94412,-6.89063 -0.44423,-9.64975c0.16791,-0.92677 0.94121,-1.50001 1.95655,-1.86173c-0.31953,-1.58551 -0.32989,-3.27659 -0.08491,-4.93686c-0.25725,0.05858 -0.5126,0.12201 -0.76474,0.19175c0.00917,-0.10059 0.00908,-0.16017 0.00908,-0.16017c-0.03587,-7.86297 -3.36417,-15.33448 -4.01516,-23.1972c-0.40331,-4.87128 0.00884,-9.95952 0.00884,-14.84945c0,-0.4955 0.02101,-5.7369 -0.06421,-5.91366c-0.959,-1.98924 -1.77829,-4.77413 -3.94342,-5.20879c-1.7006,-0.3414 -2.60792,2.31811 -3.63819,3.71351c-1.77421,2.403 -1.60469,5.7328 -1.52556,8.53187c-2.62766,4.99515 -4.0223,11.45524 -4.22661,17.75395c2.47398,1.22568 4.17363,3.76917 4.17363,6.7172c0,2.68363 -1.41093,5.0333 -3.53001,6.35862c0.00538,0.00265 0.01078,0.00528 0.01621,0.00791l0.29581,1.17028c1.47398,1.93292 -0.63677,2.27271 -2.58856,3.96518c-0.44321,0.38433 -1.04383,0.74531 -1.45994,1.15543c0.04092,-0.60045 -0.26009,-1.11229 -0.73656,-1.59454l-0.67877,-1.3578c-0.40086,-0.84561 -1.26289,-1.43206 -2.2609,-1.43206c-1.29767,0 -2.27027,0.95502 -2.39389,2.22022l-0.36263,2.46109c-0.45699,-1.07898 -1.09935,-2.51954 -1.11675,-2.62688l-0.00001,-0.00001c-0.37741,-2.32718 -0.11334,-5.08736 -0.00315,-7.5872c0.07497,-0.00411 0.14986,-0.00793 0.22465,-0.01152c-0.32465,-0.83919 -0.50313,-1.75351 -0.50313,-2.70728c0,-1.38751 0.37632,-2.68987 1.03314,-3.80464c-1.62286,-4.46176 -1.04732,-10.07932 -1.04732,-14.79901c0,-2.40334 -0.62391,-5.78279 -0.06577,-8.09852c1.14437,-4.74803 5.13832,-7.99183 7.6857,-11.91858c2.502,-3.85678 4.15663,-7.43617 7.54278,-10.39143c1.65497,1.27801 3.21694,-0.28421 3.21694,-0.28421c1.27104,-1.27638 2.47967,-2.62913 3.57478,-4.05962c0.0902,0.06774 0.1838,0.13526 0.28086,0.20262c0.51018,0.35411 1.14085,0.40446 1.78432,0.43263c0.05499,-1.59839 0.78029,-2.98456 1.21255,-4.6305c-0.14951,-0.01025 -0.29515,-0.03916 -0.43404,-0.09992c-0.87589,-0.38321 -0.78773,-3.17562 -0.83278,-3.36923c-0.31651,-1.36021 -0.63031,-2.74643 -1.24311,-4.00135c-0.73763,-1.51055 -2.36314,-2.56935 -2.80441,-4.19143c-0.52997,-1.94813 -0.71178,-3.99659 -1.40976,-5.89104c-3.4328,-7.91568 1.02107,-14.10314 5.14757,-20.75839c1.05862,-1.70737 1.5618,-3.7057 2.43664,-5.51414c3.19174,-6.59782 11.01631,-9.64546 17.78184,-9.6372c0,0 2.50139,-0.00023 2.50139,-2.50023c0,-0.12218 -0.00595,-0.2384 -0.01731,-0.34893l0.00002,0.00001c1.81822,-1.08908 3.52308,-1.87268 5.89313,-1.89801c3.75095,2.16305 6.87414,6.07405 9.78543,9.26522c1.87937,2.06005 4.07962,3.85785 5.69521,6.13066c0.97208,1.36751 1.53117,3.00026 2.50259,4.36824c0.93025,1.30998 2.77058,1.96619 3.35566,3.46255c1.10307,2.82116 -0.60092,5.41966 -1.16934,7.97976c-0.18049,0.81289 0.25195,1.6929 0.03836,2.49773c-0.20919,0.78829 -0.98623,1.32937 -1.25767,2.09846c-1.20276,3.40781 -1.25764,7.37566 -3.64363,10.35937c-1.8175,2.27281 -4.06908,4.41449 -5.97621,6.64286c-2.07198,2.97753 -3.81162,3.03427 -6.61906,5.28206c-0.33749,0.27021 -0.46255,0.7542 -0.669,1.14694c-0.10817,0.0354 -0.22023,0.07884 -0.33324,0.13229c0.12355,0.08351 0.23374,0.06368 0.36535,0.13641c1.79468,0.99178 7.92707,2.41222 10.93248,4.49587c0.12399,-0.01924 0.24731,-0.04036 0.36893,-0.06359c1.83652,-0.35071 3.66414,-0.98172 5.53363,-0.95386c0,0 2.50203,0.00051 2.50203,-2.49949l-0.02638,0.09647c0,-0.52105 -0.08286,-1.03014 -0.25479,-1.35663c1.81993,-1.95165 3.75478,-4.10337 5.64597,-5.6108c0.66744,-0.532 1.68344,-0.48355 2.35317,-1.01266c2.25472,-1.78129 2.96137,-3.92593 4.77027,-6.074c2.99766,-3.55972 6.04791,-7.05222 9.07715,-10.58128c-0.52697,-4.64359 4.13673,-11.3748 7.0384,-13.52023c0.76909,-2.48406 1.89965,-4.61835 3.18896,-7.34842c0.56181,-1.18961 1.07924,-2.39972 1.63103,-3.594c0.24913,-0.5392 0.58169,-1.04338 0.77165,-1.60616c0.05139,-0.15224 -0.08444,-0.71614 -0.02455,-0.56703c1.07725,2.68198 0.80175,4.06605 -0.52904,6.56002l-0.00611,0.07728l-0.02381,-0.01021l-0.97815,2.28257c-0.1438,0.31553 -0.22378,0.66629 -0.22378,1.03567c0,0.14409 0.0123,0.28539 0.0357,0.4228c0.72759,-0.33764 1.44384,-0.46478 2.06244,-0.15548c0.13784,-0.00754 0.27683,-0.01127 0.41656,-0.01127c1.19242,0 2.32131,0.27912 3.32234,0.77427l1.49276,-0.8138c1.03479,-0.37376 2.08058,-0.87444 3.29195,-1.64496c0.43228,-0.27496 0.607,-0.86827 1.05389,-1.1188c0.37509,-0.21028 -0.01097,0.74871 -0.21631,1.31619l-1.76871,1.26381c-0.64913,0.45157 -1.02014,1.11877 -1.02014,1.96945c0,1.29767 0.99009,2.36534 2.25529,2.48896l2.87632,0.32023c1.26953,0.37124 4.66538,-0.29322 3.82116,0.70937c-2.19521,2.60702 -5.08099,2.81205 -7.92925,4.31076c-0.14476,0.52701 -0.28688,0.94985 -0.53694,1.42364c-0.55477,1.05111 -1.41064,2.03543 -2.37578,2.71668c-0.17193,0.23308 -0.34346,0.47264 -0.51501,0.71698c-0.1523,-0.08233 -0.32286,-0.15625 -0.51428,-0.22005c-2.37171,-0.79057 -3.10503,1.49915 -3.10503,1.49915z" data-paper-data="{&quot;noHover&quot;:false,&quot;origItem&quot;:[&quot;Path&quot;,{&quot;applyMatrix&quot;:true,&quot;segments&quot;:[[[290.09057,109.82829],[-2.37171,-0.79057],[0.19142,0.06381]],[[290.60511,110.04853],[-0.1523,-0.08233],[0.17154,-0.24434]],[[291.12011,109.33155],[-0.17193,0.23308],[0.96514,-0.68125]],[[293.43717,106.69581],[-0.55477,1.05111],[0.25006,-0.47379]],[[294.03281,105.1912],[-0.14476,0.52701],[2.84826,-1.49871]],[[301.96361,100.88162],[-2.19521,2.60702],[0.84422,-1.00259]],[[298.08222,100.25205],[1.26953,0.37124],[0,0]],[[295.20695,99.93257],[0,0],[-1.2652,-0.12362]],[[292.95305,97.44453],[0,1.29767],[0,-0.85068]],[[294.02706,95.39083],[-0.64913,0.45157],[0,0]],[[295.7961,94.12723],[0,0],[0.20534,-0.56748]],[[295.95818,92.89506],[0.37509,-0.21028],[-0.44689,0.25053]],[[294.90441,94.01393],[0.43228,-0.27496],[-1.21137,0.77052]],[[291.61327,95.6594],[1.03479,-0.37376],[0,0]],[[290.12088,96.47342],[0,0],[-1.00103,-0.49515]],[[286.8,95.7],[1.19242,0],[-0.13972,0]],[[286.38361,95.71136],[0.13784,-0.00754],[-0.61859,-0.3093]],[[284.32198,95.86727],[0.72759,-0.33764],[-0.0234,-0.13742]],[[284.28638,95.44453],[0,0.14409],[0,-0.36938]],[[284.51029,94.40893],[-0.1438,0.31553],[0,0]],[285.48852,92.1264],[285.51232,92.1366],[[285.51844,92.05933],[0,0],[1.33079,-2.49397]],[[286.04856,85.49985],[1.07725,2.68198],[-0.05989,-0.14911]],[[286.117,85.97702],[0.05139,-0.15224],[-0.18996,0.56278]],[[285.34536,87.58318],[0.24913,-0.5392],[-0.55179,1.19428]],[[283.71438,91.17721],[0.56181,-1.18961],[-1.28932,2.73007]],[[280.48111,98.61527],[0.76909,-2.48406],[-2.90167,2.14543]],[[273.44288,112.13559],[-0.52697,-4.64359],[-3.02923,3.52905]],[[264.36827,122.71803],[2.99766,-3.55972],[-1.8089,2.14807]],[[259.5997,128.79272],[2.25472,-1.78129],[-0.66973,0.52911]],[[257.24816,129.80597],[0.66744,-0.532],[-1.89119,1.50743]],[[251.60585,135.41787],[1.81993,-1.95165],[0.17193,0.32649]],[[251.88638,136.67787],[0,-0.52105],[0,0]],[[251.88639,136.67786],[0,0],[0,2.5]],[[249.38639,139.17786],[0,0],[-1.86949,-0.02786]],[[243.85915,140.13275],[1.83652,-0.35071],[-0.12162,0.02323]],[[243.49067,140.19638],[0.12399,-0.01924],[-3.0054,-2.08365]],[[232.57082,135.7],[1.79468,0.99178],[-0.13161,-0.07273]],[[232.18848,135.46504],[0.12355,0.08351],[0.11301,-0.05345]],[[232.5221,135.33269],[-0.10817,0.0354],[0.20645,-0.39274]],[[233.19201,134.18561],[-0.33749,0.27021],[2.80744,-2.24779]],[[239.81824,128.903],[-2.07198,2.97753],[1.90713,-2.22837]],[[245.79963,122.26039],[-1.8175,2.27281],[2.38599,-2.98371]],[[249.44514,111.90124],[-1.20276,3.40781],[0.27144,-0.76909]],[[250.70348,109.80288],[-0.20919,0.78829],[0.21359,-0.80483]],[[250.66484,107.30511],[-0.18049,0.81289],[0.56842,-2.5601]],[[251.81972,99.4243],[1.10307,2.82116],[-0.58508,-1.49636]],[[248.4663,95.96203],[0.93025,1.30998],[-0.97142,-1.36798]],[[245.96535,91.59393],[0.97208,1.36751],[-1.61559,-2.27281]],[[240.27336,85.46338],[1.87937,2.06005],[-2.91129,-3.19117]],[[230.49263,76.19795],[3.75095,2.16305],[-2.37005,0.02533]],[[224.60241,78.09561],[1.81822,-1.08908],[0,0]],[[224.60239,78.0956],[0,0],[0.01136,0.11053]],[[224.61972,78.44453],[0,-0.12218],[0,2.5]],[[222.11972,80.94453],[0,0],[-6.76553,-0.00826]],[[204.34751,90.57897],[3.19174,-6.59782],[-0.87484,1.80844]],[[201.91302,96.09219],[1.05862,-1.70737],[-4.1265,6.65525]],[[196.77302,116.84631],[-3.4328,-7.91568],[0.69798,1.89445]],[[198.18403,122.73647],[-0.52997,-1.94813],[0.44127,1.62208]],[[200.98857,126.92781],[-0.73763,-1.51055],[0.6128,1.25492]],[[202.23256,130.9285],[-0.31651,-1.36021],[0.04505,0.19361]],[[203.06627,134.29699],[-0.87589,-0.38321],[0.13889,0.06076]],[[203.50013,134.39706],[-0.14951,-0.01025],[-0.43226,1.64593]],[[202.29019,139.0253],[0.05499,-1.59839],[-0.64346,-0.02817]],[[200.50652,138.59207],[0.51018,0.35411],[-0.09706,-0.06736]],[[200.2257,138.38941],[0.0902,0.06774],[-1.09511,1.43049]],[[196.65416,142.44563],[1.27104,-1.27638],[0,0]],[[193.43846,142.72835],[1.65497,1.27801],[-3.38615,2.95526]],[[185.90141,153.11079],[2.502,-3.85678],[-2.54738,3.92675]],[[178.21952,165.01891],[1.14437,-4.74803],[-0.55814,2.31573]],[[178.28639,173.1112],[0,-2.40334],[0,4.71969]],[[179.3336,187.89821],[-1.62286,-4.46176],[-0.65682,1.11477]],[[178.3,191.7],[0,-1.38751],[0,0.95377]],[[178.80268,194.40514],[-0.32465,-0.83919],[-0.07479,0.00358]],[[178.57804,194.41669],[0.07497,-0.00411],[-0.11019,2.49984]],[[178.57959,201.99846],[-0.37741,-2.32718],[0,0]],[[178.5796,201.99847],[0,0],[0.0174,0.10734]],[[179.69557,204.62331],[-0.45699,-1.07898],[0,0]],[[179.965,202.19843],[0,0],[0.12362,-1.2652]],[[182.45304,199.94453],[-1.29767,0],[0.99801,0]],[[184.71333,201.37493],[-0.40086,-0.84561],[0,0]],[[185.39163,202.73155],[0,0],[0.47647,0.48225]],[[186.1276,204.32473],[0.04092,-0.60045],[0.41611,-0.41012]],[[187.49622,203.21005],[-0.44321,0.38433],[1.95179,-1.69247]],[[190.08386,199.24264],[1.47398,1.93292],[0,0]],[[189.78766,198.07131],[0,0],[-0.00543,-0.00263]],[[189.77144,198.06339],[0.00538,0.00265],[2.11907,-1.32533]],[[193.3,191.7],[0,2.68363],[0,-2.94803]],[[189.12512,184.97552],[2.47398,1.22568],[0.20431,-6.29871]],[[193.35327,167.20349],[-2.62766,4.99515],[-0.07913,-2.79907]],[[194.88184,158.66348],[-1.77421,2.403],[1.03027,-1.3954]],[[198.52243,154.9455],[-1.7006,-0.3414],[2.16513,0.43466]],[[202.55286,160.20349],[-0.959,-1.98924],[0.08522,0.17676]],[[202.61973,166.1112],[0,-0.4955],[0,4.88993]],[[202.614,180.942],[-0.40331,-4.87128],[0.65099,7.86272]],[[206.61973,204.1112],[-0.03587,-7.86297],[0,0]],[[206.61056,204.27125],[0.00917,-0.10059],[0.25214,-0.06975]],[[207.37509,204.0792],[-0.25725,0.05858],[-0.24498,1.66027]],[[207.4571,209.01247],[-0.31953,-1.58551],[-1.01534,0.36172]],[[205.50048,210.87413],[0.16791,-0.92677],[-0.49989,2.75912]],[[205.93963,220.51894],[-0.27402,-2.73006],[0.49751,4.95664]],[[207.61591,235.30626],[-0.54634,-4.97196],[0.0122,10.00846]],[[209.78277,265.15692],[-0.53615,-9.96881],[-1.26937,0.85763]],[[208.84855,267.69029],[0,0],[0.67998,3.30889]],[[210.13085,277.10177],[-0.93716,-3.16636],[-0.13021,0.0551]],[[209.75256,277.26385],[0.12168,-0.05265],[-0.04019,2.75579]],[[213.55886,283.48545],[-3.82477,1.69744],[0.77553,-0.34418]],[[215.45917,281.79194],[-0.69585,0.48549],[0.60714,-0.4236]],[[217.43627,280.7802],[-0.50544,0.54092],[1.69081,-1.80951]],[[215.23575,276.49531],[1.59704,0.77761],[0,0]],[[215.12119,276.27152],[0,0],[-1.27182,-3.00124]],[[213.78719,266.89921],[0.5846,3.21631],[1.0548,-2.21226]],[[216.14336,260.15448],[-0.72772,1.77653],[1.25133,-3.05479]],[[219.44168,250.91049],[-1.15124,3.07566],[1.2142,-3.24389]],[[223.70675,241.12399],[-0.88291,3.3689],[1.11844,-4.26759]],[[229.12806,232.99119],[-3.90258,2.54976],[0,0]],[228.55032,233.32649],[[229.07663,232.62135],[-0.35087,0.35427],[-0.26705,-0.63691]],[[229.5325,230.1774],[-0.78502,0.94202],[1.60046,-1.92056]],[[233.05352,229.85731],[0,0],[0.86442,0.79607]],[[235.64677,232.24551],[-0.56513,-1.03033],[0.55969,1.02041]],[[236.24971,235.68452],[-0.22478,-1.14191],[1.39602,7.09188]],[[237.28639,257.1112],[0,-7.20838],[0,2.83711]],[[237.28156,265.62252],[-0.14029,-2.83364],[0.06333,1.27916]],[[237.65183,269.44681],[-0.79611,-1.00323],[0.21762,0.27424]],[[238.50793,269.88397],[-0.34106,-0.03914],[0.29801,2.09538]],[[240.71526,276.03785],[-1.25299,-1.63102],[-0.18049,0.05721]],[[240.17697,276.21624],[0.17833,-0.06177],[0,0]],[[240.06761,276.24708],[0.0701,-0.01775],[0,0]],[[240.0676,276.24708],[0,0],[0.43994,0.84168]],[[241.91744,278.3682],[-0.77118,-0.52071],[1.462,1.16938]],[[246.2139,281.98546],[-1.72462,-0.72841],[1.49547,0.63162]],[[253.02577,281.37068],[-1.44761,0.19746],[0.51056,-0.06964]],[[258.94832,279.29151],[-0.19896,1.92197],[0.06187,-0.59767]],[[257.78765,274.26652],[0.38476,0.349],[-0.2838,-0.25743]],[[256.64005,274.33237],[0.38308,-0.00766],[-2.31983,0.04639]],[[249.23315,274.32037],[2.28666,-0.39471],[-0.27441,0.04737]],[[248.40621,274.45957],[0.27677,-0.04563],[0.42966,-1.36187]],[[249.25145,270.69029],[-0.18747,0.91931],[0,0]],[248.03607,267.08196],[[247.19703,266.1033],[0.55936,0.41931],[0.31188,-1.03672]],[[248.04008,263.45733],[-0.26283,0.59571],[1.01862,-8.71789]],[[249.29367,236.96849],[0.65022,8.86106],[-0.45383,-6.18467]],[[244.96506,219.35587],[0.5915,6.07879],[-0.29655,-3.04759]],[[245.28639,210.11119],[0.00189,3.06005],[-0.00009,-0.14113]],[[245.28036,209.68746],[0.00362,0.14133],[2.07558,-1.13136]],[[249.78684,204.86227],[-0.68936,2.06808],[0.342,-1.026]],[[250.09264,201.66734],[0.10885,1.09072],[0.06608,-0.01468]],[[250.29086,201.6233],[-0.06607,0.01468],[0.0392,-8.17688]],[[250.61972,177.11121],[-0.00576,8.17527],[0.00282,-4.00913]],[[251.42505,163.6235],[-1.33395,3.75704],[1.23426,-3.47625]],[[258.28541,155.07925],[-2.40742,2.60664],[2.86476,-3.10182]],[[266.30733,145.16162],[-2.22307,3.57988],[1.67947,-2.93995]],[[270.92621,136.24515],[-1.5766,2.95718],[2.28574,-4.28732]],[[279.21588,124.32871],[-2.20243,4.34565],[1.08372,-2.1383]],[[280.23857,118.44676],[-0.05204,1.91508],[1.56467,0.32821]],[[284.38259,117.60407],[-1.22089,0.7957],[0.94382,-1.39624]],[[286.34855,113.20971],[-0.2603,1.54997],[0,0]],[286.92829,111.40943]],&quot;closed&quot;:true}]}" fill="url(#color-1)" stroke-width="0.5"/><path d="M243.90271,271.80109c-0.13657,-0.23576 -0.26036,-0.46087 -0.32044,-0.62152c-0.14635,-0.39135 -0.22632,-0.84771 -0.26797,-1.32425c0.33252,0.03783 0.6596,0.05943 0.9726,0.04217c-0.11814,0.36517 -0.36618,1.19531 -0.3842,1.90361z" fill="#000000" stroke-width="0.5"/><text transform="translate(213.8,197.68658) scale(1.84228,1.84228)" font-size="40" xml:space="preserve" fill="#ffffff" fill-rule="nonzero" stroke="none" stroke-width="1" stroke-linecap="butt" stroke-linejoin="miter" stroke-miterlimit="10" stroke-dasharray="" stroke-dashoffset="0" font-family="Sans Serif" font-weight="normal" text-anchor="start" style="mix-blend-mode: normal"><tspan x="0" dy="0">?</tspan></text><text transform="translate(176.3,307.95) scale(0.30498,0.30498)" font-size="40" xml:space="preserve" fill="#ffffff" fill-rule="nonzero" stroke="none" stroke-width="1" stroke-linecap="butt" stroke-linejoin="miter" stroke-miterlimit="10" stroke-dasharray="" stroke-dashoffset="0" font-family="Sans Serif" font-weight="normal" text-anchor="start" style="mix-blend-mode: normal"><tspan x="0" dy="0">CHOOSE A STUDENT</tspan></text></g></g></svg>