<svg version="1.1" xmlns="http://www.w3.org/2000/svg" xmlns:xlink="http://www.w3.org/1999/xlink" width="466.23913" height="354.97521" viewBox="0,0,466.23913,354.97521"><defs><linearGradient x1="7.88044" y1="180.00001" x2="472.11958" y2="180.00001" gradientUnits="userSpaceOnUse" id="color-1"><stop offset="0" stop-color="#9966ff"/><stop offset="1" stop-color="#66ebff"/></linearGradient><linearGradient x1="88.60003" y1="163.39998" x2="98.60003" y2="163.39998" gradientUnits="userSpaceOnUse" id="color-2"><stop offset="0" stop-color="#9966ff"/><stop offset="1" stop-color="#66ebff"/></linearGradient></defs><g transform="translate(-6.88044,-2.5124)"><g data-paper-data="{&quot;isPaintingLayer&quot;:true}" fill-rule="nonzero" stroke-linejoin="miter" stroke-miterlimit="10" stroke-dasharray="" stroke-dashoffset="0" style="mix-blend-mode: normal"><path d="M7.88044,356.48761v-352.97521h464.23913v352.97521z" fill="url(#color-1)" stroke="#000000" stroke-width="2" stroke-linecap="butt"/><path d="M314.60002,280.40001c0,13.80712 -36.04108,25 -80.5,25c-44.45892,0 -80.5,-11.19288 -80.5,-25c0,-13.80712 36.04108,-25 80.5,-25c44.45892,0 80.5,11.19288 80.5,25z" fill="#9966ff" stroke="none" stroke-width="0" stroke-linecap="butt"/><path d="M30.82837,251.91182c0,0 -4.85039,-5.22882 -4.85039,-16.97638c0,-18.90275 0,-76.66044 0,-107.92126c0,-12.38737 3.6378,-13.33859 3.6378,-13.33859c0,0 2.66707,-7.27559 12.12599,-7.27559c23.19977,0 65.37326,0 80.0315,0c9.84962,0 16.97637,7.27559 16.97637,7.27559c0,0 4.8504,3.47386 4.8504,13.33859c0,17.53322 0,75.68539 0,109.13385c0,14.42244 -4.8504,18.18898 -4.8504,18.18898c0,0 -6.3572,6.06299 -15.76377,6.06299c-12.72709,0 -47.31487,0 -71.54331,0c-14.61771,0 -20.61418,-8.48819 -20.61418,-8.48819z" fill="#ffffff" stroke="#000000" stroke-width="2" stroke-linecap="butt"/><path d="M80.60003,211.44164l-24.04163,-24.04163l24.04163,-24.04163l24.04163,24.04163z" fill="#b46800" stroke="#000000" stroke-width="2" stroke-linecap="butt"/><path d="M56.60003,186.44164l0.95837,-32.01625l24.04163,-22.73368l-0.95837,29.95346z" fill="#d5d5d5" stroke="#000000" stroke-width="2" stroke-linecap="butt"/><path d="M105.60003,186.44164l-24.04163,-24.04163l1.04163,-31.04163l24.04163,21.04163z" fill="#ffffff" stroke="#000000" stroke-width="2" stroke-linecap="butt"/><path d="M88.60003,167.39999l1,-18l9,9v19z" fill="url(#color-2)" stroke="#000000" stroke-width="2" stroke-linecap="round"/><path d="M78.76669,188.44164l-9.2083,-9.2083l9.2083,-9.2083l9.2083,9.2083z" fill="#d38f00" stroke="#000000" stroke-width="2" stroke-linecap="butt"/><path d="M68.91379,179.13335v9" fill="none" stroke="#000000" stroke-width="2" stroke-linecap="round"/><path d="M78.24712,189.13335v6.33333" fill="none" stroke="#000000" stroke-width="2" stroke-linecap="round"/><path d="M88.24713,179.13335v9" fill="none" stroke="#000000" stroke-width="2" stroke-linecap="round"/><text transform="translate(48.18046,125.16668) scale(0.5,0.5)" font-size="40" xml:space="preserve" fill="#000000" fill-rule="nonzero" stroke="none" stroke-width="1" stroke-linecap="butt" stroke-linejoin="miter" stroke-miterlimit="10" stroke-dasharray="" stroke-dashoffset="0" font-family="Handwriting" font-weight="normal" text-anchor="start" style="mix-blend-mode: normal"><tspan x="0" dy="0">CLASS</tspan></text><text transform="translate(46.68046,219.35244) scale(0.21645,0.21645)" font-size="40" xml:space="preserve" fill="#000000" fill-rule="nonzero" stroke="none" stroke-width="1" stroke-linecap="butt" stroke-linejoin="miter" stroke-miterlimit="10" stroke-dasharray="" stroke-dashoffset="0" font-family="Handwriting" font-weight="normal" text-anchor="start" style="mix-blend-mode: normal"><tspan x="0" dy="0">D1</tspan><tspan x="0" dy="46.150000000000006px">1st Floor</tspan><tspan x="0" dy="46.150000000000006px">26 Avalaible Students</tspan><tspan x="0" dy="46.150000000000006px">1 Boss</tspan></text><path d="M326.60002,221.4v-93h93v93z" fill="#ffffff" stroke="#000000" stroke-width="2" stroke-linecap="butt"/><text transform="translate(345.60002,118.4) scale(0.5,0.5)" font-size="40" xml:space="preserve" fill="#000000" fill-rule="nonzero" stroke="none" stroke-width="1" stroke-linecap="butt" stroke-linejoin="miter" stroke-miterlimit="10" stroke-dasharray="" stroke-dashoffset="0" font-family="Handwriting" font-weight="normal" text-anchor="start" style="mix-blend-mode: normal"><tspan x="0" dy="0">ITEM</tspan></text><text transform="translate(329.60002,241.4) scale(0.5,0.5)" font-size="40" xml:space="preserve" fill="#000000" fill-rule="nonzero" stroke="none" stroke-width="1" stroke-linecap="butt" stroke-linejoin="miter" stroke-miterlimit="10" stroke-dasharray="" stroke-dashoffset="0" font-family="Handwriting" font-weight="normal" text-anchor="start" style="mix-blend-mode: normal"><tspan x="0" dy="0">Equipped</tspan></text><path d="M291.60002,335.90001c0,-9.66499 7.83501,-17.5 17.5,-17.5c9.66499,0 17.5,7.83501 17.5,17.5c0,9.66499 -7.83501,17.5 -17.5,17.5c-9.66499,0 -17.5,-7.83501 -17.5,-17.5z" fill="#000000" stroke="#000000" stroke-width="2" stroke-linecap="butt"/><path d="M287.60002,331.9c0,-9.66498 7.83502,-17.5 17.5,-17.5c9.66498,0 17.5,7.83502 17.5,17.5c0,9.66498 -7.83502,17.5 -17.5,17.5c-9.66498,0 -17.5,-7.83502 -17.5,-17.5z" fill="#a9a9a9" stroke="#000000" stroke-width="2" stroke-linecap="butt"/><path d="M296.53335,324.78761l13.33333,13.33333" fill="none" stroke="#ff0000" stroke-width="2" stroke-linecap="round"/><path d="M295.86668,338.78761l14.83333,-14.83333" fill="none" stroke="#ff0000" stroke-width="2" stroke-linecap="round"/></g></g></svg>