<svg version="1.1" xmlns="http://www.w3.org/2000/svg" xmlns:xlink="http://www.w3.org/1999/xlink" width="415.75" height="137.55" viewBox="0,0,415.75,137.55"><g transform="translate(-6.10001,-131.89999)"><g data-paper-data="{&quot;isPaintingLayer&quot;:true}" fill-rule="nonzero" stroke-linecap="butt" stroke-linejoin="miter" stroke-miterlimit="10" stroke-dasharray="" stroke-dashoffset="0" style="mix-blend-mode: normal"><g stroke="#000000" stroke-width="2"><path d="M18.5,186c0,-16.2924 13.2076,-29.5 29.5,-29.5c16.2924,0 29.5,13.2076 29.5,29.5c0,16.2924 -13.2076,29.5 -29.5,29.5c-16.2924,0 -29.5,-13.2076 -29.5,-29.5z" fill="#ffcb66"/><path d="M13.5,181c0,-16.2924 13.2076,-29.5 29.5,-29.5c16.2924,0 29.5,13.2076 29.5,29.5c0,16.2924 -13.2076,29.5 -29.5,29.5c-16.2924,0 -29.5,-13.2076 -29.5,-29.5z" fill="#f8ff66"/></g><text transform="translate(36.60001,189.39999) scale(0.5,0.5)" font-size="40" xml:space="preserve" fill="#9966ff" fill-rule="nonzero" stroke="none" stroke-width="1" stroke-linecap="butt" stroke-linejoin="miter" stroke-miterlimit="10" stroke-dasharray="" stroke-dashoffset="0" font-family="Sans Serif" font-weight="normal" text-anchor="start" style="mix-blend-mode: normal"><tspan x="0" dy="0">1</tspan></text><g stroke="#000000" stroke-width="2"><path d="M93.5,183c0,-16.2924 13.2076,-29.5 29.5,-29.5c16.2924,0 29.5,13.2076 29.5,29.5c0,16.2924 -13.2076,29.5 -29.5,29.5c-16.2924,0 -29.5,-13.2076 -29.5,-29.5z" fill="#ffcb66"/><path d="M88.5,178c0,-16.2924 13.2076,-29.5 29.5,-29.5c16.2924,0 29.5,13.2076 29.5,29.5c0,16.2924 -13.2076,29.5 -29.5,29.5c-16.2924,0 -29.5,-13.2076 -29.5,-29.5z" fill="#f8ff66"/></g><text transform="translate(111.60001,186.39999) scale(0.5,0.5)" font-size="40" xml:space="preserve" fill="#9966ff" fill-rule="nonzero" stroke="none" stroke-width="1" stroke-linecap="butt" stroke-linejoin="miter" stroke-miterlimit="10" stroke-dasharray="" stroke-dashoffset="0" font-family="Sans Serif" font-weight="normal" text-anchor="start" style="mix-blend-mode: normal"><tspan x="0" dy="0">2</tspan></text><g stroke="#000000" stroke-width="2"><path d="M174.5,183c0,-16.2924 13.2076,-29.5 29.5,-29.5c16.2924,0 29.5,13.2076 29.5,29.5c0,16.2924 -13.2076,29.5 -29.5,29.5c-16.2924,0 -29.5,-13.2076 -29.5,-29.5z" fill="#ffcb66"/><path d="M169.5,178c0,-16.2924 13.2076,-29.5 29.5,-29.5c16.2924,0 29.5,13.2076 29.5,29.5c0,16.2924 -13.2076,29.5 -29.5,29.5c-16.2924,0 -29.5,-13.2076 -29.5,-29.5z" fill="#f8ff66"/></g><text transform="translate(192.60001,186.39999) scale(0.5,0.5)" font-size="40" xml:space="preserve" fill="#9966ff" fill-rule="nonzero" stroke="none" stroke-width="1" stroke-linecap="butt" stroke-linejoin="miter" stroke-miterlimit="10" stroke-dasharray="" stroke-dashoffset="0" font-family="Sans Serif" font-weight="normal" text-anchor="start" style="mix-blend-mode: normal"><tspan x="0" dy="0">3</tspan></text><g stroke="#000000" stroke-width="2"><path d="M256.5,184c0,-16.2924 13.2076,-29.5 29.5,-29.5c16.2924,0 29.5,13.2076 29.5,29.5c0,16.2924 -13.2076,29.5 -29.5,29.5c-16.2924,0 -29.5,-13.2076 -29.5,-29.5z" fill="#ffcb66"/><path d="M251.5,179c0,-16.2924 13.2076,-29.5 29.5,-29.5c16.2924,0 29.5,13.2076 29.5,29.5c0,16.2924 -13.2076,29.5 -29.5,29.5c-16.2924,0 -29.5,-13.2076 -29.5,-29.5z" fill="#f8ff66"/></g><text transform="translate(274.60001,187.39999) scale(0.5,0.5)" font-size="40" xml:space="preserve" fill="#9966ff" fill-rule="nonzero" stroke="none" stroke-width="1" stroke-linecap="butt" stroke-linejoin="miter" stroke-miterlimit="10" stroke-dasharray="" stroke-dashoffset="0" font-family="Sans Serif" font-weight="normal" text-anchor="start" style="mix-blend-mode: normal"><tspan x="0" dy="0">4</tspan></text><path d="M8.60001,232.39999v-98h410v98z" fill="none" stroke="#ffffff" stroke-width="5"/><g fill="#31ff00" stroke="#000000" stroke-width="2"><path d="M335.5,184c0,-16.2924 13.2076,-29.5 29.5,-29.5c16.2924,0 29.5,13.2076 29.5,29.5c0,16.2924 -13.2076,29.5 -29.5,29.5c-16.2924,0 -29.5,-13.2076 -29.5,-29.5z"/><path d="M330.5,179c0,-16.2924 13.2076,-29.5 29.5,-29.5c16.2924,0 29.5,13.2076 29.5,29.5c0,16.2924 -13.2076,29.5 -29.5,29.5c-16.2924,0 -29.5,-13.2076 -29.5,-29.5z"/></g><text transform="translate(351.26668,193.73566) scale(1.10461,1.10461)" font-size="40" xml:space="preserve" fill="#000000" fill-rule="nonzero" stroke="none" stroke-width="1" stroke-linecap="butt" stroke-linejoin="miter" stroke-miterlimit="10" stroke-dasharray="" stroke-dashoffset="0" font-family="Sans Serif" font-weight="normal" text-anchor="start" style="mix-blend-mode: normal"><tspan x="0" dy="0">5</tspan></text><text transform="translate(348.10001,191.23566) scale(1.1046,1.1046)" font-size="40" xml:space="preserve" fill="#ffffff" fill-rule="nonzero" stroke="none" stroke-width="1" stroke-linecap="butt" stroke-linejoin="miter" stroke-miterlimit="10" stroke-dasharray="" stroke-dashoffset="0" font-family="Sans Serif" font-weight="normal" text-anchor="start" style="mix-blend-mode: normal"><tspan x="0" dy="0">5</tspan></text><text transform="translate(312.8,263.2) scale(0.5,0.5)" font-size="40" xml:space="preserve" fill="#ff0000" fill-rule="nonzero" stroke="none" stroke-width="1" stroke-linecap="butt" stroke-linejoin="miter" stroke-miterlimit="10" stroke-dasharray="" stroke-dashoffset="0" font-family="Sans Serif" font-weight="normal" text-anchor="start" style="mix-blend-mode: normal"><tspan x="0" dy="0">COMPLETE!</tspan></text></g></g></svg>