<svg version="1.1" xmlns="http://www.w3.org/2000/svg" xmlns:xlink="http://www.w3.org/1999/xlink" width="479" height="532.92609" viewBox="0,0,479,532.92609"><g transform="translate(0.4,0.60001)"><g data-paper-data="{&quot;isPaintingLayer&quot;:true}" fill-rule="nonzero" stroke-linecap="butt" stroke-linejoin="miter" stroke-miterlimit="10" stroke-dasharray="" stroke-dashoffset="0" style="mix-blend-mode: normal"><path d="M-0.39999,361.4v-362h479v362z" fill="#ff7b00" stroke="none" stroke-width="0"/><text transform="translate(146.33314,167.48128) scale(1.2584,1.2584)" font-size="40" xml:space="preserve" fill="#000000" fill-rule="nonzero" stroke="none" stroke-width="1" stroke-linecap="butt" stroke-linejoin="miter" stroke-miterlimit="10" stroke-dasharray="" stroke-dashoffset="0" font-family="Serif" font-weight="normal" text-anchor="start" style="mix-blend-mode: normal"><tspan x="0" dy="0">CLASS</tspan><tspan x="0" dy="46.15px">BATTLE</tspan></text><text transform="translate(146.33314,165.48128) scale(1.2584,1.2584)" font-size="40" xml:space="preserve" fill="#000000" fill-rule="nonzero" stroke="none" stroke-width="1" stroke-linecap="butt" stroke-linejoin="miter" stroke-miterlimit="10" stroke-dasharray="" stroke-dashoffset="0" font-family="Serif" font-weight="normal" text-anchor="start" style="mix-blend-mode: normal"><tspan x="0" dy="0">CLASS</tspan><tspan x="0" dy="46.15px">BATTLE</tspan></text><text transform="translate(146.33314,163.48128) scale(1.2584,1.2584)" font-size="40" xml:space="preserve" fill="#000000" fill-rule="nonzero" stroke="none" stroke-width="1" stroke-linecap="butt" stroke-linejoin="miter" stroke-miterlimit="10" stroke-dasharray="" stroke-dashoffset="0" font-family="Serif" font-weight="normal" text-anchor="start" style="mix-blend-mode: normal"><tspan x="0" dy="0">CLASS</tspan><tspan x="0" dy="46.15px">BATTLE</tspan></text><text transform="translate(146.33314,161.48128) scale(1.2584,1.2584)" font-size="40" xml:space="preserve" fill="#ff0000" fill-rule="nonzero" stroke="none" stroke-width="1" stroke-linecap="butt" stroke-linejoin="miter" stroke-miterlimit="10" stroke-dasharray="" stroke-dashoffset="0" font-family="Serif" font-weight="normal" text-anchor="start" style="mix-blend-mode: normal"><tspan x="0" dy="0">CLASS</tspan><tspan x="0" dy="46.15px">BATTLE</tspan></text><path d="M2.93334,356.73334v-263.46667l104.66667,-40.66667l-1.66667,257.13333z" fill="#ffd0a4" stroke="none" stroke-width="0"/><path d="M105.0134,310.82042c0,0 33.98244,30.27919 57.02142,50.8075c35.44469,31.5821 134.96271,120.25512 134.96271,120.25512l-100.32142,50.44305c0,0 -141.76679,-127.97573 -172.54388,-155.75882c-11.24279,-10.14909 -23.02462,-20.78479 -23.02462,-20.78479z" data-paper-data="{&quot;index&quot;:null}" fill="#c6a17f" stroke="none" stroke-width="0"/><text transform="translate(152.40001,285.7) scale(0.5,0.5)" font-size="40" xml:space="preserve" fill="#ad80ff" fill-rule="nonzero" stroke="none" stroke-width="1" stroke-linecap="butt" stroke-linejoin="miter" stroke-miterlimit="10" stroke-dasharray="" stroke-dashoffset="0" font-family="Handwriting" font-weight="normal" text-anchor="start" style="mix-blend-mode: normal"><tspan x="0" dy="0">Beat 'em All!</tspan></text><text transform="translate(172.40001,309.2) scale(0.5,0.5)" font-size="40" xml:space="preserve" fill="#bc98ff" fill-rule="nonzero" stroke="none" stroke-width="1" stroke-linecap="butt" stroke-linejoin="miter" stroke-miterlimit="10" stroke-dasharray="" stroke-dashoffset="0" font-family="Handwriting" font-weight="normal" text-anchor="start" style="mix-blend-mode: normal"><tspan x="0" dy="0">Fight and Win!!</tspan></text><text transform="translate(192.40001,332.2) scale(0.5,0.5)" font-size="40" xml:space="preserve" fill="#dbc8ff" fill-rule="nonzero" stroke="none" stroke-width="1" stroke-linecap="butt" stroke-linejoin="miter" stroke-miterlimit="10" stroke-dasharray="" stroke-dashoffset="0" font-family="Handwriting" font-weight="normal" text-anchor="start" style="mix-blend-mode: normal"><tspan x="0" dy="0">Earn rewards!</tspan></text><text transform="translate(324.69358,57.12129) rotate(22.45468) scale(1.06338,1.06338)" font-size="40" xml:space="preserve" fill="#dbc8ff" fill-rule="nonzero" stroke="none" stroke-width="1" stroke-linecap="butt" stroke-linejoin="miter" stroke-miterlimit="10" stroke-dasharray="" stroke-dashoffset="0" font-family="Handwriting" font-weight="normal" text-anchor="start" style="mix-blend-mode: normal"><tspan x="0" dy="0">💵D1</tspan></text><text transform="translate(150.17792,87.13032) rotate(-37.29766) scale(1.34358,1.34358)" font-size="40" xml:space="preserve" fill="#dbc8ff" fill-rule="nonzero" stroke="none" stroke-width="1" stroke-linecap="butt" stroke-linejoin="miter" stroke-miterlimit="10" stroke-dasharray="" stroke-dashoffset="0" font-family="Handwriting" font-weight="normal" text-anchor="start" style="mix-blend-mode: normal"><tspan x="0" dy="0">📚</tspan></text><path d="M8.70001,221.3c0,-4.97056 4.02944,-9 9,-9c4.97056,0 9,4.02944 9,9c0,4.97056 -4.02944,9 -9,9c-4.97056,0 -9,-4.02944 -9,-9z" fill="#c6a17f" stroke="#000000" stroke-width="0"/><path d="M401.44835,245.46383l0.12734,-1.01729c0.93032,-2.19537 0.9182,-4.89145 0.86969,-7.56877c-0.0431,0.08467 -0.08145,0.17138 -0.11307,0.26098c-0.99832,2.82857 -1.16585,5.79236 -3.10107,8.29008c-1.26213,1.62897 -2.93052,3.18578 -4.28618,4.76484c-0.82999,1.13783 -1.65496,1.82599 -2.54228,2.44458c0.68347,0.01444 1.34717,-0.01364 1.94342,-0.1394c0.67162,-0.14165 1.34467,-0.29968 2.02076,-0.43361c0.16541,-0.40508 0.42786,-0.66753 0.42786,-0.66753c1.52512,-1.52365 3.2308,-3.48977 4.9051,-4.98798c-0.25158,-0.46286 -0.25158,-0.94588 -0.25158,-0.94588zM406.137,225.77869c0.40543,-0.9056 -0.44675,-1.13707 -0.86198,-1.81172c-0.74757,-1.21466 -1.56236,-2.3942 -2.199,-3.67049c-0.8394,-1.68272 -2.00468,-4.74478 -2.31682,-6.59441c-0.10316,-0.61132 0.20172,-1.25319 0.06838,-1.85864c-0.26232,-1.19105 -3.12934,-2.18034 -3.81087,-2.57093c-2.23876,-1.28304 -4.82696,-2.89709 -6.9356,-4.38145c-0.48636,-0.34237 -0.71079,-0.99723 -1.22338,-1.2989c-1.05674,-0.62194 -3.44496,-0.61316 -4.67651,-0.86624c-3.43203,0 -4.9835,2.58692 -8.26953,3.5098c-1.98998,0.55888 -4.18489,1.22708 -6.1012,2.0233c-0.61311,0.25475 -0.99633,0.94059 -1.62646,1.14968c-0.49043,0.16273 -1.06363,-0.27877 -1.54719,-0.09659c-1.03667,0.39058 -0.8904,2.08785 -1.67375,2.87119c-1.05025,1.05025 -2.33143,1.90436 -3.69846,2.48512c-2.00489,0.85174 -5.24514,0.87616 -6.26101,3.39123c-0.25585,0.63344 -0.07814,1.3835 -0.31103,2.02573c-0.24127,0.66534 -0.84511,1.15913 -1.08529,1.82486c-0.11042,0.30608 -0.80702,3.8283 -0.9707,4.64642c-0.42777,2.56662 -0.57716,5.33943 -1.07118,7.84941c-0.12343,0.62715 -0.5971,1.15164 -0.71215,1.78039c-0.11964,0.65386 0.1096,1.33519 0.02149,1.99405c-0.22442,1.67821 -0.91347,3.28001 -1.06627,4.96625c-0.06977,0.7699 0.14754,1.56607 -0.02769,2.31901c-0.34816,1.49593 -1.50667,2.73956 -1.77615,4.25164c-0.28646,1.60736 -0.11914,3.90326 0.02346,5.5412c0.2045,2.3488 2.02547,5.00866 3.22801,7.25717c1.95279,-3.10628 3.47395,-5.85967 6.56089,-8.19743l2.24081,-0.76235c0,0 0.13087,-0.03739 0.33057,-0.05531c0.28489,-0.33644 0.55996,-0.68095 0.82322,-1.03394l0.54404,-1.1523c0,0 0.09935,-0.19871 0.29805,-0.42064c-0.10542,-0.83212 -0.22938,-1.70271 -0.7012,-2.61687c-0.65913,-1.27706 -1.84912,-2.28953 -2.27566,-3.6619c-0.39358,-1.26631 -0.41935,-2.63827 -0.89423,-3.87638c-2.88784,-6.80865 0.31231,-12.23271 3.93584,-17.97896c0.71112,-1.12769 0.98115,-2.48385 1.58966,-3.67005c2.60447,-5.07715 7.901,-7.96325 13.32633,-8.64702c0.30196,-0.45558 0.75754,-0.68336 0.75754,-0.68336l0.32737,-0.15473c2.94223,-1.83218 4.7706,-2.60571 8.27436,-2.58755c3.50716,1.91049 5.99577,4.68208 8.70201,7.64467c1.42008,1.55461 3.05485,2.93277 4.28239,4.6435c0.68735,0.95791 1.07426,2.1079 1.75221,3.07248c1.06362,1.51327 2.05095,1.29608 2.83432,3.23156c0.43574,1.07658 0.5374,2.06585 0.46398,3.02275c0.64701,-0.93098 1.27035,-1.87481 1.70838,-2.85323zM348.54629,265.059c-1.34406,-3.03211 -3.6948,-6.09404 -4.06163,-9.44957c-0.20479,-1.87323 -0.31365,-4.73681 0.02346,-6.56543c0.28102,-1.52441 1.43959,-2.78302 1.78463,-4.29423c0.14499,-0.63503 -0.08686,-1.30524 -0.02769,-1.95391c0.07441,-0.81587 1.02702,-4.6792 1.0702,-5.00392c0.1001,-0.75304 -0.11362,-1.53133 0.02149,-2.27887c0.11368,-0.62899 0.58468,-1.15404 0.71215,-1.78038c0.5039,-2.47574 0.64087,-5.27158 1.06528,-7.81799c0.25396,-1.27023 0.89231,-4.55098 1.16577,-5.32373c0.22567,-0.6377 0.81945,-1.10038 1.05117,-1.7359c0.26065,-0.71488 0.06656,-1.56379 0.40113,-2.2472c1.7043,-3.48134 4.85357,-3.88045 7.98208,-5.15462c1.0025,-0.4083 1.94552,-1.02239 2.71093,-1.7878c1.0348,-1.0348 1.32415,-2.81992 2.59918,-3.5382c0.58546,-0.32982 1.3764,0.11675 2.01359,-0.0966c0.49651,-0.16624 0.73904,-0.7849 1.22216,-0.98679c0.93088,-0.38903 1.99118,-0.38628 2.93246,-0.74944c0.65871,-0.25413 1.16334,-0.82384 1.8197,-1.08398c1.19622,-0.47411 2.5822,-0.40813 3.73257,-0.98465c1.23408,-0.61847 2.03414,-1.93278 3.27899,-2.52929c1.38862,-0.6654 3.02155,-0.51403 4.4882,-0.51403c1.70155,0.33262 4.48584,0.45812 6.00581,1.27024c0.66022,0.35276 1.01092,1.12196 1.62523,1.5497c2.03149,1.41456 4.43158,2.93174 6.59535,4.16441c2.03465,1.15911 4.58432,2.05335 5.44715,4.5506c0.26291,0.76094 -0.06233,1.61987 0.06838,2.41428c0.25806,1.56848 1.24791,4.09982 1.95609,5.51221c1.28273,2.55827 4.2466,4.83614 3.34841,8.04872c-0.57713,2.06423 -2.46269,4.01817 -3.60374,5.83595c-0.45634,3.57905 0.16444,7.34926 -0.45146,10.8735c0.44376,-0.70919 0.84208,-1.46558 1.37408,-2.09732c3.14963,-3.74019 6.37797,-7.37895 9.52575,-11.14637c0.03488,-0.26158 0.14267,-0.54709 0.35959,-0.85077c0.03371,-0.04719 0.06786,-0.09175 0.10237,-0.13378c0.02686,-0.03381 0.05547,-0.06767 0.08588,-0.1012c0.3807,-3.62108 1.63641,-6.12803 3.21086,-9.45951c0.27631,-0.58465 1.8292,-4.33602 2.56189,-4.84252c3.33702,-2.30684 4.74221,-1.04117 6.21776,2.73005c0.36575,0.93476 0.43108,1.71703 0.3202,2.43699c2.24295,-1.42005 5.24703,-1.53802 6.34442,1.90191c0.21395,0.67066 0.01592,1.36389 -0.23383,2.05996c2.11007,-0.21696 4.62717,2.15947 4.55239,4.46995c-0.03411,1.05366 -0.9697,1.89199 -1.64649,2.70029c-2.54208,3.036 -7.63661,2.41926 -9.17226,6.38341l-0.61489,0.79497c0,0 -1.25892,1.25892 -2.51784,0c-0.01715,-0.01714 -0.03382,-0.03428 -0.05005,-0.05143c-0.20798,0.34658 -0.51971,0.54491 -0.80841,0.65841c-0.95005,1.44352 -0.16481,3.07127 -0.6719,4.99937c-0.22888,0.87025 -0.67836,1.66867 -1.07736,2.47522c-1.56646,3.16645 -4.33733,5.50497 -5.96571,8.60537c-1.13095,2.15331 -2.13781,4.33519 -3.35742,6.46888c-1.73472,2.76049 -3.94182,5.25459 -6.1564,7.65497c-1.33243,1.44421 -3.46222,2.90991 -4.13498,4.83488c-0.79459,2.27357 -0.37782,5.98477 -0.37602,8.43591c0.0046,6.25408 -0.23739,12.49603 -0.23739,18.75341c0,0 0,1.42761 -1.27837,1.72609c-0.31038,0.18703 -0.59055,0.24929 -0.59055,0.24929c-0.56687,0.12597 -1.13376,0.25195 -1.70064,0.37792c0.00036,0.08733 0.00303,0.17344 0.0088,0.25794c0.19031,2.78761 -0.51362,5.61993 -0.24593,8.37161c0.42125,4.33016 2.75758,8.17863 3.08936,12.61989c0.50099,6.70634 -0.13536,13.47101 -1.00633,20.06697c-0.36521,0.87242 -0.72243,2.11912 -1.18568,3.29547c0.63829,-0.02469 1.27629,-0.03553 1.91233,-0.03418c1.34506,0.00285 3.92787,-0.18529 5.05539,0.7677c0.74736,0.63168 0.94401,1.72282 1.28019,2.64183c1.28474,3.51213 0.72028,6.90959 -3.26211,8.24356c-2.02932,0.67976 -5.16577,0.85745 -7.34641,0.8096c-0.79042,-0.01734 -1.6327,0.1858 -2.36971,-0.10037c-0.39477,-0.15328 -3.52555,-2.69211 -4.0618,-3.12119c-1.17172,-0.93405 -2.10452,-2.21943 -2.69917,-3.59485l-0.12734,-2.08553c0,0 0,-0.2358 0.08582,-0.53578c-0.30674,-0.17076 -0.56863,-0.36446 -0.77335,-0.58155c-1.46578,-1.55429 -1.16303,-5.70454 -1.16407,-7.59469c-0.00241,-4.39607 0.17748,-8.83295 0.00132,-13.22523c-0.04798,-1.19621 -0.0255,-2.98614 -0.35545,-4.50374l-0.00787,0.01056c-2.53388,1.48052 -2.0135,3.02172 -3.10533,5.60096c-1.69926,4.01418 -3.07698,8.07225 -4.73927,12.08662c-0.65452,1.58067 -0.68529,3.40409 -1.50041,4.90825c-0.33858,0.62478 -0.98931,1.38317 -1.75029,2.11053c0.65501,0.24273 1.27979,0.57617 1.83963,0.95877c0.74552,0.50949 1.74584,0.76581 2.24227,1.5201c2.09358,3.18104 -0.1925,5.80093 -2.57538,7.47242c-0.75087,0.5267 -1.3351,1.35938 -2.20746,1.64258c-3.47115,1.12687 -6.3008,-0.91818 -7.30716,-4.1196c-0.20288,-0.64542 -0.02064,-2.54901 0.04374,-3.40681l-0.80351,-0.91909c0,0 -1.06823,-1.42431 0.35608,-2.49254l0,-0.00003c0.23206,-0.17404 0.45466,-0.28192 0.66474,-0.34058c0.0553,-0.35993 0.1769,-0.63337 0.334,-0.84083l-0.59519,-0.05299c0,-8.48242 -1.67031,-16.82416 -1.65897,-25.30173c-0.50136,-4.45826 -1.21096,-8.82698 -1.4255,-13.31802c-0.03202,-0.6702 0.0211,-5.17455 0.0834,-5.36503c0.308,-0.94178 0.79828,-1.65727 1.40999,-2.20686c-0.78276,-0.49331 -0.78276,-1.52272 -0.78276,-1.52272c0.0183,-3.34357 -1.18844,-6.34875 -1.85944,-9.59654c-1.03259,-4.99797 -0.99206,-9.87499 -0.98931,-14.92953c-2.27862,5.2894 -3.20654,12.17708 -1.94136,17.73046l-0.35883,0.94284l0.30806,1.24885c0.26222,0.82907 0.94177,1.6316 0.78665,2.48719c-0.17455,0.96278 -1.02718,1.67724 -1.67465,2.41085c-1.33497,1.51262 -4.96435,4.90077 -7.32417,3.89339c-0.09861,-0.04209 -0.19287,-0.084 -0.28294,-0.1257c-0.15277,0.18063 -0.33616,0.32715 -0.56405,0.42416c-1.08779,0.46303 -2.39587,-0.3397 -3.42478,-0.92198c-3.70157,-2.09481 -2.61555,-8.24132 -2.61555,-11.63508c0,0 0,-0.08418 0.0183,-0.21593c-0.00353,-0.02676 -0.0067,-0.05399 -0.00947,-0.08168c-0.09457,-0.94567 0.36615,-1.43701 0.81628,-1.6896c-1.35572,-3.75469 -1.06249,-8.03827 -1.06249,-12.01848c0,-2.00404 -0.40026,-4.64453 0.04762,-6.58106c0.66351,-2.86879 2.47797,-4.99836 4.2063,-7.20299c-0.31802,-0.29957 -0.46846,-0.63804 -0.46846,-0.63804zM370.7304,353.65386c-0.02862,1.96255 -0.01315,5.63958 2.71068,4.43074c0.5523,-0.24511 0.85777,-0.86029 1.35332,-1.20604c0.43238,-0.30167 1.04804,-0.3353 1.40799,-0.72051c1.3798,-1.47666 -0.96694,-2.84884 -2.02284,-3.25026c-0.87207,-0.33153 -2.40492,0.29427 -3.44915,0.74607zM392.3194,352.92977c0.31331,0.5994 0.76818,1.13973 1.31737,1.51056c1.04117,0.83278 1.83155,2.05731 3.05974,2.57605c1.065,0.44981 3.82018,-0.2972 4.85111,-0.43782c0.36359,-0.0496 4.07608,-0.11195 4.21778,-1.48069c0.04406,-0.42563 -0.55257,-3.33003 -0.82658,-3.57857c-0.20211,-0.18333 -0.54446,0.04145 -0.81727,0.0469c-1.65208,0.03304 -3.6464,-0.28964 -5.27486,-0.00855c-2.14243,0.36982 -4.40108,0.64068 -6.4494,1.35015c0,0 -0.02796,0.00932 -0.07788,0.02196zM425.2546,233.36585l1.74188,0.69675c0.00131,0.0005 0.00265,0.00098 0.00396,0.00148c0.91205,-1.21931 2.05019,-2.04474 3.69968,-2.92557c2.04485,-1.09196 4.12242,-1.22393 5.69882,-3.09605c0.60122,-0.714 -1.86005,-0.18397 -2.76415,-0.44835l-2.04764,-0.22752c-0.90101,-0.08803 -1.60512,-0.84772 -1.60512,-1.77187c0,-0.60582 0.30258,-1.14097 0.76486,-1.46256l1.25984,-0.89988c0.14623,-0.40413 0.38254,-1.02724 0.11543,-0.87749c-0.31826,0.17842 -0.44259,0.601 -0.75045,0.79681c-0.86268,0.54873 -1.60686,0.90565 -2.3438,1.17183l-2.55597,1.39416c-0.25991,0.1484 -0.56082,0.2332 -0.88152,0.2332c-0.98328,0 -1.78039,-0.7971 -1.78039,-1.78039c0,-0.26306 0.05705,-0.51281 0.15946,-0.73751l0.69665,-1.62551l0.01695,0.00726l0.00436,-0.05503c0.94773,-1.77609 1.1447,-2.76138 0.37752,-4.67137c-0.04265,-0.10619 0.08534,0.2314 0.04874,0.33982c-0.13528,0.40079 -0.37212,0.75984 -0.54953,1.14383c-0.39297,0.85051 -0.76141,1.71232 -1.16151,2.5595c-1.44605,3.06195 -2.68993,5.22988 -2.92129,8.6354c0,0 0,0.00012 -0.00003,0.00037c1.16013,0.84482 2.26202,1.69445 3.32268,2.6943c0.34617,0.10817 0.76167,0.33187 0.99974,0.79448c0.26817,0.03683 0.45083,0.1099 0.45083,0.1099zM400.73621,253.53491c0,1.78039 -1.78039,1.78039 -1.78039,1.78039c-1.33137,-0.01984 -2.62836,0.43027 -3.93625,0.68003c-1.86254,0.35568 -4.13336,0.03212 -6.03391,0.03212h-0.6145c-0.07569,0.05484 -0.15668,0.10236 -0.24455,0.14052c-0.51369,0.2231 -4.72226,0.16809 -5.26549,0.16809c-2.84862,0 -5.69723,0.0009 -8.54585,0c-2.92375,-0.00092 -5.08434,-0.23325 -7.82458,-1.01152c-0.76423,-0.21705 -1.69225,0.02658 -2.34489,-0.42641c-0.06912,-0.04798 -0.13575,-0.09608 -0.19999,-0.14432c-0.77988,1.01873 -1.63832,1.97968 -2.54349,2.88866c0,0 -1.11148,1.11149 -2.29008,0.20135c-2.41147,2.1046 -3.58574,4.64728 -5.36755,7.3939c-1.81413,2.79645 -4.65572,5.0991 -5.47069,8.48043c-0.39748,1.64916 0.04762,4.05141 0.04762,5.76296c0,3.44587 -0.43087,7.55482 0.83619,10.76934c0,0 0.14152,0.37739 0.11033,0.84037c2.50459,-0.01797 4.79356,0.37906 6.94549,1.5939c-0.63146,-5.76985 0.29079,-12.56872 2.83794,-17.41081c-0.05635,-1.99337 -0.17494,-4.37051 1.08857,-6.08181c0.73372,-0.99374 1.38157,-2.8909 2.59266,-2.64777c1.5419,0.30954 2.18733,2.32785 2.87029,3.7445c0.06069,0.12588 0.04762,3.85433 0.04762,4.2072c0,3.48239 -0.2913,7.09271 -0.00408,10.56182c0.4636,5.59947 2.82715,10.9004 2.8527,16.50005c0,0 0,0.04235 -0.00653,0.11398c1.44485,-0.39968 3.02802,-0.52142 4.418,-0.6941c6.61363,-0.82164 13.21677,-1.90639 19.92047,-1.91241c1.74048,0.0105 4.25312,-0.20848 5.85085,0.92471c0.30593,-0.06799 0.61187,-0.13597 0.9178,-0.20395c0.02792,-5.8232 0.2301,-11.63434 0.2342,-17.4564c0.002,-2.85512 -0.37646,-6.92974 0.57352,-9.60534c0.87898,-2.47562 3.17118,-4.2285 4.88563,-6.08483c2.04016,-2.20898 4.12968,-4.51346 5.71285,-7.06288c1.19605,-2.0937 2.16658,-4.24394 3.28936,-6.3499c1.6278,-3.05324 4.33506,-5.39157 5.90353,-8.48634c1.22217,-2.41147 0.30701,-4.26979 1.10609,-6.6956c0.2568,-0.7796 0.9955,-1.30533 1.49324,-1.958l0.26707,-0.10659c-0.03208,-0.04541 -0.06251,-0.09324 -0.09066,-0.14352l-1.25453,-0.43721c-0.94173,-0.94787 -1.92581,-1.72651 -2.9604,-2.48551c-3.02411,3.60198 -6.11502,7.09363 -9.13461,10.67938c-1.28821,1.52975 -1.79025,3.05757 -3.39596,4.32612c-0.47695,0.3768 -1.19934,0.34273 -1.67466,0.72159c-1.34682,1.07352 -2.72213,2.60667 -4.01819,3.99654c0.12244,0.23252 0.19978,0.52624 0.19978,0.89731zM381.30578,211.81529c0.00808,0.07871 0.01235,0.16148 0.01235,0.2485c0,1.78039 -1.78039,1.78038 -1.78039,1.78038c-4.81811,-0.00589 -10.38355,2.16254 -12.65656,6.86121c-0.62302,1.28788 -0.97983,2.71035 -1.73373,3.92627c-2.93871,4.73957 -6.10516,9.14296 -3.66048,14.78014c0.49707,1.34914 0.62743,2.80734 1.00486,4.1947c0.31425,1.15517 1.47195,1.90914 1.99726,2.98488c0.43641,0.8937 0.66051,1.88043 0.88591,2.84911c0.03208,0.13788 -0.03004,2.12598 0.59373,2.39889c0.44406,0.19428 0.98239,-0.06653 1.45326,0.04835c0.57585,0.14049 1.05487,0.57238 1.63268,0.70456c3.62799,0.82993 7.94601,0.18301 11.66998,0.18301c1.58256,0 3.16672,-0.07076 4.7477,0c0.25691,0.0115 0.52809,0.16172 0.78168,0.20755c0.21215,-0.20761 0.46514,-0.33171 0.6918,-0.40589c0.14702,-0.2797 0.23674,-0.62448 0.47708,-0.8169c1.99933,-1.60077 3.24333,-1.64157 4.7189,-3.76203c1.35817,-1.58694 2.96533,-3.11198 4.25967,-4.73057c1.69919,-2.12486 1.73962,-4.95042 2.59617,-7.37731c0.19331,-0.54771 0.74716,-0.93297 0.89613,-1.49436c0.15211,-0.57316 -0.15605,-1.19989 -0.02751,-1.7788c0.4048,-1.82318 1.60801,-3.60325 0.82245,-5.61236c-0.41667,-1.06564 -1.72567,-1.53276 -2.38816,-2.46567c-0.6918,-0.97421 -1.08879,-2.13689 -1.78106,-3.11076c-1.15055,-1.61859 -2.71518,-2.89883 -4.05358,-4.3659c-2.07329,-2.2726 -4.29413,-5.05799 -6.96538,-6.59842c-1.68784,0.01804 -2.8999,0.57583 -4.19475,1.35143zM348.53044,300.05328c0.0124,0.07644 0.46929,1.10089 0.79474,1.86929l0.19188,-1.72689c0.08803,-0.90101 0.84772,-1.60512 1.77187,-1.60512c0.71074,0 1.3242,0.41646 1.60967,1.01866l0.48306,0.96612c0.33932,0.34343 0.55326,0.70698 0.52412,1.13459c0.29633,-0.29207 0.65904,-0.52012 0.97467,-0.79382c1.38997,-1.2053 2.8925,-1.44887 1.8428,-2.8254l-0.21094,-0.83417c-0.33623,-0.16292 -0.54769,-0.37437 -0.54769,-0.37437l-0.15086,-0.15643c-2.07013,-1.89952 -4.59596,-2.2193 -7.28445,-2.07185c-0.07848,1.78028 -0.26766,3.74208 0.00111,5.39939zM370.85766,347.81066c0.2035,0.29641 0.26612,0.61593 0.26396,0.90147c2.67892,-0.65377 3.2505,-5.02244 4.16003,-7.2428c0.89114,-2.17548 1.52905,-4.39281 2.34891,-6.58315c0.8647,-2.31015 2.40862,-4.57033 3.03739,-6.9695c0.7965,-3.03918 1.08157,-3.97599 3.86082,-5.79181l-0.41145,0.23879c0,0 0.12495,-0.24987 0.37482,-0.50217c-0.19018,-0.45358 -0.23441,-1.06961 0.32464,-1.74047c1.13977,-1.36773 2.50751,-0.22796 2.50751,-0.22796c0.6156,0.56693 1.44433,0.96702 1.84679,1.70077c0.39859,0.72668 0.26931,1.63588 0.42938,2.4491c0.99419,5.05052 0.73828,10.12563 0.73828,15.25911c0,2.02046 -0.10334,4.04339 -0.00344,6.06138c0.0451,0.91096 -0.30327,2.00903 0.26369,2.72348c0.51229,0.64558 1.64554,0.12042 2.46968,0.11706c1.06662,-0.00434 2.35444,0.53941 3.19785,-0.11353c0.83116,-0.64346 1.29161,-3.27422 1.73051,-4.26896c0.72541,-6.20848 1.3558,-12.5537 0.89274,-18.86415c-0.3232,-4.40444 -2.6614,-8.21388 -3.08264,-12.54291c-0.21119,-2.17035 0.23019,-4.40441 0.22884,-6.58364c-0.00044,-0.71215 -0.08101,-1.42894 0,-2.13647c0.04235,-0.37 0.62678,-0.79039 0.36551,-1.05578c-0.3351,-0.34039 -0.95502,-0.02654 -1.43266,-0.0282c-0.71253,-0.00249 -1.42501,0.0105 -2.13753,0.01575c-6.55491,-0.00633 -13.01885,1.07265 -19.48541,1.88574c-1.24392,0.15641 -5.29338,-0.0709 -5.64362,1.86229c-0.356,1.96492 0.11759,4.92437 0.31274,6.8686c0.3543,3.5299 0.80469,6.99005 1.19377,10.53085c0.00982,8.05624 1.4811,15.9896 1.64889,24.0371z" data-paper-data="{&quot;index&quot;:null}" fill="#000000" stroke="none" stroke-width="0.5"/><path d="M401.48343,245.46997c0,0 -0.00186,0.4897 0.24973,0.95257c-1.67431,1.49821 -3.41661,3.48693 -4.94173,5.01058c0,0 -0.2642,0.26225 -0.4296,0.66732c-0.67609,0.13393 -1.3572,0.28979 -2.02882,0.43145c-0.59625,0.12576 -1.26593,0.15078 -1.94939,0.13634c0.88732,-0.61858 1.74628,-1.36913 2.57627,-2.50696c1.35566,-1.57906 2.97585,-3.11589 4.23798,-4.74488c1.93522,-2.49771 2.11686,-5.41914 3.11518,-8.2477c0.03163,-0.0896 0.10834,-0.23632 0.15143,-0.32099c0.04851,2.67732 0.07704,5.40077 -0.85328,7.59614l-0.12778,1.02613z" data-paper-data="{&quot;noHover&quot;:false,&quot;origItem&quot;:[&quot;Path&quot;,{&quot;applyMatrix&quot;:true,&quot;segments&quot;:[[506.20009,261.71052],[[506.55771,258.85358],[0,0],[2.6127,-6.16542]],[[509.00013,237.5976],[0.13624,7.51894],[-0.12104,0.23778]],[[508.68259,238.33054],[0.0888,-0.25162],[-2.80366,7.9437]],[[499.97361,261.61222],[5.43484,-7.01452],[-3.54454,4.57478]],[[487.93639,274.99368],[3.8072,-4.43458],[-2.33092,3.19546]],[[480.79669,281.85898],[2.49194,-1.73722],[1.91942,0.04056]],[[486.25455,281.46748],[-1.67448,0.35318],[1.88616,-0.39782]],[[491.92963,280.24974],[-1.89874,0.37612],[0.46452,-1.1376]],[[493.13123,278.37506],[0,0],[4.2831,-4.279]],[[506.90663,264.36692],[-4.70208,4.20754],[-0.70654,-1.2999]],[506.20009,261.71054]],&quot;closed&quot;:true,&quot;fillColor&quot;:[0,0,0,1]}],&quot;index&quot;:null}" fill="#ffffff" stroke="none" stroke-width="0.5"/><path d="M406.17166,225.77056c-0.43804,0.97842 -1.13127,1.93552 -1.77828,2.86651c0.07343,-0.9569 -0.02746,-1.94232 -0.4632,-3.0189c-0.78337,-1.93548 -1.76901,-1.71332 -2.83263,-3.22661c-0.67795,-0.96458 -1.06268,-2.11026 -1.75002,-3.06816c-1.22755,-1.71072 -2.85697,-3.08202 -4.27705,-4.63663c-2.70625,-2.9626 -5.18182,-5.72584 -8.68898,-7.63634c-3.50376,-0.01816 -5.32157,0.7575 -8.2638,2.58967l-0.32689,0.15474c0,0 -0.45439,0.22781 -0.75635,0.68339c-5.42534,0.68377 -10.69688,3.55962 -13.30135,8.63677c-0.60851,1.18621 -0.87383,2.53663 -1.58494,3.66432c-3.62354,5.74625 -6.82069,11.13662 -3.93285,17.94526c0.47487,1.23811 0.49755,2.60438 0.89113,3.87069c0.42654,1.37238 1.61213,2.37945 2.27125,3.65652c0.47182,0.91416 0.59317,1.78237 0.69859,2.6145c-0.19871,0.22192 -0.2981,0.4206 -0.2981,0.4206l-0.54437,1.15202c-0.26326,0.35299 -0.58275,0.75316 -0.86764,1.08961c-0.1997,0.01792 -0.3308,0.05513 -0.3308,0.05513l-2.24199,0.76134c-3.08694,2.33776 -4.60775,5.09146 -6.56054,8.19774c-1.20254,-2.24851 -3.02832,-4.91343 -3.23282,-7.26224c-0.14261,-1.63795 -0.31253,-3.93767 -0.02607,-5.54503c0.26948,-1.51208 1.42646,-2.7586 1.77462,-4.25453c0.17523,-0.75293 -0.04307,-1.55145 0.02669,-2.32135c0.1528,-1.68624 0.84023,-3.29347 1.06465,-4.97168c0.08811,-0.65886 -0.14158,-1.34279 -0.02194,-1.99666c0.11505,-0.62874 0.58848,-1.15555 0.71192,-1.7827c0.49402,-2.50998 0.64438,-5.29387 1.07214,-7.86048c0.16368,-0.81813 0.86245,-4.34656 0.97287,-4.65264c0.24018,-0.66574 0.84535,-1.16215 1.08662,-1.82749c0.23289,-0.64223 0.05652,-1.3945 0.31237,-2.02794c1.01587,-2.51507 4.26233,-2.5466 6.26722,-3.39835c1.36703,-0.58076 2.6536,-1.43878 3.70385,-2.48903c0.78335,-0.78334 0.64069,-2.48247 1.67736,-2.87305c0.48356,-0.18219 1.05857,0.25858 1.549,0.09584c0.63013,-0.20909 1.01592,-0.8958 1.62903,-1.15055c1.91631,-0.79622 4.11984,-1.46586 6.10982,-2.02474c3.28602,-0.92288 4.8473,-3.50886 8.27933,-3.50886c1.23155,0.25308 3.62492,0.24595 4.68166,0.86789c0.51259,0.30167 0.73875,0.95729 1.22511,1.29966c2.10863,1.48435 4.70484,3.10357 6.94359,4.38661c0.68153,0.39059 3.55222,1.38352 3.81453,2.57456c0.13335,0.60546 -0.17051,1.24855 -0.06735,1.85987c0.31214,1.84964 1.48179,4.91867 2.32118,6.60139c0.63665,1.27629 1.4533,2.46062 2.20086,3.67529c0.41523,0.67465 1.26803,0.90841 0.86259,1.814z" data-paper-data="{&quot;noHover&quot;:false,&quot;origItem&quot;:[&quot;Path&quot;,{&quot;applyMatrix&quot;:true,&quot;segments&quot;:[[[259.68379,103.21359],[0,0],[0.5693,-1.27163]],[[258.47341,100.66959],[0.58305,0.94734],[-1.04972,-1.70561]],[[255.38559,95.51553],[0.89398,1.79215],[-1.17867,-2.36286]],[[252.13232,86.25572],[0.43831,2.59724],[-0.14486,-0.85841]],[[252.22833,83.64583],[0.18724,0.85018],[-0.36834,-1.67245]],[[246.87715,80.03575],[0.957,0.54847],[-3.14364,-1.80164]],[[237.13826,73.88337],[2.96092,2.08432],[-0.68294,-0.48075]],[[235.4204,72.05946],[0.71977,0.42361],[-1.48387,-0.87331]],[[228.8537,70.8431],[1.72933,0.35538],[-4.81922,0]],[[217.24171,75.77152],[4.6142,-1.2959],[-2.79431,0.78478]],[[208.67446,78.61262],[2.69086,-1.11804],[-0.86092,0.35771]],[[206.3906,80.22699],[0.88483,-0.29361],[-0.68866,0.22851]],[[204.21806,80.09135],[0.679,-0.25582],[-1.45568,0.54845]],[[201.86779,84.12305],[1.09997,-1.09996],[-1.47475,1.47475]],[[196.67445,87.61263],[1.91956,-0.8155],[-2.81525,1.19601]],[[187.8828,92.37456],[1.42648,-3.53164],[-0.35926,0.88947]],[[187.44606,95.21907],[0.32702,-0.90182],[-0.33879,0.93426]],[[185.9221,97.78153],[0.33725,-0.93482],[-0.15505,0.42979]],[[184.55906,104.30599],[0.22984,-1.14881],[-0.60066,3.60401]],[[183.05492,115.32805],[0.6937,-3.52449],[-0.17333,0.88063]],[[182.05492,117.82805],[0.16155,-0.88287],[-0.168,0.91815]],[[182.0851,120.62808],[0.12372,-0.92517],[-0.31513,2.35652]],[[180.58786,127.60163],[0.21456,-2.36779],[-0.09796,1.08109]],[[180.54897,130.85795],[0.24606,-1.05726],[-0.48889,2.10057]],[[178.05492,136.82806],[0.3784,-2.12325],[-0.40224,2.25704]],[[178.08786,144.60895],[-0.20024,-2.29998],[0.28716,3.29817]],[[182.6206,154.7994],[-1.68859,-3.15733],[2.74209,-4.3618]],[[191.83333,143.28865],[-4.33465,3.28266],[0,0]],[194.97986,142.21817],[[195.44404,142.1405],[-0.28042,0.02517],[0.40004,-0.47243]],[[196.6,140.68865],[-0.36967,0.49567],[0,0]],[197.36393,139.07061],[[197.78246,138.47996],[-0.27902,0.31163],[-0.14803,-1.16846]],[[196.79783,134.80537],[0.66253,1.28366],[-0.92554,-1.79324]],[[193.60237,129.66337],[0.59895,1.92707],[-0.55266,-1.77814]],[[192.34671,124.2202],[0.66682,1.73854],[-4.05508,-9.56063]],[[197.87338,98.97433],[-5.08813,8.06883],[0.99854,-1.58349]],[[200.10556,93.82088],[-0.85446,1.66566],[3.65718,-7.12928]],[[218.81825,81.67883],[-7.6182,0.96014],[0.42401,-0.63972]],[219.88198,80.71926],[[220.34168,80.502],[0,0],[4.13145,-2.57272]],[[231.96045,76.86859],[-4.91995,-0.0255],[4.92472,2.6827]],[[244.17972,87.60316],[-3.80008,-4.16005],[1.99407,2.18296]],[[250.19301,94.12352],[-1.72371,-2.40218],[0.96517,1.34508]],[[252.65345,98.43785],[-0.95198,-1.35445],[1.49352,2.12493]],[[256.63337,102.97558],[-1.10001,-2.71779],[0.61187,1.51172]],[[257.28488,107.22009],[0.10311,-1.34367],[0.90853,-1.30728]],[[259.68378,103.21362],[-0.61508,1.37389],[0,0]]],&quot;closed&quot;:true,&quot;fillColor&quot;:[0,0,0],&quot;strokeWidth&quot;:0.5}],&quot;index&quot;:null}" fill="#ffb900" stroke="none" stroke-width="0.25"/><path d="M381.30674,211.7797c1.29485,-0.7756 2.51368,-1.33255 4.20152,-1.35059c2.67126,1.54042 4.90657,4.33272 6.97985,6.60532c1.33841,1.46707 2.91063,2.75566 4.06118,4.37425c0.69227,0.97388 1.09242,2.14252 1.78422,3.11674c0.66249,0.93291 1.97319,1.40534 2.38986,2.47098c0.78556,2.00911 -0.41672,3.79904 -0.82153,5.62223c-0.12853,0.5789 0.17933,1.20891 0.02722,1.78207c-0.14898,0.56139 -0.70337,0.94965 -0.89668,1.49737c-0.85655,2.42689 -0.90304,5.26568 -2.60223,7.39055c-1.29434,1.61859 -2.90976,3.15167 -4.26794,4.73861c-1.47557,2.12046 -2.72876,2.16587 -4.72809,3.76664c-0.24034,0.19243 -0.33116,0.53755 -0.47818,0.81725c-0.22666,0.07418 -0.48086,0.19862 -0.69302,0.40623c-0.25358,-0.04583 -0.52589,-0.19578 -0.78281,-0.20728c-1.58098,-0.07076 -3.17299,0.00086 -4.75555,0.00086c-3.72397,0 -8.05935,0.64234 -11.68734,-0.18759c-0.57781,-0.13218 -1.05905,-0.56542 -1.6349,-0.70592c-0.47087,-0.11488 -1.01066,0.14491 -1.45471,-0.04936c-0.62377,-0.27291 -0.5639,-2.26282 -0.59598,-2.4007c-0.2254,-0.96868 -0.45244,-1.95827 -0.88885,-2.85197c-0.52531,-1.07575 -1.68656,-1.83432 -2.00082,-2.9895c-0.37743,-1.38737 -0.51101,-2.85178 -1.00808,-4.20093c-2.44468,-5.63719 0.72245,-10.06847 3.66116,-14.80803c0.7539,-1.21591 1.11524,-2.64578 1.73826,-3.93367c2.27301,-4.69867 7.86388,-6.88047 12.68198,-6.87459c0,0 1.78383,-0.00007 1.78383,-1.78045c0,-0.08702 -0.00616,-0.09859 -0.01425,-0.17731z" data-paper-data="{&quot;noHover&quot;:false,&quot;origItem&quot;:[&quot;Path&quot;,{&quot;applyMatrix&quot;:true,&quot;segments&quot;:[[[224.81605,83.60633],[0,0],[0.01136,0.11053]],[[224.83338,83.95526],[0,-0.12218],[0,2.5]],[[222.33338,86.45526],[0,0],[-6.76553,-0.00826]],[[204.56117,96.0897],[3.19174,-6.59782],[-0.87484,1.80844]],[[202.12668,101.60292],[1.05862,-1.70737],[-4.1265,6.65525]],[[196.98668,122.35704],[-3.4328,-7.91568],[0.69798,1.89445]],[[198.39769,128.2472],[-0.52997,-1.94813],[0.44127,1.62208]],[[201.20223,132.43854],[-0.73763,-1.51055],[0.6128,1.25492]],[[202.44622,136.43923],[-0.31651,-1.36021],[0.04505,0.19361]],[[203.27993,139.80772],[-0.87589,-0.38321],[0.62354,0.2728]],[[205.32059,139.87562],[-0.6612,-0.16132],[0.80859,0.19728]],[[207.61318,140.86495],[-0.81135,-0.18561],[5.09439,1.16537]],[[224.00005,141.12194],[-5.22916,0],[2.22222,0]],[[230.66672,141.12194],[-2.22,-0.09937],[0.36076,0.01615]],[[231.76434,141.41338],[-0.35608,-0.06435],[0.2979,-0.29152]],[[232.73576,140.84342],[-0.31827,0.10417],[0.20645,-0.39274]],[[233.40567,139.69634],[-0.33749,0.27021],[2.80744,-2.24779]],[[240.0319,134.41373],[-2.07198,2.97753],[1.90713,-2.22837]],[[246.01329,127.77112],[-1.8175,2.27281],[2.38599,-2.98371]],[[249.6588,117.41197],[-1.20276,3.40781],[0.27144,-0.76909]],[[250.91714,115.31361],[-0.20919,0.78829],[0.21359,-0.80483]],[[250.8785,112.81584],[-0.18049,0.81289],[0.56842,-2.5601]],[[252.03338,104.93503],[1.10307,2.82116],[-0.58508,-1.49636]],[[248.67996,101.47276],[0.93025,1.30998],[-0.97142,-1.36798]],[[246.17901,97.10466],[0.97208,1.36751],[-1.61559,-2.27281]],[[240.48702,90.97411],[1.87937,2.06005],[-2.91129,-3.19117]],[[230.70629,81.70868],[3.75095,2.16305],[-2.37005,0.02533]],[[224.81607,83.60634],[1.81822,-1.08908],[0,0]]],&quot;closed&quot;:true,&quot;fillColor&quot;:[0,0,0],&quot;strokeWidth&quot;:0.5}],&quot;index&quot;:null}" fill="#ffffff" stroke="none" stroke-width="0.25"/><path d="M425.24096,233.39876c0,0 -0.18442,-0.07385 -0.45259,-0.11068c-0.23807,-0.4626 -0.65819,-0.68896 -1.00436,-0.79713c-1.06065,-0.99985 -2.17407,-1.8624 -3.3342,-2.70721c0.00002,-0.00025 0.00003,-0.00037 0.00003,-0.00037c0.23136,-3.40553 1.47993,-5.61341 2.92598,-8.67535c0.4001,-0.84719 0.77797,-1.71664 1.17092,-2.56716c0.17741,-0.38399 0.41803,-0.74489 0.55331,-1.14567c0.0366,-0.10842 -0.06443,-0.3801 -0.02178,-0.27391c0.76717,1.90999 0.58203,2.88745 -0.3657,4.66354l-0.00416,0.05483l-0.01692,-0.00729l-0.68984,1.61575c-0.1024,0.22471 -0.15753,0.46943 -0.15753,0.73249c0,0.98328 0.79828,1.76551 1.78156,1.76551c0.3207,0 0.55082,-0.07744 0.81072,-0.22584l2.60569,-1.42948c0.73694,-0.26618 1.49421,-0.6133 2.35689,-1.16204c0.30786,-0.19582 0.43158,-0.61911 0.74982,-0.79753c0.26713,-0.14975 0.03381,0.47726 -0.11243,0.88139l-1.25944,0.90048c-0.46228,0.32159 -0.75932,0.8765 -0.75932,1.48231c0,0.92415 0.63771,1.66527 1.53874,1.7533l2.0453,0.23235c0.90411,0.26438 3.43248,-0.24196 2.83126,0.47204c-1.57639,1.87212 -3.6748,2.02654 -5.71965,3.1185c-1.64947,0.88083 -2.80691,1.70824 -3.71896,2.92755c-0.00131,-0.0005 -0.00266,-0.00098 -0.00398,-0.00148l-1.74936,-0.69893z" data-paper-data="{&quot;noHover&quot;:false,&quot;origItem&quot;:[&quot;Path&quot;,{&quot;applyMatrix&quot;:true,&quot;segments&quot;:[[286.52852,113.8674],[[288.97445,114.84577],[0,0],[0.00185,0.00069]],[[288.98001,114.84785],[-0.00185,-0.00069],[1.28069,-1.71215]],[[294.17506,110.73979],[-2.31618,1.23685],[2.87135,-1.53332]],[[302.17727,106.39235],[-2.21356,2.62881],[0.84422,-1.00259]],[[298.29588,105.76278],[1.26953,0.37124],[0,0]],[[295.42061,105.4433],[0,0],[-1.2652,-0.12362]],[[293.16671,102.95526],[0,1.29767],[0,-0.85068]],[[294.24072,100.90156],[-0.64913,0.45157],[0,0]],[[296.00976,99.63796],[0,0],[0.20534,-0.56748]],[[296.17184,98.40579],[0.37509,-0.21028],[-0.44689,0.25053]],[[295.11807,99.52466],[0.43228,-0.27496],[-1.21137,0.77052]],[[291.82693,101.17013],[1.03479,-0.37376],[0,0]],[[288.23786,103.1278],[0,0],[-0.36495,0.20838]],[[287.00004,103.45526],[0.45033,0],[-1.38071,0]],[[284.50004,100.95526],[0,1.38071],[0,-0.36938]],[[284.72395,99.91966],[-0.1438,0.31553],[0,0]],[285.70218,97.63713],[285.72598,97.64733],[[285.7321,97.57006],[0,0],[1.33079,-2.49397]],[[286.26222,91.01058],[1.07725,2.68198],[-0.05989,-0.14911]],[[286.33066,91.48775],[0.05139,-0.15224],[-0.18996,0.56278]],[[285.55902,93.09391],[0.24913,-0.5392],[-0.55179,1.19428]],[[283.92804,96.68794],[0.56181,-1.18961],[-2.03053,4.29955]],[[279.826,108.81368],[0.32487,-4.782],[0,0]],[[279.82596,108.81419],[0.00003,-0.00034],[1.62904,1.18628]],[[284.49163,112.5975],[-1.48936,-1.40398],[0.48609,0.15189]],[[285.89545,113.7131],[-0.33429,-0.64959],[0.37657,0.05172]],[286.52851,113.86742]],&quot;closed&quot;:true,&quot;fillColor&quot;:[0,0,0],&quot;strokeWidth&quot;:0.5}],&quot;index&quot;:null}" fill="#ffffff" stroke="none" stroke-width="0.25"/><path d="M392.28452,352.92266c0.04992,-0.01265 0.07793,-0.02216 0.07793,-0.02216c2.04832,-0.70947 4.33928,-1.00856 6.4817,-1.37837c1.62845,-0.28109 3.65667,0.06023 5.30875,0.02718c0.27281,-0.00545 0.61602,-0.22853 0.81813,-0.0452c0.27401,0.24854 0.87379,3.17232 0.82973,3.59795c-0.14169,1.36874 -3.8632,1.45087 -4.22679,1.50046c-1.03093,0.14062 -3.83571,0.8906 -4.90071,0.44079c-1.2282,-0.51874 -2.03089,-1.76929 -3.07206,-2.60208c-0.54919,-0.37083 -1.00336,-0.91919 -1.31667,-1.5186z" data-paper-data="{&quot;noHover&quot;:false,&quot;origItem&quot;:[&quot;Path&quot;,{&quot;applyMatrix&quot;:true,&quot;segments&quot;:[[[240.28126,281.75781],[0,0],[0.43994,0.84168]],[[242.1311,283.87893],[-0.77118,-0.52071],[1.462,1.16938]],[[246.42756,287.49619],[-1.72462,-0.72841],[1.49547,0.63162]],[[253.23943,286.88141],[-1.44761,0.19746],[0.51056,-0.06964]],[[259.16198,284.80224],[-0.19896,1.92197],[0.06187,-0.59767]],[[258.00131,279.77725],[0.38476,0.349],[-0.2838,-0.25743]],[[256.85371,279.8431],[0.38308,-0.00766],[-2.31983,0.04639]],[[249.44681,279.8311],[2.28666,-0.39471],[-3.00837,0.51929]],[[240.39063,281.72697],[2.87624,-0.99624],[0,0]],[[240.28127,281.75781],[0.0701,-0.01775],[0,0]]],&quot;closed&quot;:true,&quot;fillColor&quot;:[0,0,0],&quot;strokeWidth&quot;:0.5}],&quot;index&quot;:null}" fill="#ffffff" stroke="none" stroke-width="0.25"/><path d="M374.18618,352.87282c1.0559,0.40142 3.4307,1.81666 2.0509,3.29332c-0.35995,0.38522 -0.98718,0.43784 -1.41955,0.73951c-0.49555,0.34575 -0.82745,0.96931 -1.37975,1.21442c-2.72383,1.20884 -2.76584,-2.52306 -2.73722,-4.48561c1.04422,-0.4518 2.61355,-1.09318 3.48561,-0.76164z" data-paper-data="{&quot;noHover&quot;:false,&quot;origItem&quot;:[&quot;Path&quot;,{&quot;applyMatrix&quot;:true,&quot;segments&quot;:[[[209.96622,282.77458],[1.46629,-0.63441],[-0.04019,2.75579]],[[213.77252,288.99618],[-3.82477,1.69744],[0.77553,-0.34418]],[[215.67283,287.30267],[-0.69585,0.48549],[0.60714,-0.4236]],[[217.64993,286.29093],[-0.50544,0.54092],[1.9375,-2.07351]],[[214.80947,281.72696],[1.48269,0.56367],[-1.22455,-0.46554]]],&quot;closed&quot;:true,&quot;fillColor&quot;:[0,0,0],&quot;strokeWidth&quot;:0.5}],&quot;index&quot;:null}" fill="#ffffff" stroke="none" stroke-width="0.25"/><path d="M348.49765,300.06717c-0.26877,-1.65731 -0.07378,-3.65624 0.0047,-5.43651c2.68848,-0.14745 5.27312,0.17958 7.34325,2.0791l0.15175,0.15833c0,0 0.21313,0.21627 0.54936,0.37919l0.21213,0.84179c1.0497,1.37654 -0.46594,1.64938 -1.85592,2.85467c-0.31563,0.27371 -0.68929,0.50781 -0.98562,0.79989c0.02914,-0.42761 -0.18665,-0.79058 -0.52596,-1.13402l-0.48834,-0.96506c-0.28548,-0.60221 -0.93809,-1.04634 -1.64882,-1.04634c-0.92415,0 -1.6185,0.67817 -1.70653,1.57918l-0.24674,1.77119c-0.32545,-0.7684 -0.79084,-1.80498 -0.80324,-1.88143z" data-paper-data="{&quot;noHover&quot;:false,&quot;origItem&quot;:[&quot;Path&quot;,{&quot;applyMatrix&quot;:true,&quot;segments&quot;:[[[178.79326,207.5092],[0,0],[0.0174,0.10734]],[[179.90923,210.13404],[-0.45699,-1.07898],[0,0]],[[180.17866,207.70916],[0,0],[0.12362,-1.2652]],[[182.6667,205.45526],[-1.29767,0],[0.99801,0]],[[184.92699,206.88566],[-0.40086,-0.84561],[0,0]],[[185.60529,208.24228],[0,0],[0.47647,0.48225]],[[186.34126,209.83546],[0.04092,-0.60045],[0.41611,-0.41012]],[[187.70988,208.72078],[-0.44321,0.38433],[1.95179,-1.69247]],[[190.29752,204.75337],[1.47398,1.93292],[0,0]],[[190.00132,203.58204],[0,0],[-0.47214,-0.22878]],[189.23227,203.05636],[[189.02044,202.8367],[0,0],[-2.90686,-2.66729]],[[178.7917,199.92742],[3.77514,-0.20705],[-0.11019,2.49984]],[[178.79325,207.50919],[-0.37741,-2.32718],[0,0]]],&quot;closed&quot;:true,&quot;fillColor&quot;:[0,0,0],&quot;strokeWidth&quot;:0.5}],&quot;index&quot;:null}" fill="#ffffff" stroke="none" stroke-width="0.25"/><path d="M370.84026,347.84172c-0.1678,-8.0475 -1.65697,-16.01648 -1.66679,-24.07272c-0.38908,-3.5408 -0.83186,-7.01878 -1.18616,-10.54867c-0.19515,-1.94423 -0.66348,-4.90894 -0.30748,-6.87386c0.35024,-1.93318 4.40693,-1.71043 5.65085,-1.86684c6.46656,-0.81309 12.95934,-1.89278 19.51425,-1.88644c0.71251,-0.00525 1.42748,-0.0171 2.14001,-0.01461c0.47764,0.00167 1.09909,-0.31135 1.43419,0.02903c0.26127,0.26539 -0.3229,0.68592 -0.36525,1.05593c-0.08101,0.70753 0.00094,1.42516 0.00139,2.13732c0.00135,2.17923 -0.4348,4.41738 -0.22361,6.58773c0.42124,4.32903 2.77053,8.16285 3.09373,12.56729c0.46305,6.31045 -0.18058,12.68484 -0.90599,18.89333c-0.4389,0.99475 -0.90393,3.62864 -1.73508,4.2721c-0.84341,0.65294 -2.1349,0.11103 -3.20151,0.11537c-0.82414,0.00335 -1.96051,0.5297 -2.47281,-0.11588c-0.56695,-0.71445 -0.2415,-1.87995 -0.2866,-2.79091c-0.0999,-2.01799 -0.00088,-4.03905 -0.00088,-6.05951c0,-5.13349 0.23758,-10.16837 -0.7566,-15.21888c-0.16008,-0.81322 -0.02564,-1.71087 -0.42423,-2.43756c-0.40246,-0.73375 -1.22229,-1.1248 -1.83788,-1.69173c0,0 -1.35668,-1.13457 -2.49646,0.23316c-0.55906,0.67086 -0.49465,1.21861 -0.30447,1.67219c-0.24987,0.25229 -0.37694,0.50157 -0.37694,0.50157l0.39103,-0.17064c-2.77924,1.81583 -3.02576,2.69553 -3.82226,5.73471c-0.62877,2.39918 -2.18087,4.65246 -3.04557,6.96261c-0.81986,2.19034 -1.46027,4.40627 -2.35142,6.58175c-0.90953,2.22035 -1.51379,6.6523 -4.19271,7.30607c0.00216,-0.28553 -0.06126,-0.6055 -0.26476,-0.9019z" data-paper-data="{&quot;noHover&quot;:false,&quot;origItem&quot;:[&quot;Path&quot;,{&quot;applyMatrix&quot;:true,&quot;segments&quot;:[[[210.14491,274.56964],[0,0],[0.28575,0.41622]],[[210.51555,275.83547],[0.00304,-0.40095],[3.76171,-0.91802]],[[216.35702,265.66521],[-1.27715,3.1178],[1.25133,-3.05479]],[[219.65534,256.42122],[-1.15124,3.07566],[1.2142,-3.24389]],[[223.92041,246.63472],[-0.88291,3.3689],[1.11844,-4.26759]],[[229.34172,238.50192],[-3.90258,2.54976],[0,0]],[228.76398,238.83722],[[229.29029,238.13208],[-0.35087,0.35427],[-0.26705,-0.63691]],[[229.74616,235.68813],[-0.78502,0.94202],[1.60046,-1.92056]],[[233.26718,235.36804],[0,0],[0.86442,0.79607]],[[235.86043,237.75624],[-0.56513,-1.03033],[0.55969,1.02041]],[[236.46337,241.19525],[-0.22478,-1.14191],[1.39602,7.09188]],[[237.50005,262.62193],[0,-7.20838],[0,2.83711]],[[237.49522,271.13325],[-0.14029,-2.83364],[0.06333,1.27916]],[[237.86549,274.95754],[-0.79611,-1.00323],[0.71936,0.90652]],[[241.33339,275.12192],[-1.15725,0.00471],[1.49773,-0.0061]],[[245.82378,274.9625],[-1.18431,0.91685],[1.1671,-0.90353]],[[248.25374,268.96806],[-0.61629,1.39681],[1.01862,-8.71789]],[[249.50733,242.47922],[0.65022,8.86106],[-0.45383,-6.18467]],[[245.17872,224.8666],[0.5915,6.07879],[-0.29655,-3.04759]],[[245.50005,215.62192],[0.00189,3.06005],[-0.00062,-1]],[[245.50005,212.62192],[-0.11376,0.99351],[0.05948,-0.51955]],[[246.01329,211.1394],[0.36687,0.37266],[-0.47054,-0.47796]],[[244.00156,211.0998],[0.6707,0.00234],[-1.00052,-0.00349]],[[241.00006,211.12192],[1.0005,-0.00737],[-9.20434,-0.0089]],[[213.63886,213.76985],[9.08027,-1.14173],[-1.7467,0.21963]],[[205.71414,216.38486],[0.49181,-2.71456],[-0.49989,2.75912]],[[206.15329,226.02967],[-0.27402,-2.73006],[0.49751,4.95664]],[[207.82957,240.81699],[-0.54634,-4.97196],[0.01379,11.31249]],[[210.14493,274.56963],[-0.23562,-11.30021],[0,0]]],&quot;closed&quot;:true,&quot;fillColor&quot;:[0,0,0],&quot;strokeWidth&quot;:0.5}],&quot;index&quot;:null}" fill="#66ffd5" stroke="none" stroke-width="0.25"/><path d="M400.70984,253.55886c0,-0.37107 -0.07641,-0.66381 -0.19885,-0.89633c1.29607,-1.38988 2.7222,-2.9729 4.06902,-4.04643c0.47532,-0.37887 1.19829,-0.34419 1.67524,-0.72099c1.60571,-1.26855 2.05642,-2.74699 3.34464,-4.27675c3.01959,-3.58576 6.16057,-7.12803 9.18469,-10.73001c1.03459,0.75901 2.02066,1.53971 2.96238,2.48757l1.25508,0.43785c0.02815,0.05028 0.05865,0.09819 0.09073,0.1436l-0.26711,0.10655c-0.49775,0.65267 -1.23618,1.17872 -1.49298,1.95832c-0.79908,2.42582 0.11836,4.28724 -1.10381,6.69872c-1.56847,3.09477 -4.27359,5.43689 -5.90138,8.49012c-1.12279,2.10597 -2.09121,4.26153 -3.28726,6.35523c-1.58317,2.54942 -3.67118,4.86308 -5.71133,7.07205c-1.71445,1.85633 -4.0088,3.62263 -4.88779,6.09825c-0.94998,2.67559 -0.58045,6.76381 -0.58247,9.61893c-0.0041,5.82206 -0.21668,11.64004 -0.24459,17.46325c-0.30593,0.06799 -0.61273,0.13632 -0.91866,0.20431c-1.59773,-1.1332 -4.1157,-0.91256 -5.85618,-0.92306c-6.70371,0.00602 -13.3273,1.08939 -19.94093,1.91103c-1.38998,0.17269 -2.97647,0.29298 -4.42131,0.69266c0.00653,-0.07164 0.00649,-0.114 0.00649,-0.114c-0.02554,-5.59965 -2.39979,-10.90876 -2.86339,-16.50822c-0.28722,-3.46911 -0.00282,-7.09102 -0.00282,-10.57341c0,-0.35287 0.01135,-4.08814 -0.04935,-4.21402c-0.68296,-1.41665 -1.32876,-3.44139 -2.87067,-3.75095c-1.21109,-0.24313 -1.78785,1.65256 -2.52157,2.6463c-1.26351,1.7113 -1.14634,4.08083 -1.08999,6.07421c-2.54715,4.84209 -3.47656,11.62792 -2.8451,17.39778c-2.15193,-1.21483 -4.49762,-1.56906 -7.00221,-1.5511c0.03118,-0.46299 -0.11068,-0.84091 -0.11068,-0.84091c-1.26706,-3.21451 -0.8399,-7.33138 -0.8399,-10.77724c0,-1.71155 -0.44635,-4.11883 -0.04887,-5.76799c0.81497,-3.38133 3.65612,-5.69231 5.47025,-8.48876c1.78181,-2.74662 2.95808,-5.29897 5.36955,-7.40358c1.17859,0.91014 2.29053,-0.20257 2.29053,-0.20257c0.90517,-0.90898 1.76587,-1.87458 2.54576,-2.89331c0.06423,0.04824 0.13085,0.09638 0.19998,0.14435c0.65265,0.45299 1.58132,0.20828 2.34555,0.42533c2.74024,0.77827 4.90546,1.00468 7.82922,1.00561c2.84862,0.0009 5.71416,-0.00973 8.56278,-0.00973c0.54321,0 4.76831,0.05483 5.28201,-0.16826c0.08787,-0.03816 0.16949,-0.08553 0.24518,-0.14036l0.61623,0.00047c1.90055,0 4.18391,0.33031 6.04645,-0.02536c1.30788,-0.24976 2.60858,-0.69629 3.93995,-0.67646c0,0 1.72751,0.0477 1.72751,-1.73269z" data-paper-data="{&quot;noHover&quot;:false,&quot;origItem&quot;:[&quot;Path&quot;,{&quot;applyMatrix&quot;:true,&quot;segments&quot;:[[[252.10005,142.18859],[0,0],[0,2.5]],[[249.60005,144.68859],[0,0],[-1.86949,-0.02786]],[[244.07281,145.64348],[1.83652,-0.35071],[-2.61536,0.49944]],[[235.60005,145.68859],[2.66873,0],[0,0]],[[234.73719,145.68859],[0,0],[-0.10628,0.077]],[[234.39378,145.8859],[0.12339,-0.05359],[-0.72133,0.31327]],[[227.00005,146.12193],[0.76278,0],[-4,0]],[[215.00005,146.12193],[4,0.00127],[-4.10551,-0.0013]],[[204.01286,144.70157],[3.84782,1.09284],[-1.07312,-0.30478]],[[200.72018,144.1028],[0.91644,0.63609],[-0.09706,-0.06736]],[[200.43936,143.90014],[0.0902,0.06774],[-1.09511,1.43049]],[[196.86782,147.95636],[1.27104,-1.27638],[0,0]],[[193.65212,148.23908],[1.65497,1.27801],[-3.38615,2.95526]],[[186.11507,158.62152],[2.502,-3.85678],[-2.54738,3.92675]],[[178.43318,170.52964],[1.14437,-4.74803],[-0.55814,2.31573]],[[178.50005,178.62193],[0,-2.40334],[0,4.83865]],[[179.67421,193.74412],[-1.77919,-4.51378],[0,0]],[[179.82914,194.92417],[0.04379,-0.65013],[3.51692,-0.02523]],[[189.58193,197.1623],[-3.02172,-1.70586],[-0.8867,-8.10197]],[[193.56693,172.71422],[-3.57668,6.79922],[-0.07913,-2.79907]],[[195.0955,164.17421],[-1.77421,2.403],[1.03027,-1.3954]],[[198.73609,160.45623],[-1.7006,-0.3414],[2.16513,0.43466]],[[202.76652,165.71422],[-0.959,-1.98924],[0.08522,0.17676]],[[202.83339,171.62193],[0,-0.4955],[0,4.88993]],[[202.82766,186.45273],[-0.40331,-4.87128],[0.65099,7.86272]],[[206.83339,209.62193],[-0.03587,-7.86297],[0,0]],[[206.82422,209.78198],[0.00917,-0.10059],[2.02884,-0.56122]],[[213.02793,208.80733],[-1.9518,0.24248],[9.28679,-1.15374]],[[241.00005,206.12194],[-9.41327,0.00845],[2.44396,0.01475]],[[249.21576,207.42042],[-2.24351,-1.59122],[0.42958,-0.09546]],[[250.50452,207.13403],[-0.42958,0.09546],[0.0392,-8.17688]],[[250.83338,182.62194],[-0.00576,8.17527],[0.00282,-4.00913]],[[251.63871,169.13423],[-1.33395,3.75704],[1.23426,-3.47625]],[[258.49907,160.58998],[-2.40742,2.60664],[2.86476,-3.10182]],[[266.52099,150.67235],[-2.22307,3.57988],[1.67947,-2.93995]],[[271.13987,141.75588],[-1.5766,2.95718],[2.28574,-4.28732]],[[279.42954,129.83944],[-2.20243,4.34565],[1.71616,-3.38617]],[[280.9827,120.43754],[-1.12206,3.40631],[0.3606,-1.09471]],[[283.07949,117.68814],[-0.69893,0.91647],[0,0]],[[283.45451,117.53846],[0,0],[-0.04505,-0.06377]],[[283.32721,117.33694],[0.03953,0.0706],[0,0]],[[281.56562,116.72302],[0,0],[-1.32236,-1.33098]],[[277.40865,113.23288],[1.45276,1.06579],[-4.24642,5.05786]],[[264.58193,128.22876],[4.24008,-5.03509],[-1.8089,2.14807]],[[259.81336,134.30345],[2.25472,-1.78129],[-0.66973,0.52911]],[[257.46182,135.3167],[0.66744,-0.532],[-1.89119,1.50743]],[[251.81951,140.9286],[1.81993,-1.95165],[0.17193,0.32649]],[[252.10004,142.1886],[0,-0.52105],[0,0]]],&quot;closed&quot;:true,&quot;fillColor&quot;:[0,0,0],&quot;strokeWidth&quot;:0.5}],&quot;index&quot;:null}" fill="#9966ff" stroke="none" stroke-width="0.25"/><path d="M381.30674,211.7797c1.29485,-0.7756 2.51368,-1.33255 4.20152,-1.35059c2.67126,1.54042 4.90657,4.33272 6.97985,6.60532c1.33841,1.46707 2.91063,2.75566 4.06118,4.37425c0.69227,0.97388 1.09242,2.14252 1.78422,3.11674c0.66249,0.93291 1.97319,1.40534 2.38986,2.47098c0.78556,2.00911 2.43189,2.73081 2.02709,4.55399c-0.12853,0.5789 -0.53283,2.98929 -0.68493,3.56246c-0.14898,0.56139 1.43309,2.37397 1.23979,2.92168c-0.85655,2.42689 -0.90304,2.41707 -2.60224,4.54193c-0.41667,0.52106 -0.15448,1.74541 -0.61841,2.2534c-0.9772,1.07 -1.30426,4.25776 -2.22521,5.33383c-1.47557,2.12046 -3.44091,1.09764 -5.44025,2.69841c-0.24034,0.19243 -5.31625,-0.53068 -5.46327,-0.25099c-0.22666,0.07418 -0.48087,0.19863 -0.69302,0.40623c-0.25358,-0.04583 -0.52589,-0.19578 -0.78281,-0.20728c-1.58098,-0.07076 -3.17298,0.00086 -4.75554,0.00086c-3.72397,0 -8.05935,0.64234 -11.68734,-0.18759c-0.57781,-0.13218 -1.05906,-0.56542 -1.6349,-0.70592c-0.47087,-0.11488 -1.01065,0.14491 -1.45471,-0.04936c-0.62377,-0.27291 -0.5639,-2.26282 -0.59598,-2.40069c-0.2254,-0.96868 -0.45244,-1.95828 -0.88885,-2.85198c-0.52531,-1.07575 -1.68657,-1.83432 -2.00083,-2.98949c-0.37743,-1.38737 -0.51101,-2.85179 -1.00808,-4.20093c-2.44468,-5.63719 0.72245,-10.06847 3.66116,-14.80803c0.7539,-1.21591 1.11524,-2.64578 1.73827,-3.93366c2.27301,-4.69867 7.86388,-6.88048 12.68198,-6.87459c0,0 1.78382,-0.00007 1.78382,-1.78046c0,-0.08702 -0.00615,-0.09859 -0.01425,-0.17731z" data-paper-data="{&quot;noHover&quot;:false,&quot;origItem&quot;:[&quot;Path&quot;,{&quot;applyMatrix&quot;:true,&quot;segments&quot;:[[[224.81605,83.60633],[0,0],[0.01136,0.11053]],[[224.83338,83.95526],[0,-0.12218],[0,2.5]],[[222.33338,86.45526],[0,0],[-6.76553,-0.00826]],[[204.56117,96.0897],[3.19174,-6.59782],[-0.87484,1.80844]],[[202.12668,101.60292],[1.05862,-1.70737],[-4.1265,6.65525]],[[196.98668,122.35704],[-3.4328,-7.91568],[0.69798,1.89445]],[[198.39769,128.2472],[-0.52997,-1.94813],[0.44127,1.62208]],[[201.20223,132.43854],[-0.73763,-1.51055],[0.6128,1.25492]],[[202.44622,136.43923],[-0.31651,-1.36021],[0.04505,0.19361]],[[203.27993,139.80772],[-0.87589,-0.38321],[0.62354,0.2728]],[[205.32059,139.87562],[-0.6612,-0.16132],[0.80859,0.19728]],[[207.61318,140.86495],[-0.81135,-0.18561],[5.09439,1.16537]],[[224.00005,141.12194],[-5.22916,0],[2.22222,0]],[[230.66672,141.12194],[-2.22,-0.09937],[0.36076,0.01615]],[[231.76434,141.41338],[-0.35608,-0.06435],[0.2979,-0.29152]],[[232.73576,140.84342],[-0.31827,0.10417],[0.20645,-0.39274]],[[233.40567,139.69634],[-0.33749,0.27021],[2.80744,-2.24779]],[[240.0319,134.41373],[-2.07198,2.97753],[1.90713,-2.22837]],[[246.01329,127.77112],[-1.8175,2.27281],[2.38599,-2.98371]],[[249.6588,117.41197],[-1.20276,3.40781],[0.27144,-0.76909]],[[250.91714,115.31361],[-0.20919,0.78829],[0.21359,-0.80483]],[[250.8785,112.81584],[-0.18049,0.81289],[0.56842,-2.5601]],[[252.03338,104.93503],[1.10307,2.82116],[-0.58508,-1.49636]],[[248.67996,101.47276],[0.93025,1.30998],[-0.97142,-1.36798]],[[246.17901,97.10466],[0.97208,1.36751],[-1.61559,-2.27281]],[[240.48702,90.97411],[1.87937,2.06005],[-2.91129,-3.19117]],[[230.70629,81.70868],[3.75095,2.16305],[-2.37005,0.02533]],[[224.81607,83.60634],[1.81822,-1.08908],[0,0]]],&quot;closed&quot;:true,&quot;fillColor&quot;:[0,0,0],&quot;strokeWidth&quot;:0.5}],&quot;index&quot;:null}" fill="#ffffff" stroke="none" stroke-width="0.25"/></g></g></svg>