<svg version="1.1" xmlns="http://www.w3.org/2000/svg" xmlns:xlink="http://www.w3.org/1999/xlink" width="63.54513" height="76.27191" viewBox="0,0,63.54513,76.27191"><g transform="translate(-207.65965,-142.05493)"><g data-paper-data="{&quot;isPaintingLayer&quot;:true}" fill-rule="nonzero" stroke-linecap="round" stroke-linejoin="miter" stroke-miterlimit="10" stroke-dasharray="" stroke-dashoffset="0" style="mix-blend-mode: normal"><g><path d="M262.16705,142.76474c2.19792,-0.0038 4.6162,0.91564 6.33224,2.37459c1.46021,1.24238 2.8628,3.27567 2.6912,5.2241c-0.15831,1.76796 -2.3043,2.96855 -3.64104,4.27426c-1.06572,1.04925 -2.06748,3.45107 -3.64104,3.16612c-2.00669,-0.3812 -2.79695,-3.13699 -4.43257,-4.43257c-1.19743,-0.94984 -4.11532,-0.57307 -4.11595,-2.05798c0.07852,-2.48414 2.78618,-4.15395 4.27426,-6.01563c0.74467,-0.93147 1.3361,-2.531 2.53289,-2.53289z" fill="#ff9400" stroke="none" stroke-width="1"/><path d="M257.41788,149.25528c2.1403,-0.26595 4.38001,0.89918 6.09098,2.21502c1.35763,1.04355 3.15662,2.84761 2.77415,4.59214c-0.62689,2.84571 -3.20981,5.2184 -5.54071,7.12377c-0.57307,0.47238 -1.10181,-0.87448 -1.74137,-1.26645c-0.86435,-0.71554 -1.73313,-1.44565 -2.76655,-2.05671c-1.68438,-0.99733 -4.27679,-1.09674 -5.14874,-2.85077c-0.66805,-1.35067 0.67122,-2.91663 1.58306,-3.95765c1.27215,-1.63435 2.80075,-3.55935 4.74918,-3.79934z" fill="#b5b5b5" stroke="none" stroke-width="1"/><path d="M213.56713,201.65455c2.03771,-1.42159 5.01133,-4.2179 6.96546,-2.6912c2.79062,2.13206 3.65307,6.88188 2.6912,10.28989c-0.68641,2.43285 -4.4161,2.61901 -6.64885,3.95765c-1.40576,0.71808 -2.84887,1.37093 -4.27426,2.21628c-0.9568,0.56547 -1.7382,1.30064 -2.84951,1.74137c-0.31345,0.12348 -1.15373,0.69465 -0.94984,-0.31661c0.81813,-4.033 2.17132,-7.98179 3.48273,-11.87295c0.37677,-1.11954 0.58447,-2.61015 1.58306,-3.32442z" fill="#ffffcc" stroke="none" stroke-width="1"/><path d="M225.59838,186.61549c8.07867,-9.84473 16.20293,-19.71605 24.37911,-29.60321c2.05164,-2.47084 1.01316,-1.74137 1.89967,-2.05798c1.20313,-0.47492 2.62788,-0.4116 3.95765,0c1.48808,0.44326 2.88117,1.32977 3.95765,2.53289c1.04482,1.1398 2.02632,2.65954 2.21628,4.27426c0.09498,0.9815 0.60156,0.06332 -1.42475,2.6912c-8.13693,10.1949 -16.60439,20.25113 -24.85403,30.39474c-3.46943,4.26603 -6.82932,8.50419 -10.28989,12.66447c-0.83396,1.12081 -0.74151,1.71034 -1.42475,1.74137c-0.66488,0.02216 -0.90108,-1.00556 -1.42475,-1.42475c-0.53697,-0.42933 -1.06445,-0.99036 -1.74137,-1.10814c-0.64272,-0.11145 -1.24998,0.42299 -1.89967,0.47492c-0.68515,0.05509 -1.70527,0.41666 -2.05798,-0.15831c-0.43819,-0.72188 0.27609,-1.83951 0.31661,-2.84951c0.06269,-0.46985 0.34891,-1.06255 0,-1.58306c-0.33498,-0.44072 -1.09358,-0.26975 -1.58306,-0.47492c-0.70035,-0.30015 -2.90776,0.51354 -2.05798,-0.79153c3.38585,-5.25132 7.98558,-9.80674 12.03125,-14.72245z" fill="#ffff00" stroke="#000000" stroke-width="2"/><path d="M252.35209,163.81943l-34.35239,42.90091" fill="none" stroke="#000000" stroke-width="2"/><path d="M208.65965,216.69361c0,0 0.09055,-0.53127 0.15831,-0.79153c0.24886,-0.953 0.50848,-1.906 0.79153,-2.84951c0.19187,-0.63892 0.43249,-1.26391 0.63322,-1.89967c0.43186,-1.36776 0.86752,-2.73869 1.26645,-4.11595c0.1811,-0.62626 0.28748,-1.27531 0.47492,-1.89967c0.28748,-0.95807 0.94984,-2.84951 0.94984,-2.84951" fill="none" stroke="#000000" stroke-width="2"/><path d="M208.81795,217.32684c0,0 0.21973,0.04306 0.31661,0c0.38817,-0.17287 0.75037,-0.40336 1.10814,-0.63322c0.3812,-0.24506 0.72694,-0.54647 1.10814,-0.79153c0.35777,-0.22986 0.73771,-0.42489 1.10814,-0.63322c1.31647,-0.74024 2.60635,-1.54063 3.95765,-2.21628c0.972,-0.48632 2.02632,-0.80039 3.00781,-1.26645c1.12904,-0.53634 2.22198,-1.1531 3.32442,-1.74137c0.47872,-0.25519 1.42475,-0.79153 1.42475,-0.79153" fill="none" stroke="#000000" stroke-width="2"/><path d="M208.65965,216.85192l0.18997,0.18997" fill="none" stroke="#000000" stroke-width="2"/><path d="M251.87717,154.47938c0,0 2.45627,-3.29466 3.79934,-4.90748c0.29318,-0.35967 0.39956,-0.62689 0.79153,-0.63322c1.28101,-0.02343 2.62091,0.07472 3.79934,0.63322c1.63372,0.77697 3.14396,1.99149 4.27426,3.48273c0.9359,1.06382 1.14993,2.60888 1.74137,3.95765c0.14817,0.33688 0.29508,-0.04306 0.15831,0.15831c-0.51608,0.7814 -1.1417,1.44502 -1.74137,2.21628c-0.87638,1.07395 -2.6912,3.32442 -2.6912,3.32442" fill="none" stroke="#000000" stroke-width="2"/><path d="M256.63135,148.77701c0,0 2.61287,-3.64066 4.0993,-5.23239c0.33529,-0.41527 0.59453,-0.90184 1.09978,-0.93318c1.12714,-0.10663 2.31165,-0.08466 3.36609,0.39994c1.70571,0.7845 3.38939,1.79171 4.66585,3.16612c0.93521,1.01645 1.37315,2.37624 1.63308,3.69936c0.15394,0.43927 -0.24063,0.87853 -0.46662,1.26645c-0.4879,0.83782 -1.00113,1.66171 -1.59971,2.36623c-1.03716,1.30913 -3.29941,3.66605 -3.29941,3.66605" fill="none" stroke="#000000" stroke-width="2.10526"/><path d="M258.0511,152.57971c0,0 -0.10575,-0.03926 0,0c0.42173,0.15831 0.86878,0.26279 1.26645,0.47492c0.4002,0.2134 0.75164,0.51164 1.10814,0.79153c0.38247,0.30015 0.75227,0.61929 1.10814,0.94984c0.38247,0.35524 0.79976,0.68705 1.10814,1.10814c0.27862,0.37993 0.44199,0.83586 0.63322,1.26645c0.23049,0.51861 0.63322,1.58306 0.63322,1.58306" fill="none" stroke="#000000" stroke-width="2"/><path d="M211.82577,211.78613c0.40716,0.03483 0.81369,0.2191 1.11891,0.48695c0.33751,0.29698 0.56104,0.69591 0.7491,1.09611c0.12538,0.26785 0.22796,0.62689 0.09498,0.94984c-0.04179,0.17857 -0.21213,0.12791 -0.53824,0.31661c-1.30761,0.7567 -3.14269,2.63801 -3.95765,2.21628c-0.7472,-0.42173 -0.01773,-2.44108 0.15831,-3.64104c0.07155,-0.44199 0.08169,-1.02582 0.47492,-1.26645c0.53761,-0.31788 1.29114,-0.2134 1.89967,-0.15831z" fill="#000000" stroke="none" stroke-width="1"/></g></g></g></svg>