<svg version="1.1" xmlns="http://www.w3.org/2000/svg" xmlns:xlink="http://www.w3.org/1999/xlink" width="232.93467" height="266.58968" viewBox="0,0,232.93467,266.58968"><g transform="translate(-116.39175,-9.16765)"><g data-paper-data="{&quot;isPaintingLayer&quot;:true}" fill-rule="nonzero" stroke="none" stroke-linecap="butt" stroke-linejoin="miter" stroke-miterlimit="10" stroke-dasharray="" stroke-dashoffset="0" style="mix-blend-mode: normal"><path d="M255.29667,85.07703l0.20879,-1.668c1.5254,-3.59963 1.50553,-8.02025 1.42599,-12.41011c-0.07067,0.13883 -0.13355,0.28101 -0.18539,0.42792c-1.63689,4.63786 -1.91158,9.49744 -5.08466,13.5928c-2.06945,2.67094 -4.80502,5.22356 -7.02782,7.81265c-1.36089,1.86564 -2.71355,2.99398 -4.16845,4.00824c1.12064,0.02368 2.20889,-0.02237 3.18652,-0.22857c1.10122,-0.23226 2.20478,-0.49137 3.31334,-0.71097c0.27121,-0.66418 0.70154,-1.09452 0.70154,-1.09452c2.50065,-2.49826 5.29738,-5.72199 8.04264,-8.17853c-0.41251,-0.75893 -0.41251,-1.5509 -0.41251,-1.5509zM262.98439,52.80035c0.66476,-1.48486 -0.73252,-1.86439 -1.41334,-2.97058c-1.22574,-1.99161 -2.56171,-3.92564 -3.60559,-6.0183c-1.37631,-2.75907 -3.28698,-7.77976 -3.79878,-10.81251c-0.16915,-1.00235 0.33075,-2.05478 0.11211,-3.04752c-0.4301,-1.95289 -5.13101,-3.57499 -6.24848,-4.21543c-3.67077,-2.10374 -7.91451,-4.7502 -11.37193,-7.18402c-0.79746,-0.56136 -1.16545,-1.63511 -2.00591,-2.12975c-1.73269,-1.01975 -5.64851,-1.00535 -7.66782,-1.42032c-5.62732,0 -8.17119,4.24163 -13.55911,5.75483c-3.26287,0.91637 -6.86176,2.01199 -10.00382,3.3175c-1.00528,0.41769 -1.63362,1.54223 -2.66682,1.88507c-0.80414,0.26683 -1.74398,-0.4571 -2.53684,-0.15838c-1.69977,0.64042 -1.45995,3.42334 -2.74437,4.70774c-1.72204,1.72204 -3.82273,3.12248 -6.06417,4.07472c-3.28732,1.39656 -8.60018,1.43659 -10.26585,5.56042c-0.4195,1.03862 -0.12812,2.26844 -0.50997,3.32148c-0.3956,1.09092 -1.3857,1.90057 -1.7795,2.99214c-0.18105,0.50186 -1.32322,6.27705 -1.5916,7.61849c-0.70138,4.20834 -0.94634,8.75478 -1.75636,12.87026c-0.20239,1.0283 -0.97904,1.88829 -1.16768,2.91921c-0.19617,1.07211 0.17971,2.18924 0.03524,3.26954c-0.36797,2.75167 -1.49776,5.37806 -1.7483,8.14289c-0.11439,1.26237 0.24191,2.5678 -0.04541,3.80235c-0.57087,2.4528 -2.47041,4.49191 -2.91226,6.97119c-0.46969,2.63551 -0.19535,6.39996 0.03846,9.08561c0.33531,3.85121 3.32106,8.21245 5.2928,11.89921c3.20189,-5.0932 5.69605,-9.60779 10.75754,-13.4409l3.67415,-1.24998c0,0 0.21457,-0.0613 0.54201,-0.09069c0.46712,-0.55165 0.91814,-1.11651 1.34979,-1.6953l0.89203,-1.88936c0,0 0.1629,-0.32581 0.48871,-0.68969c-0.17285,-1.36439 -0.37611,-2.79185 -1.14973,-4.29075c-1.08074,-2.09393 -3.0319,-3.75402 -3.73128,-6.00422c-0.64533,-2.0763 -0.68758,-4.32583 -1.46621,-6.35589c-4.73504,-11.16378 0.51208,-20.05732 6.45339,-29.47915c1.16598,-1.84901 1.60874,-4.07263 2.60648,-6.01759c4.27042,-8.32473 12.95484,-13.05692 21.85047,-14.17805c0.49511,-0.74699 1.2421,-1.12047 1.2421,-1.12047l0.53678,-0.25369c4.82422,-3.00412 7.82209,-4.27244 13.56703,-4.24267c5.75051,3.13254 9.83094,7.67695 14.26822,12.53456c2.32844,2.549 5.00887,4.80872 7.02161,7.61371c1.12701,1.57063 1.7614,3.4562 2.87301,5.03777c1.74396,2.48124 3.36282,2.12511 4.64728,5.29863c0.71447,1.76521 0.88116,3.38726 0.76076,4.95624c1.06087,-1.52649 2.08293,-3.07402 2.80115,-4.67828zM168.55596,117.20619c-2.20378,-4.9716 -6.05816,-9.99208 -6.65964,-15.49397c-0.33578,-3.07144 -0.51427,-7.76671 0.03846,-10.76499c0.46078,-2.49949 2.36042,-4.56316 2.92615,-7.04101c0.23773,-1.04123 -0.14241,-2.14013 -0.04541,-3.20373c0.122,-1.33774 1.68396,-7.67223 1.75475,-8.20466c0.16414,-1.23472 -0.18629,-2.51083 0.03524,-3.73655c0.1864,-1.03132 0.95867,-1.89223 1.16768,-2.91921c0.82621,-4.05935 1.05081,-8.64353 1.74669,-12.81874c0.4164,-2.08272 1.46307,-7.46201 1.91145,-8.72905c0.37002,-1.0456 1.34361,-1.80423 1.72355,-2.84626c0.42738,-1.17214 0.10914,-2.56407 0.65771,-3.68462c2.79444,-5.70817 7.95815,-6.36256 13.08779,-8.45175c1.64375,-0.66946 3.18997,-1.67637 4.44497,-2.93137c1.69671,-1.69671 2.17114,-4.62367 4.26174,-5.80139c0.95995,-0.54079 2.2568,0.19143 3.30157,-0.15838c0.8141,-0.27257 1.21177,-1.28695 2.00391,-1.61799c1.52632,-0.63786 3.26483,-0.63337 4.80819,-1.22882c1.08006,-0.41669 1.90748,-1.3508 2.98367,-1.77734c1.96138,-0.77737 4.23389,-0.66919 6.12009,-1.61448c2.02345,-1.01407 3.33527,-3.16908 5.37638,-4.14714c2.27684,-1.09102 4.95429,-0.84282 7.35907,-0.84282c2.78995,0.54538 7.35518,0.75116 9.84741,2.08274c1.08253,0.57839 1.65756,1.83962 2.6648,2.54097c3.33093,2.31937 7.26622,4.80701 10.81404,6.82816c3.3361,1.90053 7.51666,3.36677 8.93139,7.46139c0.43108,1.24768 -0.1022,2.65602 0.11211,3.95857c0.42312,2.57175 2.04614,6.72224 3.20731,9.03808c2.10322,4.19465 6.96292,7.92957 5.49021,13.19707c-0.94629,3.38461 -4.03794,6.58838 -5.90886,9.5689c-0.74824,5.86837 0.26962,12.05018 -0.74024,17.82871c0.72761,-1.16282 1.38071,-2.40303 2.253,-3.43887c5.16428,-6.1326 10.45763,-12.09888 15.61887,-18.27612c0.05719,-0.42891 0.23393,-0.89703 0.5896,-1.39496c0.05527,-0.07737 0.11126,-0.15043 0.16785,-0.21936c0.04403,-0.05543 0.09095,-0.11095 0.14081,-0.16592c0.62422,-5.93729 2.68313,-10.04782 5.26468,-15.51027c0.45305,-0.95863 2.99924,-7.10954 4.2006,-7.94002c5.47154,-3.7824 7.77554,-1.70714 10.19493,4.47632c0.5997,1.53268 0.70681,2.81532 0.52501,3.9958c3.67764,-2.32839 8.60329,-2.52182 10.40261,3.11846c0.35081,1.09964 0.0261,2.23631 -0.3834,3.37761c3.45977,-0.35575 7.58692,3.54076 7.46431,7.32915c-0.05592,1.72764 -1.58995,3.10219 -2.69965,4.42751c-4.16812,4.97798 -12.52135,3.96673 -15.03928,10.46654l-1.00821,1.30348c0,0 -2.06418,2.06418 -4.12837,0c-0.02811,-0.02811 -0.05546,-0.05622 -0.08206,-0.08433c-0.34101,0.56826 -0.85215,0.89346 -1.32551,1.07957c-1.55775,2.36687 -0.27024,5.0358 -1.10168,8.19721c-0.37528,1.4269 -1.11226,2.73603 -1.76648,4.05848c-2.56845,5.19186 -7.1117,9.02621 -9.78167,14.10977c-1.85437,3.53067 -3.50525,7.10818 -5.50498,10.60667c-2.84433,4.52624 -6.46318,8.61568 -10.09432,12.55145c-2.18472,2.368 -5.67683,4.77122 -6.77992,7.9275c-1.30285,3.72786 -0.61949,9.81292 -0.61654,13.83192c0.00754,10.25448 -0.38924,20.48907 -0.38924,30.74897c0,0 0,2.34077 -2.09608,2.83017c-0.50891,0.30666 -0.9683,0.40875 -0.9683,0.40875c-0.92947,0.20655 -1.85896,0.4131 -2.78845,0.61965c0.0006,0.1432 0.00497,0.28439 0.01443,0.42293c0.31205,4.5707 -0.84216,9.2147 -0.40324,13.72648c0.6907,7.09993 4.52146,13.41007 5.06547,20.69217c0.82145,10.99602 -0.22194,22.08771 -1.65003,32.90275c-0.59881,1.43046 -1.18453,3.47461 -1.9441,5.40341c1.04657,-0.04048 2.09266,-0.05826 3.13555,-0.05605c2.20542,0.00467 6.44033,-0.30381 8.28907,1.25877c1.22541,1.03573 1.54784,2.82482 2.09905,4.33166c2.10651,5.75865 1.18101,11.3293 -5.3487,13.51654c-3.32737,1.11456 -8.47004,1.40592 -12.04552,1.32746c-1.29601,-0.02844 -2.67706,0.30465 -3.88549,-0.16456c-0.64728,-0.25133 -5.78066,-4.41411 -6.65992,-5.11765c-1.92121,-1.53151 -3.45066,-3.63908 -4.42568,-5.89428l-0.20879,-3.41953c0,0 0,-0.38664 0.14071,-0.87849c-0.50294,-0.27999 -0.93235,-0.59758 -1.26803,-0.95354c-2.40336,-2.54849 -1.90696,-9.35343 -1.90866,-12.45261c-0.00395,-7.20801 0.291,-14.48292 0.00216,-21.68471c-0.07867,-1.96136 -0.04181,-4.89622 -0.58281,-7.38455l-0.01291,0.01732c-4.15467,2.42753 -3.30142,4.95455 -5.09164,9.1836c-2.78619,6.58185 -5.04516,13.23563 -7.77073,19.81779c-1.07319,2.59174 -1.12364,5.58152 -2.46014,8.0478c-0.55515,1.02442 -1.62212,2.26791 -2.86985,3.46052c1.07399,0.398 2.09841,0.94472 3.01636,1.57205c1.22239,0.83538 2.86256,1.25566 3.67653,2.49242c3.43273,5.21579 -0.31565,9.51148 -4.22272,12.25214c-1.23116,0.86361 -2.18909,2.22889 -3.61945,2.69325c-5.69146,1.84766 -10.33109,-1.5055 -11.98117,-6.75468c-0.33266,-1.05826 -0.03384,-4.17948 0.07171,-5.58597l-1.31748,-1.50698c0,0 -1.75152,-2.33536 0.58384,-4.08689l0.00001,-0.00005c0.3805,-0.28537 0.74549,-0.46225 1.08994,-0.55843c0.09067,-0.59016 0.29004,-1.03849 0.54764,-1.37866l-0.9759,-0.0869c0,-13.90817 -2.73872,-27.58567 -2.72013,-41.48589c-0.82205,-7.30998 -1.98553,-14.47313 -2.33731,-21.83685c-0.0525,-1.09889 0.03459,-8.48442 0.13674,-8.79674c0.50501,-1.54419 1.3089,-2.71735 2.31188,-3.61848c-1.28346,-0.80885 -1.28346,-2.49673 -1.28346,-2.49673c0.03001,-5.48227 -1.94862,-10.4097 -3.04882,-15.73494c-1.69308,-8.1949 -1.62663,-16.19149 -1.62211,-24.47915c-3.73613,8.67274 -5.25761,19.9661 -3.18315,29.07169l-0.58835,1.54593l0.5051,2.04766c0.42994,1.35937 1.54417,2.67524 1.28983,4.07812c-0.2862,1.57861 -1.68422,2.75008 -2.74584,3.95295c-2.18888,2.48016 -8.13979,8.03553 -12.00905,6.38379c-0.16168,-0.06901 -0.31624,-0.13772 -0.46392,-0.2061c-0.25049,0.29616 -0.55119,0.53641 -0.92484,0.69547c-1.78359,0.7592 -3.92839,-0.55698 -5.61542,-1.51172c-6.06926,-3.43476 -4.28858,-13.51287 -4.28858,-19.07743c0,0 0,-0.13802 0.03001,-0.35404c-0.00579,-0.04388 -0.01098,-0.08851 -0.01552,-0.13393c-0.15506,-1.55057 0.60036,-2.3562 1.33841,-2.77036c-2.2229,-6.15637 -1.74212,-13.17992 -1.74212,-19.70607c0,-3.28592 -0.65628,-7.61539 0.07809,-10.79061c1.08792,-4.70381 4.063,-8.19555 6.89684,-11.81036c-0.52144,-0.49119 -0.7681,-1.04616 -0.7681,-1.04616zM204.93008,262.47048c-0.04693,3.21789 -0.02157,9.24692 4.44455,7.26485c0.90557,-0.40189 1.40643,-1.41058 2.21896,-1.97748c0.70895,-0.49463 1.71843,-0.54977 2.30862,-1.18139c2.26238,-2.4212 -1.58544,-4.67108 -3.31675,-5.32927c-1.42989,-0.5436 -3.94322,0.4825 -5.65538,1.22329zM240.32841,261.28323c0.51371,0.98281 1.25953,1.86877 2.16002,2.47679c1.70715,1.36546 3.00309,3.37326 5.0169,4.22381c1.74623,0.73753 6.26375,-0.4873 7.9541,-0.71787c0.59617,-0.08132 6.68333,-0.18356 6.91566,-2.42781c0.07224,-0.69789 -0.90602,-5.46007 -1.35529,-5.86759c-0.33139,-0.3006 -0.89272,0.06795 -1.34003,0.07689c-2.70882,0.05417 -5.97881,-0.47491 -8.6489,-0.01401c-3.51282,0.60637 -7.21621,1.05048 -10.57474,2.21377c0,0 -0.04584,0.01528 -0.1277,0.03601zM294.33051,65.24061l2.85607,1.14243c0.00216,0.00081 0.00433,0.00162 0.00649,0.00243c1.49544,-1.99925 3.3616,-3.35266 6.06617,-4.79691c3.35282,-1.79043 6.7593,-2.00681 9.34404,-5.07643c0.98578,-1.17071 -3.04982,-0.30165 -4.53223,-0.73514l-3.3574,-0.37305c-1.47735,-0.14435 -2.63184,-1.38997 -2.63184,-2.90524c0,-0.99332 0.49612,-1.87078 1.2541,-2.39807l2.06568,-1.47548c0.23977,-0.66264 0.62724,-1.68432 0.18926,-1.43878c-0.52183,0.29254 -0.7257,0.98542 -1.23047,1.30648c-1.4145,0.89972 -2.6347,1.48495 -3.84301,1.92139l-4.19089,2.28594c-0.42615,0.24332 -0.91954,0.38237 -1.44538,0.38237c-1.61223,0 -2.91921,-1.30697 -2.91921,-2.91921c0,-0.43132 0.09354,-0.84081 0.26146,-1.20925l1.14226,-2.66527l0.02779,0.01191l0.00715,-0.09023c1.55394,-2.91216 1.8769,-4.52769 0.61901,-7.65939c-0.06993,-0.17411 0.13992,0.37941 0.07992,0.55718c-0.22181,0.65715 -0.61013,1.24587 -0.90103,1.87548c-0.64432,1.39454 -1.24845,2.8076 -1.90447,4.19668c-2.37101,5.02051 -4.41053,8.57515 -4.78988,14.15901c0,0 -0.00001,0.0002 -0.00005,0.0006c1.9022,1.3852 3.70892,2.7783 5.44802,4.4177c0.5676,0.17736 1.24887,0.54415 1.63922,1.30267c0.43971,0.06039 0.73921,0.1802 0.73921,0.1802zM254.129,98.31076c0,2.91921 -2.91921,2.91921 -2.91921,2.91921c-2.18297,-0.03253 -4.30959,0.70549 -6.45406,1.11501c-3.05391,0.58319 -6.77726,0.05267 -9.89349,0.05267h-1.00755c-0.1241,0.08991 -0.25691,0.16782 -0.40099,0.2304c-0.84228,0.3658 -7.74284,0.27561 -8.63353,0.27561c-4.67073,0 -9.34146,0.00148 -14.01218,0c-4.79393,-0.00152 -8.33651,-0.38244 -12.82954,-1.65853c-1.25306,-0.35589 -2.77469,0.04358 -3.8448,-0.69917c-0.11334,-0.07866 -0.22258,-0.15754 -0.32791,-0.23664c-1.27874,1.67036 -2.68625,3.24597 -4.17042,4.73638c0,0 -1.82244,1.82244 -3.75492,0.33013c-3.95395,3.4508 -5.87934,7.6199 -8.80088,12.12339c-2.97453,4.5852 -7.63374,8.36071 -8.97001,13.9049c-0.65173,2.70404 0.07808,6.64288 0.07808,9.44922c0,5.65 -0.70648,12.38725 1.37105,17.65791c0,0 0.23204,0.61878 0.18091,1.37792c4.10664,-0.02946 7.85975,0.62152 11.38816,2.61342c-1.03538,-9.46052 0.47679,-20.60826 4.65321,-28.54758c-0.0924,-3.26842 -0.28683,-7.16608 1.78488,-9.97202c1.20303,-1.62938 2.26529,-4.74007 4.25105,-4.34142c2.52818,0.50754 3.58645,3.81686 4.70626,6.13966c0.09951,0.2064 0.07808,6.31974 0.07808,6.89833c0,5.70988 -0.47763,11.62955 -0.00669,17.31766c0.76015,9.18116 4.63553,17.87281 4.67742,27.05426c0,0 0,0.06943 -0.01071,0.18689c2.36904,-0.65533 4.96488,-0.85494 7.24396,-1.13808c10.84402,-1.3472 21.67084,-3.12581 32.66254,-3.13568c2.85377,0.01722 6.97363,-0.34183 9.59334,1.51621c0.50161,-0.11147 1.00325,-0.22295 1.50486,-0.33441c0.04577,-9.548 0.37728,-19.07621 0.384,-28.62233c0.00329,-4.68139 -0.61726,-11.36233 0.94037,-15.74936c1.44122,-4.05915 5.19962,-6.93324 8.01072,-9.97697c3.34513,-3.62194 6.77121,-7.40048 9.36705,-11.58064c1.96109,-3.43293 3.55242,-6.95856 5.39338,-10.4116c2.66902,-5.00623 7.10796,-8.84028 9.6797,-13.91461c2.00393,-3.95397 0.50339,-7.00094 1.8136,-10.97843c0.42107,-1.27827 1.63226,-2.14028 2.44838,-3.21043l0.4379,-0.17478c-0.0526,-0.07446 -0.10249,-0.15287 -0.14865,-0.23531l-2.05698,-0.71686c-1.5441,-1.55416 -3.15766,-2.83087 -4.85402,-4.07537c-4.95847,5.90597 -10.02647,11.63104 -14.97753,17.51042c-2.11222,2.50826 -2.93538,5.01333 -5.56817,7.09331c-0.78203,0.61783 -1.96649,0.56195 -2.74585,1.18315c-2.20831,1.7602 -4.46332,4.27401 -6.58842,6.55291c0.20076,0.38124 0.32757,0.86286 0.32757,1.47128zM222.26996,29.9053c0.01326,0.12906 0.02024,0.26477 0.02024,0.40744c0,2.91921 -2.91921,2.91921 -2.91921,2.91921c-7.89999,-0.00965 -17.02535,3.54581 -20.75229,11.24996c-1.02153,2.11168 -1.60658,4.44402 -2.84271,6.43769c-4.81844,7.77122 -10.0103,14.99122 -6.00189,24.23421c0.81502,2.21212 1.02877,4.60304 1.64761,6.87783c0.51526,1.89407 2.41349,3.13031 3.27481,4.89415c0.71556,1.46535 1.083,3.08324 1.45258,4.67153c0.0526,0.22607 -0.04925,3.48586 0.97351,3.93333c0.7281,0.31854 1.61077,-0.10908 2.38284,0.07929c0.94418,0.23036 1.72962,0.93849 2.67702,1.15522c5.94863,1.36078 13.02866,0.30008 19.13465,0.30008c2.59485,0 5.1923,-0.11603 7.78455,0c0.42125,0.01886 0.86588,0.26517 1.28167,0.34031c0.34785,-0.3404 0.76267,-0.54389 1.13431,-0.66553c0.24107,-0.4586 0.38816,-1.02391 0.78224,-1.33942c3.2782,-2.6247 5.31792,-2.6916 7.73733,-6.16841c2.22692,-2.60203 4.8621,-5.10254 6.98436,-7.75646c2.78608,-3.48402 2.85236,-8.11695 4.2568,-12.09619c0.31696,-0.89805 1.22507,-1.52975 1.46934,-2.45022c0.24941,-0.93979 -0.25587,-1.9674 -0.04512,-2.9166c0.66373,-2.98938 2.63657,-5.90806 1.34853,-9.20228c-0.68319,-1.74727 -2.82949,-2.51319 -3.91573,-4.04283c-1.13431,-1.59737 -1.78523,-3.50374 -2.92031,-5.10055c-1.8865,-2.65392 -4.45193,-4.75305 -6.64643,-7.15853c-3.39946,-3.72627 -7.04087,-8.29332 -11.42078,-10.81908c-2.76746,0.02958 -4.7548,0.94416 -6.8779,2.21586zM168.52998,174.58446c0.02032,0.12534 0.76948,1.80507 1.3031,3.06498l0.31461,-2.83149c0.14435,-1.47735 1.38997,-2.63184 2.90524,-2.63184c1.16536,0 2.17122,0.68285 2.6393,1.67025l0.79204,1.5841c0.55637,0.56311 0.90716,1.15919 0.85938,1.86033c0.48588,-0.47889 1.08058,-0.85282 1.59811,-1.30159c2.27907,-1.97627 4.74268,-2.37564 3.02154,-4.63267l-0.34587,-1.36774c-0.55131,-0.26714 -0.89801,-0.61383 -0.89801,-0.61383l-0.24735,-0.25649c-3.39429,-3.11455 -7.53575,-3.63888 -11.94392,-3.39711c-0.12867,2.91902 -0.43888,6.13569 0.00181,8.8531zM205.13874,252.88971c0.33367,0.48601 0.43634,1.0099 0.43279,1.47809c4.39248,-1.07196 5.32967,-8.23503 6.82098,-11.87563c1.46116,-3.56702 2.50711,-7.20265 3.85139,-10.79404c1.4178,-3.78783 3.94929,-7.49372 4.98025,-11.42752c1.30598,-4.98319 1.77339,-6.51922 6.33037,-9.49652l-0.67462,0.39152c0,0 0.20486,-0.4097 0.61456,-0.82338c-0.31183,-0.74371 -0.38434,-1.75378 0.53231,-2.85376c1.86883,-2.2426 4.11143,-0.37376 4.11143,-0.37376c1.00937,0.92956 2.3682,1.58556 3.02809,2.78866c0.65354,1.19151 0.44157,2.68228 0.70404,4.01567c1.63011,8.28106 1.21051,16.60245 1.21051,25.01955c0,3.31284 -0.16945,6.62973 -0.00564,9.93852c0.07395,1.49365 -0.49725,3.2941 0.43236,4.46555c0.83998,1.05853 2.6981,0.19744 4.0494,0.19194c1.74887,-0.00712 3.86045,0.88444 5.24335,-0.18615c1.3628,-1.05504 2.11779,-5.36857 2.83742,-6.9996c1.18942,-10.17972 2.22304,-20.58364 1.46379,-30.93054c-0.52993,-7.22173 -4.36376,-13.46785 -5.05444,-20.56594c-0.34628,-3.55862 0.37742,-7.22168 0.37521,-10.79485c-0.00072,-1.16768 -0.13284,-2.34294 0,-3.50305c0.06945,-0.60667 1.02769,-1.29596 0.5993,-1.73111c-0.54944,-0.55811 -1.5659,-0.04351 -2.34906,-0.04624c-1.16829,-0.00408 -2.33653,0.01722 -3.5048,0.02583c-10.74774,-0.01039 -21.34631,1.75876 -31.94918,3.09194c-2.03959,0.25646 -8.67928,-0.11624 -9.25355,3.0535c-0.58371,3.22177 0.19282,8.07423 0.51279,11.26207c0.58093,5.78778 1.31941,11.46122 1.95736,17.26689c0.0161,13.20939 2.42848,26.2173 2.7036,39.41235z" data-paper-data="{&quot;index&quot;:null}" fill="#000000" stroke-width="0.5"/><path d="M255.35418,85.0871c0,0 -0.00305,0.80294 0.40946,1.56188c-2.74527,2.45653 -5.60204,5.71733 -8.10269,8.21559c0,0 -0.43319,0.42999 -0.70439,1.09416c-1.10856,0.21959 -2.22533,0.47516 -3.32655,0.70743c-0.97763,0.2062 -2.07567,0.24723 -3.19631,0.22355c1.4549,-1.01426 2.86328,-2.24489 4.22417,-4.11053c2.2228,-2.58909 4.87935,-5.10897 6.94879,-7.77992c3.17308,-4.09536 3.47091,-8.88548 5.1078,-13.52333c0.05185,-0.14691 0.17763,-0.38747 0.2483,-0.5263c0.07954,4.38987 0.12631,8.85535 -1.39909,12.45498l-0.20951,1.68249z" data-paper-data="{&quot;noHover&quot;:false,&quot;origItem&quot;:[&quot;Path&quot;,{&quot;applyMatrix&quot;:true,&quot;segments&quot;:[[506.20009,261.71052],[[506.55771,258.85358],[0,0],[2.6127,-6.16542]],[[509.00013,237.5976],[0.13624,7.51894],[-0.12104,0.23778]],[[508.68259,238.33054],[0.0888,-0.25162],[-2.80366,7.9437]],[[499.97361,261.61222],[5.43484,-7.01452],[-3.54454,4.57478]],[[487.93639,274.99368],[3.8072,-4.43458],[-2.33092,3.19546]],[[480.79669,281.85898],[2.49194,-1.73722],[1.91942,0.04056]],[[486.25455,281.46748],[-1.67448,0.35318],[1.88616,-0.39782]],[[491.92963,280.24974],[-1.89874,0.37612],[0.46452,-1.1376]],[[493.13123,278.37506],[0,0],[4.2831,-4.279]],[[506.90663,264.36692],[-4.70208,4.20754],[-0.70654,-1.2999]],[506.20009,261.71054]],&quot;closed&quot;:true,&quot;fillColor&quot;:[0,0,0,1]}],&quot;index&quot;:null}" fill="#ffffff" stroke-width="0.5"/><path d="M263.04122,52.78702c-0.71822,1.60427 -1.85489,3.17357 -2.91576,4.70006c0.1204,-1.56898 -0.04501,-3.18472 -0.75948,-4.94993c-1.28446,-3.17351 -2.90056,-2.80924 -4.64451,-5.29049c-1.11161,-1.58157 -1.74242,-3.46009 -2.86943,-5.03071c-2.01275,-2.80498 -4.68441,-5.05342 -7.01285,-7.60243c-4.43729,-4.85762 -8.49635,-9.38836 -14.24685,-12.5209c-5.74494,-0.02978 -8.7255,1.24203 -13.54972,4.24615l-0.53597,0.25373c0,0 -0.74505,0.37352 -1.24016,1.12051c-8.89564,1.12114 -17.5391,5.83652 -21.80952,14.16125c-0.99774,1.94496 -1.43277,4.15918 -2.59875,6.00819c-5.94132,9.42183 -11.18352,18.26012 -6.44848,29.42389c0.77863,2.03006 0.81581,4.27026 1.46114,6.34656c0.69938,2.25021 2.64332,3.90147 3.72405,5.99541c0.77362,1.49891 0.97259,2.92246 1.14544,4.28685c-0.32581,0.36388 -0.48878,0.68963 -0.48878,0.68963l-0.89258,1.88891c-0.43166,0.57878 -0.9555,1.23493 -1.42262,1.78658c-0.32744,0.02939 -0.54239,0.09039 -0.54239,0.09039l-3.67608,1.24833c-5.06149,3.8331 -7.55507,8.34821 -10.75696,13.44141c-1.97174,-3.68676 -4.96538,-8.05628 -5.30069,-11.9075c-0.23382,-2.68565 -0.51244,-6.45639 -0.04275,-9.0919c0.44185,-2.47928 2.33889,-4.52313 2.90976,-6.97593c0.28732,-1.23454 -0.07062,-2.54382 0.04376,-3.80619c0.25054,-2.76483 1.37768,-5.40013 1.74565,-8.1518c0.14447,-1.0803 -0.23215,-2.2017 -0.03598,-3.27381c0.18864,-1.03091 0.9649,-1.8947 1.1673,-2.923c0.81002,-4.11548 1.05655,-8.68008 1.75793,-12.88842c0.26838,-1.34144 1.41411,-7.12683 1.59516,-7.62869c0.3938,-1.09157 1.38609,-1.90552 1.78168,-2.99644c0.38186,-1.05304 0.09268,-2.28648 0.51218,-3.3251c1.66568,-4.12383 6.98871,-4.17553 10.27602,-5.57209c2.24144,-0.95224 4.35097,-2.35909 6.07301,-4.08113c1.28442,-1.2844 1.05051,-4.07038 2.75028,-4.71079c0.79286,-0.29872 1.73568,0.42397 2.53981,0.15715c1.0332,-0.34284 1.66575,-1.4688 2.67103,-1.8865c3.14207,-1.30552 6.75508,-2.40349 10.01794,-3.31986c5.38792,-1.5132 7.94786,-5.75329 13.57518,-5.75329c2.01931,0.41497 5.94358,0.40328 7.67627,1.42303c0.84046,0.49464 1.21129,1.56962 2.00875,2.13098c3.45741,2.43382 7.71427,5.08875 11.38504,7.19249c1.11747,0.64044 5.82439,2.26849 6.25449,4.22138c0.21864,0.99274 -0.27959,2.04717 -0.11044,3.04952c0.51181,3.03275 2.42961,8.06488 3.80592,10.82395c1.04388,2.09266 2.3829,4.03456 3.60864,6.02617c0.68082,1.10619 2.07912,1.48947 1.41435,2.97433z" data-paper-data="{&quot;noHover&quot;:false,&quot;origItem&quot;:[&quot;Path&quot;,{&quot;applyMatrix&quot;:true,&quot;segments&quot;:[[[259.68379,103.21359],[0,0],[0.5693,-1.27163]],[[258.47341,100.66959],[0.58305,0.94734],[-1.04972,-1.70561]],[[255.38559,95.51553],[0.89398,1.79215],[-1.17867,-2.36286]],[[252.13232,86.25572],[0.43831,2.59724],[-0.14486,-0.85841]],[[252.22833,83.64583],[0.18724,0.85018],[-0.36834,-1.67245]],[[246.87715,80.03575],[0.957,0.54847],[-3.14364,-1.80164]],[[237.13826,73.88337],[2.96092,2.08432],[-0.68294,-0.48075]],[[235.4204,72.05946],[0.71977,0.42361],[-1.48387,-0.87331]],[[228.8537,70.8431],[1.72933,0.35538],[-4.81922,0]],[[217.24171,75.77152],[4.6142,-1.2959],[-2.79431,0.78478]],[[208.67446,78.61262],[2.69086,-1.11804],[-0.86092,0.35771]],[[206.3906,80.22699],[0.88483,-0.29361],[-0.68866,0.22851]],[[204.21806,80.09135],[0.679,-0.25582],[-1.45568,0.54845]],[[201.86779,84.12305],[1.09997,-1.09996],[-1.47475,1.47475]],[[196.67445,87.61263],[1.91956,-0.8155],[-2.81525,1.19601]],[[187.8828,92.37456],[1.42648,-3.53164],[-0.35926,0.88947]],[[187.44606,95.21907],[0.32702,-0.90182],[-0.33879,0.93426]],[[185.9221,97.78153],[0.33725,-0.93482],[-0.15505,0.42979]],[[184.55906,104.30599],[0.22984,-1.14881],[-0.60066,3.60401]],[[183.05492,115.32805],[0.6937,-3.52449],[-0.17333,0.88063]],[[182.05492,117.82805],[0.16155,-0.88287],[-0.168,0.91815]],[[182.0851,120.62808],[0.12372,-0.92517],[-0.31513,2.35652]],[[180.58786,127.60163],[0.21456,-2.36779],[-0.09796,1.08109]],[[180.54897,130.85795],[0.24606,-1.05726],[-0.48889,2.10057]],[[178.05492,136.82806],[0.3784,-2.12325],[-0.40224,2.25704]],[[178.08786,144.60895],[-0.20024,-2.29998],[0.28716,3.29817]],[[182.6206,154.7994],[-1.68859,-3.15733],[2.74209,-4.3618]],[[191.83333,143.28865],[-4.33465,3.28266],[0,0]],[194.97986,142.21817],[[195.44404,142.1405],[-0.28042,0.02517],[0.40004,-0.47243]],[[196.6,140.68865],[-0.36967,0.49567],[0,0]],[197.36393,139.07061],[[197.78246,138.47996],[-0.27902,0.31163],[-0.14803,-1.16846]],[[196.79783,134.80537],[0.66253,1.28366],[-0.92554,-1.79324]],[[193.60237,129.66337],[0.59895,1.92707],[-0.55266,-1.77814]],[[192.34671,124.2202],[0.66682,1.73854],[-4.05508,-9.56063]],[[197.87338,98.97433],[-5.08813,8.06883],[0.99854,-1.58349]],[[200.10556,93.82088],[-0.85446,1.66566],[3.65718,-7.12928]],[[218.81825,81.67883],[-7.6182,0.96014],[0.42401,-0.63972]],[219.88198,80.71926],[[220.34168,80.502],[0,0],[4.13145,-2.57272]],[[231.96045,76.86859],[-4.91995,-0.0255],[4.92472,2.6827]],[[244.17972,87.60316],[-3.80008,-4.16005],[1.99407,2.18296]],[[250.19301,94.12352],[-1.72371,-2.40218],[0.96517,1.34508]],[[252.65345,98.43785],[-0.95198,-1.35445],[1.49352,2.12493]],[[256.63337,102.97558],[-1.10001,-2.71779],[0.61187,1.51172]],[[257.28488,107.22009],[0.10311,-1.34367],[0.90853,-1.30728]],[[259.68378,103.21362],[-0.61508,1.37389],[0,0]]],&quot;closed&quot;:true,&quot;fillColor&quot;:[0,0,0],&quot;strokeWidth&quot;:0.5}],&quot;index&quot;:null}" fill="#ffb900" stroke-width="0.25"/><path d="M222.27153,29.84695c2.1231,-1.2717 4.12154,-2.18492 6.88901,-2.2145c4.37992,2.52575 8.04504,7.10413 11.4445,10.8304c2.19451,2.40548 4.77241,4.5183 6.65891,7.17222c1.13508,1.59682 1.79117,3.51298 2.92548,5.11035c1.08624,1.52964 3.23534,2.30425 3.91853,4.05152c1.28804,3.29422 -0.68328,6.22909 -1.34701,9.21848c-0.21075,0.9492 0.29403,1.98218 0.04463,2.92196c-0.24427,0.92047 -1.15328,1.5571 -1.47024,2.45516c-1.40444,3.97924 -1.48067,8.63386 -4.26675,12.11789c-2.12226,2.65392 -4.77097,5.16762 -6.9979,7.76965c-2.41941,3.47681 -4.4742,3.55126 -7.75239,6.17596c-0.39408,0.31552 -0.543,0.8814 -0.78406,1.34c-0.37164,0.12164 -0.78845,0.32568 -1.13631,0.66608c-0.41579,-0.07514 -0.86227,-0.32101 -1.28353,-0.33987c-2.59225,-0.11603 -5.20257,0.0014 -7.79742,0.0014c-6.106,0 -13.21448,1.0532 -19.16311,-0.30758c-0.9474,-0.21673 -1.73648,-0.92709 -2.68066,-1.15745c-0.77207,-0.18837 -1.65712,0.2376 -2.38521,-0.08094c-1.02276,-0.44747 -0.92459,-3.71022 -0.9772,-3.93629c-0.36958,-1.58829 -0.74184,-3.21089 -1.4574,-4.67624c-0.86132,-1.76384 -2.76537,-3.00763 -3.28064,-4.90171c-0.61884,-2.2748 -0.83787,-4.67592 -1.65289,-6.88804c-4.00842,-9.243 1.18456,-16.50874 6.003,-24.27995c1.23613,-1.99367 1.8286,-4.33814 2.85014,-6.44982c3.72694,-7.70416 12.89398,-11.28155 20.79397,-11.2719c0,0 2.92485,-0.00012 2.92485,-2.91932c0,-0.14267 -0.0101,-0.16165 -0.02337,-0.29072z" data-paper-data="{&quot;noHover&quot;:false,&quot;origItem&quot;:[&quot;Path&quot;,{&quot;applyMatrix&quot;:true,&quot;segments&quot;:[[[224.81605,83.60633],[0,0],[0.01136,0.11053]],[[224.83338,83.95526],[0,-0.12218],[0,2.5]],[[222.33338,86.45526],[0,0],[-6.76553,-0.00826]],[[204.56117,96.0897],[3.19174,-6.59782],[-0.87484,1.80844]],[[202.12668,101.60292],[1.05862,-1.70737],[-4.1265,6.65525]],[[196.98668,122.35704],[-3.4328,-7.91568],[0.69798,1.89445]],[[198.39769,128.2472],[-0.52997,-1.94813],[0.44127,1.62208]],[[201.20223,132.43854],[-0.73763,-1.51055],[0.6128,1.25492]],[[202.44622,136.43923],[-0.31651,-1.36021],[0.04505,0.19361]],[[203.27993,139.80772],[-0.87589,-0.38321],[0.62354,0.2728]],[[205.32059,139.87562],[-0.6612,-0.16132],[0.80859,0.19728]],[[207.61318,140.86495],[-0.81135,-0.18561],[5.09439,1.16537]],[[224.00005,141.12194],[-5.22916,0],[2.22222,0]],[[230.66672,141.12194],[-2.22,-0.09937],[0.36076,0.01615]],[[231.76434,141.41338],[-0.35608,-0.06435],[0.2979,-0.29152]],[[232.73576,140.84342],[-0.31827,0.10417],[0.20645,-0.39274]],[[233.40567,139.69634],[-0.33749,0.27021],[2.80744,-2.24779]],[[240.0319,134.41373],[-2.07198,2.97753],[1.90713,-2.22837]],[[246.01329,127.77112],[-1.8175,2.27281],[2.38599,-2.98371]],[[249.6588,117.41197],[-1.20276,3.40781],[0.27144,-0.76909]],[[250.91714,115.31361],[-0.20919,0.78829],[0.21359,-0.80483]],[[250.8785,112.81584],[-0.18049,0.81289],[0.56842,-2.5601]],[[252.03338,104.93503],[1.10307,2.82116],[-0.58508,-1.49636]],[[248.67996,101.47276],[0.93025,1.30998],[-0.97142,-1.36798]],[[246.17901,97.10466],[0.97208,1.36751],[-1.61559,-2.27281]],[[240.48702,90.97411],[1.87937,2.06005],[-2.91129,-3.19117]],[[230.70629,81.70868],[3.75095,2.16305],[-2.37005,0.02533]],[[224.81607,83.60634],[1.81822,-1.08908],[0,0]]],&quot;closed&quot;:true,&quot;fillColor&quot;:[0,0,0],&quot;strokeWidth&quot;:0.5}],&quot;index&quot;:null}" fill="#ffffff" stroke-width="0.25"/><path d="M294.30814,65.29458c0,0 -0.30237,-0.12109 -0.74209,-0.18148c-0.39034,-0.75851 -1.0792,-1.12966 -1.64679,-1.30702c-1.7391,-1.6394 -3.56471,-3.05368 -5.46691,-4.43887c0.00004,-0.0004 0.00005,-0.0006 0.00005,-0.0006c0.37934,-5.58386 2.42656,-9.20401 4.79757,-14.22452c0.65602,-1.38909 1.27559,-2.81469 1.9199,-4.20923c0.2909,-0.62961 0.68542,-1.22135 0.90723,-1.8785c0.06001,-0.17777 -0.10564,-0.62323 -0.03571,-0.44911c1.25789,3.1317 0.95432,4.7344 -0.59962,7.64657l-0.00682,0.0899l-0.02774,-0.01196l-1.13109,2.64925c-0.16791,0.36844 -0.2583,0.7697 -0.2583,1.20102c0,1.61223 1.3089,2.89482 2.92113,2.89482c0.52584,0 0.90314,-0.12697 1.32929,-0.3703l4.27242,-2.34384c1.20831,-0.43643 2.44997,-1.00561 3.86447,-1.90533c0.50477,-0.32107 0.70763,-1.01512 1.22945,-1.30766c0.43799,-0.24554 0.05542,0.78253 -0.18435,1.44517l-2.06503,1.47646c-0.75798,0.52729 -1.24503,1.43715 -1.24503,2.43047c0,1.51527 1.04562,2.73045 2.52298,2.8748l3.35357,0.38097c1.48241,0.43349 5.62805,-0.39673 4.64227,0.77397c-2.58473,3.06961 -6.02538,3.32281 -9.3782,5.11324c-2.70456,1.44425 -4.60234,2.80091 -6.09778,4.80015c-0.00216,-0.00081 -0.00436,-0.00162 -0.00652,-0.00243l-2.86833,-1.146z" data-paper-data="{&quot;noHover&quot;:false,&quot;origItem&quot;:[&quot;Path&quot;,{&quot;applyMatrix&quot;:true,&quot;segments&quot;:[[286.52852,113.8674],[[288.97445,114.84577],[0,0],[0.00185,0.00069]],[[288.98001,114.84785],[-0.00185,-0.00069],[1.28069,-1.71215]],[[294.17506,110.73979],[-2.31618,1.23685],[2.87135,-1.53332]],[[302.17727,106.39235],[-2.21356,2.62881],[0.84422,-1.00259]],[[298.29588,105.76278],[1.26953,0.37124],[0,0]],[[295.42061,105.4433],[0,0],[-1.2652,-0.12362]],[[293.16671,102.95526],[0,1.29767],[0,-0.85068]],[[294.24072,100.90156],[-0.64913,0.45157],[0,0]],[[296.00976,99.63796],[0,0],[0.20534,-0.56748]],[[296.17184,98.40579],[0.37509,-0.21028],[-0.44689,0.25053]],[[295.11807,99.52466],[0.43228,-0.27496],[-1.21137,0.77052]],[[291.82693,101.17013],[1.03479,-0.37376],[0,0]],[[288.23786,103.1278],[0,0],[-0.36495,0.20838]],[[287.00004,103.45526],[0.45033,0],[-1.38071,0]],[[284.50004,100.95526],[0,1.38071],[0,-0.36938]],[[284.72395,99.91966],[-0.1438,0.31553],[0,0]],[285.70218,97.63713],[285.72598,97.64733],[[285.7321,97.57006],[0,0],[1.33079,-2.49397]],[[286.26222,91.01058],[1.07725,2.68198],[-0.05989,-0.14911]],[[286.33066,91.48775],[0.05139,-0.15224],[-0.18996,0.56278]],[[285.55902,93.09391],[0.24913,-0.5392],[-0.55179,1.19428]],[[283.92804,96.68794],[0.56181,-1.18961],[-2.03053,4.29955]],[[279.826,108.81368],[0.32487,-4.782],[0,0]],[[279.82596,108.81419],[0.00003,-0.00034],[1.62904,1.18628]],[[284.49163,112.5975],[-1.48936,-1.40398],[0.48609,0.15189]],[[285.89545,113.7131],[-0.33429,-0.64959],[0.37657,0.05172]],[286.52851,113.86742]],&quot;closed&quot;:true,&quot;fillColor&quot;:[0,0,0],&quot;strokeWidth&quot;:0.5}],&quot;index&quot;:null}" fill="#ffffff" stroke-width="0.25"/><path d="M240.27122,261.27158c0.08185,-0.02073 0.12777,-0.03633 0.12777,-0.03633c3.35853,-1.16329 7.11489,-1.65367 10.6277,-2.26004c2.67009,-0.4609 5.99566,0.09874 8.70449,0.04457c0.44732,-0.00894 1.01004,-0.37472 1.34143,-0.07412c0.44928,0.40752 1.43271,5.20149 1.36047,5.89937c-0.23232,2.24425 -6.33428,2.37891 -6.93045,2.46022c-1.69035,0.23057 -6.28922,1.46028 -8.03545,0.72275c-2.01381,-0.85055 -3.32994,-2.90101 -5.03709,-4.26648c-0.90049,-0.60802 -1.64516,-1.50715 -2.15887,-2.48997z" data-paper-data="{&quot;noHover&quot;:false,&quot;origItem&quot;:[&quot;Path&quot;,{&quot;applyMatrix&quot;:true,&quot;segments&quot;:[[[240.28126,281.75781],[0,0],[0.43994,0.84168]],[[242.1311,283.87893],[-0.77118,-0.52071],[1.462,1.16938]],[[246.42756,287.49619],[-1.72462,-0.72841],[1.49547,0.63162]],[[253.23943,286.88141],[-1.44761,0.19746],[0.51056,-0.06964]],[[259.16198,284.80224],[-0.19896,1.92197],[0.06187,-0.59767]],[[258.00131,279.77725],[0.38476,0.349],[-0.2838,-0.25743]],[[256.85371,279.8431],[0.38308,-0.00766],[-2.31983,0.04639]],[[249.44681,279.8311],[2.28666,-0.39471],[-3.00837,0.51929]],[[240.39063,281.72697],[2.87624,-0.99624],[0,0]],[[240.28127,281.75781],[0.0701,-0.01775],[0,0]]],&quot;closed&quot;:true,&quot;fillColor&quot;:[0,0,0],&quot;strokeWidth&quot;:0.5}],&quot;index&quot;:null}" fill="#ffffff" stroke-width="0.25"/><path d="M210.59633,261.18985c1.73131,0.65819 5.62513,2.97869 3.36275,5.39989c-0.59019,0.63162 -1.61862,0.71789 -2.32756,1.21252c-0.81253,0.5669 -1.35673,1.58933 -2.2623,1.99122c-4.46612,1.98207 -4.53501,-4.13692 -4.48808,-7.35481c1.71216,-0.74079 4.2853,-1.79243 5.71518,-1.24882z" data-paper-data="{&quot;noHover&quot;:false,&quot;origItem&quot;:[&quot;Path&quot;,{&quot;applyMatrix&quot;:true,&quot;segments&quot;:[[[209.96622,282.77458],[1.46629,-0.63441],[-0.04019,2.75579]],[[213.77252,288.99618],[-3.82477,1.69744],[0.77553,-0.34418]],[[215.67283,287.30267],[-0.69585,0.48549],[0.60714,-0.4236]],[[217.64993,286.29093],[-0.50544,0.54092],[1.9375,-2.07351]],[[214.80947,281.72696],[1.48269,0.56367],[-1.22455,-0.46554]]],&quot;closed&quot;:true,&quot;fillColor&quot;:[0,0,0],&quot;strokeWidth&quot;:0.5}],&quot;index&quot;:null}" fill="#ffffff" stroke-width="0.25"/><path d="M168.47621,174.60723c-0.44069,-2.71741 -0.12097,-5.99495 0.0077,-8.91397c4.40816,-0.24177 8.64606,0.29445 12.04034,3.409l0.24881,0.25961c0,0 0.34945,0.3546 0.90076,0.62174l0.34781,1.38024c1.72114,2.25704 -0.76398,2.70439 -3.04305,4.68065c-0.51753,0.44878 -1.13019,0.83264 -1.61607,1.31153c0.04778,-0.70113 -0.30604,-1.29627 -0.8624,-1.85938l-0.80069,-1.58236c-0.46808,-0.9874 -1.53813,-1.71564 -2.70349,-1.71564c-1.51527,0 -2.65377,1.11196 -2.79812,2.58931l-0.40456,2.90413c-0.53362,-1.25991 -1.2967,-2.95954 -1.31702,-3.08488z" data-paper-data="{&quot;noHover&quot;:false,&quot;origItem&quot;:[&quot;Path&quot;,{&quot;applyMatrix&quot;:true,&quot;segments&quot;:[[[178.79326,207.5092],[0,0],[0.0174,0.10734]],[[179.90923,210.13404],[-0.45699,-1.07898],[0,0]],[[180.17866,207.70916],[0,0],[0.12362,-1.2652]],[[182.6667,205.45526],[-1.29767,0],[0.99801,0]],[[184.92699,206.88566],[-0.40086,-0.84561],[0,0]],[[185.60529,208.24228],[0,0],[0.47647,0.48225]],[[186.34126,209.83546],[0.04092,-0.60045],[0.41611,-0.41012]],[[187.70988,208.72078],[-0.44321,0.38433],[1.95179,-1.69247]],[[190.29752,204.75337],[1.47398,1.93292],[0,0]],[[190.00132,203.58204],[0,0],[-0.47214,-0.22878]],[189.23227,203.05636],[[189.02044,202.8367],[0,0],[-2.90686,-2.66729]],[[178.7917,199.92742],[3.77514,-0.20705],[-0.11019,2.49984]],[[178.79325,207.50919],[-0.37741,-2.32718],[0,0]]],&quot;closed&quot;:true,&quot;fillColor&quot;:[0,0,0],&quot;strokeWidth&quot;:0.5}],&quot;index&quot;:null}" fill="#ffffff" stroke-width="0.25"/><path d="M205.11021,252.94063c-0.27513,-13.19505 -2.71686,-26.26137 -2.73296,-39.47076c-0.63795,-5.80567 -1.36395,-11.50831 -1.94488,-17.29609c-0.31997,-3.18784 -1.08788,-8.04894 -0.50417,-11.27071c0.57428,-3.16974 7.22582,-2.8045 9.26541,-3.06096c10.60287,-1.33318 21.24874,-3.10348 31.99649,-3.09308c1.16827,-0.00861 2.34056,-0.02804 3.50885,-0.02396c0.78316,0.00273 1.80213,-0.51051 2.35157,0.04759c0.42839,0.43515 -0.52944,1.12468 -0.59889,1.73135c-0.13284,1.1601 0.00155,2.33675 0.00228,3.50444c0.00221,3.57317 -0.71293,7.24294 -0.36665,10.80156c0.69068,7.09809 4.54268,13.38419 5.07261,20.60592c0.75925,10.3469 -0.29608,20.79867 -1.4855,30.97839c-0.71963,1.63103 -1.48212,5.94969 -2.84492,7.00473c-1.3829,1.07059 -3.50048,0.18204 -5.24935,0.18916c-1.3513,0.0055 -3.21456,0.86852 -4.05454,-0.19001c-0.9296,-1.17145 -0.39596,-3.08246 -0.46991,-4.57611c-0.16381,-3.30879 -0.00145,-6.62261 -0.00145,-9.93546c0,-8.4171 0.38955,-16.67254 -1.24056,-24.9536c-0.26247,-1.33339 -0.04204,-2.80523 -0.69558,-3.99674c-0.65989,-1.2031 -2.00412,-1.84428 -3.01348,-2.77384c0,0 -2.22448,-1.86029 -4.09331,0.38231c-0.91665,1.09998 -0.81105,1.99809 -0.49922,2.7418c-0.4097,0.41367 -0.61804,0.8224 -0.61804,0.8224l0.64115,-0.27979c-4.55697,2.97731 -4.96118,4.41972 -6.26716,9.40291c-1.03096,3.9338 -3.57586,7.6284 -4.99366,11.41623c-1.34428,3.59139 -2.39433,7.22473 -3.85549,10.79175c-1.49131,3.6406 -2.48208,10.90741 -6.87456,11.97937c0.00355,-0.46818 -0.10044,-0.99279 -0.43411,-1.4788z" data-paper-data="{&quot;noHover&quot;:false,&quot;origItem&quot;:[&quot;Path&quot;,{&quot;applyMatrix&quot;:true,&quot;segments&quot;:[[[210.14491,274.56964],[0,0],[0.28575,0.41622]],[[210.51555,275.83547],[0.00304,-0.40095],[3.76171,-0.91802]],[[216.35702,265.66521],[-1.27715,3.1178],[1.25133,-3.05479]],[[219.65534,256.42122],[-1.15124,3.07566],[1.2142,-3.24389]],[[223.92041,246.63472],[-0.88291,3.3689],[1.11844,-4.26759]],[[229.34172,238.50192],[-3.90258,2.54976],[0,0]],[228.76398,238.83722],[[229.29029,238.13208],[-0.35087,0.35427],[-0.26705,-0.63691]],[[229.74616,235.68813],[-0.78502,0.94202],[1.60046,-1.92056]],[[233.26718,235.36804],[0,0],[0.86442,0.79607]],[[235.86043,237.75624],[-0.56513,-1.03033],[0.55969,1.02041]],[[236.46337,241.19525],[-0.22478,-1.14191],[1.39602,7.09188]],[[237.50005,262.62193],[0,-7.20838],[0,2.83711]],[[237.49522,271.13325],[-0.14029,-2.83364],[0.06333,1.27916]],[[237.86549,274.95754],[-0.79611,-1.00323],[0.71936,0.90652]],[[241.33339,275.12192],[-1.15725,0.00471],[1.49773,-0.0061]],[[245.82378,274.9625],[-1.18431,0.91685],[1.1671,-0.90353]],[[248.25374,268.96806],[-0.61629,1.39681],[1.01862,-8.71789]],[[249.50733,242.47922],[0.65022,8.86106],[-0.45383,-6.18467]],[[245.17872,224.8666],[0.5915,6.07879],[-0.29655,-3.04759]],[[245.50005,215.62192],[0.00189,3.06005],[-0.00062,-1]],[[245.50005,212.62192],[-0.11376,0.99351],[0.05948,-0.51955]],[[246.01329,211.1394],[0.36687,0.37266],[-0.47054,-0.47796]],[[244.00156,211.0998],[0.6707,0.00234],[-1.00052,-0.00349]],[[241.00006,211.12192],[1.0005,-0.00737],[-9.20434,-0.0089]],[[213.63886,213.76985],[9.08027,-1.14173],[-1.7467,0.21963]],[[205.71414,216.38486],[0.49181,-2.71456],[-0.49989,2.75912]],[[206.15329,226.02967],[-0.27402,-2.73006],[0.49751,4.95664]],[[207.82957,240.81699],[-0.54634,-4.97196],[0.01379,11.31249]],[[210.14493,274.56963],[-0.23562,-11.30021],[0,0]]],&quot;closed&quot;:true,&quot;fillColor&quot;:[0,0,0],&quot;strokeWidth&quot;:0.5}],&quot;index&quot;:null}" fill="#66ffd5" stroke-width="0.25"/><path d="M254.08577,98.35003c0,-0.60842 -0.12528,-1.08842 -0.32604,-1.46966c2.1251,-2.27891 4.46344,-4.87452 6.67175,-6.63472c0.77936,-0.62121 1.96477,-0.56434 2.7468,-1.18217c2.6328,-2.07998 3.37181,-4.5041 5.48403,-7.01236c4.95107,-5.87938 10.10117,-11.68745 15.05964,-17.59342c1.69636,1.2445 3.31316,2.52459 4.85725,4.07875l2.05788,0.71791c0.04616,0.08244 0.09617,0.161 0.14877,0.23546l-0.43797,0.1747c-0.81613,1.07015 -2.02689,1.93268 -2.44795,3.21095c-1.31021,3.97749 0.19408,7.02957 -1.80985,10.98354c-2.57174,5.07434 -7.00717,8.91458 -9.67618,13.9208c-1.84097,3.45305 -3.42886,6.98741 -5.38995,10.42034c-2.59584,4.18016 -6.01944,7.97373 -9.36456,11.59567c-2.8111,3.04373 -6.57303,5.93984 -8.01426,9.99899c-1.55763,4.38703 -0.95174,11.09026 -0.95504,15.77165c-0.00673,9.54612 -0.35527,19.08556 -0.40104,28.63356c-0.50161,0.11147 -1.00466,0.22353 -1.50627,0.335c-2.61971,-1.85804 -6.74829,-1.49627 -9.60206,-1.51349c-10.99171,0.00987 -21.85207,1.7862 -32.69609,3.1334c-2.27908,0.28314 -4.88035,0.48038 -7.24939,1.13571c0.01071,-0.11746 0.01065,-0.18692 0.01065,-0.18692c-0.04188,-9.18145 -3.93481,-17.88651 -4.69496,-27.06766c-0.47094,-5.68811 -0.00462,-11.62677 -0.00462,-17.33666c0,-0.57859 0.0186,-6.70311 -0.08091,-6.90951c-1.11981,-2.3228 -2.1787,-5.64268 -4.70688,-6.15023c-1.98576,-0.39865 -2.93145,2.70961 -4.13448,4.33899c-2.07171,2.80594 -1.87959,6.69112 -1.7872,9.95955c-4.17643,7.93933 -5.70034,19.06569 -4.66496,28.52622c-3.52841,-1.9919 -7.37452,-2.57271 -11.48116,-2.54325c0.05113,-0.75915 -0.18147,-1.3788 -0.18147,-1.3788c-2.07753,-5.27066 -1.37714,-12.02088 -1.37714,-17.67088c0,-2.80634 -0.73186,-6.75343 -0.08013,-9.45747c1.33626,-5.54419 5.99475,-9.33338 8.96928,-13.91857c2.92154,-4.50349 4.85021,-8.68845 8.80416,-12.13926c1.93248,1.49231 3.75567,-0.33214 3.75567,-0.33214c1.48417,-1.49041 2.8954,-3.07365 4.17414,-4.74401c0.10532,0.0791 0.21455,0.15803 0.32789,0.23669c1.07011,0.74275 2.59281,0.3415 3.84588,0.69739c4.49303,1.27609 8.04322,1.64732 12.83715,1.64884c4.67073,0.00148 9.36922,-0.01596 14.03995,-0.01596c0.89068,0 7.81833,0.08992 8.66062,-0.27588c0.14408,-0.06258 0.27791,-0.14024 0.40201,-0.23015l1.01041,0.00078c3.11623,0 6.86013,0.54159 9.91404,-0.04159c2.14447,-0.40952 4.27715,-1.14168 6.46012,-1.10915c0,0 2.8325,0.07821 2.8325,-2.84099z" data-paper-data="{&quot;noHover&quot;:false,&quot;origItem&quot;:[&quot;Path&quot;,{&quot;applyMatrix&quot;:true,&quot;segments&quot;:[[[252.10005,142.18859],[0,0],[0,2.5]],[[249.60005,144.68859],[0,0],[-1.86949,-0.02786]],[[244.07281,145.64348],[1.83652,-0.35071],[-2.61536,0.49944]],[[235.60005,145.68859],[2.66873,0],[0,0]],[[234.73719,145.68859],[0,0],[-0.10628,0.077]],[[234.39378,145.8859],[0.12339,-0.05359],[-0.72133,0.31327]],[[227.00005,146.12193],[0.76278,0],[-4,0]],[[215.00005,146.12193],[4,0.00127],[-4.10551,-0.0013]],[[204.01286,144.70157],[3.84782,1.09284],[-1.07312,-0.30478]],[[200.72018,144.1028],[0.91644,0.63609],[-0.09706,-0.06736]],[[200.43936,143.90014],[0.0902,0.06774],[-1.09511,1.43049]],[[196.86782,147.95636],[1.27104,-1.27638],[0,0]],[[193.65212,148.23908],[1.65497,1.27801],[-3.38615,2.95526]],[[186.11507,158.62152],[2.502,-3.85678],[-2.54738,3.92675]],[[178.43318,170.52964],[1.14437,-4.74803],[-0.55814,2.31573]],[[178.50005,178.62193],[0,-2.40334],[0,4.83865]],[[179.67421,193.74412],[-1.77919,-4.51378],[0,0]],[[179.82914,194.92417],[0.04379,-0.65013],[3.51692,-0.02523]],[[189.58193,197.1623],[-3.02172,-1.70586],[-0.8867,-8.10197]],[[193.56693,172.71422],[-3.57668,6.79922],[-0.07913,-2.79907]],[[195.0955,164.17421],[-1.77421,2.403],[1.03027,-1.3954]],[[198.73609,160.45623],[-1.7006,-0.3414],[2.16513,0.43466]],[[202.76652,165.71422],[-0.959,-1.98924],[0.08522,0.17676]],[[202.83339,171.62193],[0,-0.4955],[0,4.88993]],[[202.82766,186.45273],[-0.40331,-4.87128],[0.65099,7.86272]],[[206.83339,209.62193],[-0.03587,-7.86297],[0,0]],[[206.82422,209.78198],[0.00917,-0.10059],[2.02884,-0.56122]],[[213.02793,208.80733],[-1.9518,0.24248],[9.28679,-1.15374]],[[241.00005,206.12194],[-9.41327,0.00845],[2.44396,0.01475]],[[249.21576,207.42042],[-2.24351,-1.59122],[0.42958,-0.09546]],[[250.50452,207.13403],[-0.42958,0.09546],[0.0392,-8.17688]],[[250.83338,182.62194],[-0.00576,8.17527],[0.00282,-4.00913]],[[251.63871,169.13423],[-1.33395,3.75704],[1.23426,-3.47625]],[[258.49907,160.58998],[-2.40742,2.60664],[2.86476,-3.10182]],[[266.52099,150.67235],[-2.22307,3.57988],[1.67947,-2.93995]],[[271.13987,141.75588],[-1.5766,2.95718],[2.28574,-4.28732]],[[279.42954,129.83944],[-2.20243,4.34565],[1.71616,-3.38617]],[[280.9827,120.43754],[-1.12206,3.40631],[0.3606,-1.09471]],[[283.07949,117.68814],[-0.69893,0.91647],[0,0]],[[283.45451,117.53846],[0,0],[-0.04505,-0.06377]],[[283.32721,117.33694],[0.03953,0.0706],[0,0]],[[281.56562,116.72302],[0,0],[-1.32236,-1.33098]],[[277.40865,113.23288],[1.45276,1.06579],[-4.24642,5.05786]],[[264.58193,128.22876],[4.24008,-5.03509],[-1.8089,2.14807]],[[259.81336,134.30345],[2.25472,-1.78129],[-0.66973,0.52911]],[[257.46182,135.3167],[0.66744,-0.532],[-1.89119,1.50743]],[[251.81951,140.9286],[1.81993,-1.95165],[0.17193,0.32649]],[[252.10004,142.1886],[0,-0.52105],[0,0]]],&quot;closed&quot;:true,&quot;fillColor&quot;:[0,0,0],&quot;strokeWidth&quot;:0.5}],&quot;index&quot;:null}" fill="#9966ff" stroke-width="0.25"/><path d="M222.27153,29.84695c2.1231,-1.2717 4.12154,-2.18492 6.88901,-2.2145c4.37992,2.52575 8.04504,7.10413 11.4445,10.8304c2.19451,2.40548 4.77241,4.5183 6.65891,7.17222c1.13508,1.59682 1.79117,3.51298 2.92548,5.11035c1.08624,1.52964 3.23534,2.30425 3.91853,4.05152c1.28804,3.29422 3.98745,4.47757 3.32371,7.46695c-0.21075,0.9492 -0.87365,4.90138 -1.12305,5.84117c-0.24427,0.92047 2.34976,3.89247 2.03281,4.79052c-1.40444,3.97924 -1.48067,3.96314 -4.26675,7.44716c-0.6832,0.85436 -0.25328,2.86185 -1.01397,3.69478c-1.60226,1.75441 -2.13854,6.98122 -3.64857,8.7456c-2.41941,3.47681 -5.64188,1.79974 -8.92008,4.42444c-0.39408,0.31552 -8.71677,-0.87012 -8.95784,-0.41153c-0.37164,0.12164 -0.78845,0.32568 -1.13631,0.66608c-0.41579,-0.07514 -0.86227,-0.32101 -1.28353,-0.33987c-2.59225,-0.11603 -5.20257,0.0014 -7.79742,0.0014c-6.106,0 -13.21448,1.0532 -19.16311,-0.30758c-0.9474,-0.21673 -1.73648,-0.92709 -2.68066,-1.15745c-0.77207,-0.18837 -1.65712,0.2376 -2.38521,-0.08094c-1.02276,-0.44747 -0.92459,-3.71022 -0.9772,-3.93629c-0.36958,-1.58829 -0.74184,-3.21089 -1.4574,-4.67624c-0.86132,-1.76384 -2.76537,-3.00763 -3.28064,-4.90171c-0.61884,-2.2748 -0.83787,-4.67592 -1.65289,-6.88804c-4.00842,-9.243 1.18456,-16.50874 6.003,-24.27995c1.23613,-1.99367 1.8286,-4.33814 2.85014,-6.44982c3.72694,-7.70416 12.89398,-11.28155 20.79397,-11.2719c0,0 2.92485,-0.00012 2.92485,-2.91932c0,-0.14267 -0.0101,-0.16165 -0.02337,-0.29072z" data-paper-data="{&quot;noHover&quot;:false,&quot;origItem&quot;:[&quot;Path&quot;,{&quot;applyMatrix&quot;:true,&quot;segments&quot;:[[[224.81605,83.60633],[0,0],[0.01136,0.11053]],[[224.83338,83.95526],[0,-0.12218],[0,2.5]],[[222.33338,86.45526],[0,0],[-6.76553,-0.00826]],[[204.56117,96.0897],[3.19174,-6.59782],[-0.87484,1.80844]],[[202.12668,101.60292],[1.05862,-1.70737],[-4.1265,6.65525]],[[196.98668,122.35704],[-3.4328,-7.91568],[0.69798,1.89445]],[[198.39769,128.2472],[-0.52997,-1.94813],[0.44127,1.62208]],[[201.20223,132.43854],[-0.73763,-1.51055],[0.6128,1.25492]],[[202.44622,136.43923],[-0.31651,-1.36021],[0.04505,0.19361]],[[203.27993,139.80772],[-0.87589,-0.38321],[0.62354,0.2728]],[[205.32059,139.87562],[-0.6612,-0.16132],[0.80859,0.19728]],[[207.61318,140.86495],[-0.81135,-0.18561],[5.09439,1.16537]],[[224.00005,141.12194],[-5.22916,0],[2.22222,0]],[[230.66672,141.12194],[-2.22,-0.09937],[0.36076,0.01615]],[[231.76434,141.41338],[-0.35608,-0.06435],[0.2979,-0.29152]],[[232.73576,140.84342],[-0.31827,0.10417],[0.20645,-0.39274]],[[233.40567,139.69634],[-0.33749,0.27021],[2.80744,-2.24779]],[[240.0319,134.41373],[-2.07198,2.97753],[1.90713,-2.22837]],[[246.01329,127.77112],[-1.8175,2.27281],[2.38599,-2.98371]],[[249.6588,117.41197],[-1.20276,3.40781],[0.27144,-0.76909]],[[250.91714,115.31361],[-0.20919,0.78829],[0.21359,-0.80483]],[[250.8785,112.81584],[-0.18049,0.81289],[0.56842,-2.5601]],[[252.03338,104.93503],[1.10307,2.82116],[-0.58508,-1.49636]],[[248.67996,101.47276],[0.93025,1.30998],[-0.97142,-1.36798]],[[246.17901,97.10466],[0.97208,1.36751],[-1.61559,-2.27281]],[[240.48702,90.97411],[1.87937,2.06005],[-2.91129,-3.19117]],[[230.70629,81.70868],[3.75095,2.16305],[-2.37005,0.02533]],[[224.81607,83.60634],[1.81822,-1.08908],[0,0]]],&quot;closed&quot;:true,&quot;fillColor&quot;:[0,0,0],&quot;strokeWidth&quot;:0.5}],&quot;index&quot;:null}" fill="#ffffff" stroke-width="0.25"/><text transform="translate(150.52266,237.83892) rotate(-32.77539) scale(1.44352,1.44352)" font-size="40" xml:space="preserve" fill="#686868" fill-rule="nonzero" stroke="none" stroke-width="1" stroke-linecap="butt" stroke-linejoin="miter" stroke-miterlimit="10" stroke-dasharray="" stroke-dashoffset="0" font-family="Sans Serif" font-weight="normal" text-anchor="start" style="mix-blend-mode: normal"><tspan x="0" dy="0">LOCKED</tspan></text></g></g></svg>