<svg version="1.1" xmlns="http://www.w3.org/2000/svg" xmlns:xlink="http://www.w3.org/1999/xlink" width="64.35976" height="81.79486" viewBox="0,0,64.35976,81.79486"><g transform="translate(-207.82012,-139.10257)"><g data-paper-data="{&quot;isPaintingLayer&quot;:true}" fill-rule="nonzero" stroke="none" stroke-width="0.5" stroke-linecap="butt" stroke-linejoin="miter" stroke-miterlimit="10" stroke-dasharray="" stroke-dashoffset="0" style="mix-blend-mode: normal"><g><path d="M230.90544,219.65011c-1.99536,0.25383 -4.10846,0.37777 -5.94939,0.01265c-2.71905,-0.53928 -5.9562,-3.23861 -7.42036,-5.47203c-0.62986,-0.96079 -0.69411,-2.20423 -1.23573,-3.21739c-1.08908,-2.03725 -2.56772,-3.91913 -3.22678,-6.1332c-0.31371,-1.05388 -0.24354,-2.21914 -0.68224,-3.22742c-0.75515,-1.7356 -2.4653,-2.96604 -3.1282,-4.73893c-2.186,-5.84638 -1.51513,-12.81441 -0.42375,-18.82409c1.38759,0.27273 2.89293,0.19583 4.16276,0.81818c0.79668,0.39046 1.03422,1.45999 1.69457,2.05253c1.42513,1.27878 2.9829,2.47894 4.15354,3.98624c-0.01307,-0.08588 -0.02755,-0.17122 -0.04492,-0.25548c-0.36348,-1.76308 -0.41969,-3.58375 -0.42253,-5.38391c-0.00588,-3.72118 0,-7.44242 0,-11.1636c0,-3.86377 -0.2105,-7.52984 1.65789,-11.05934c0.58958,-1.11375 0.85772,-3.01834 2.11245,-3.13526c3.6406,-0.33922 5.88407,5.23039 7.22172,7.57886c0.55051,1.37926 1.60966,2.81256 2.23564,4.27022c0.38965,-1.56465 0.89751,-3.1155 1.02038,-4.72081c0.14116,-1.84425 0.67141,-3.64744 1.22806,-5.41133c0.44476,-1.40931 0.02945,-2.9753 0.33793,-4.42057c0.4544,-2.12889 1.21691,-4.18962 2.0536,-6.19925c1.01151,-2.42951 2.7276,-6.82382 6.45444,-5.73263c5.11529,1.49772 4.62065,8.24577 7.41456,11.7373c1.29822,3.75941 2.27114,7.67175 3.91496,11.29564c0.23622,0.52077 1.22362,3.68463 2.29213,3.48507c2.04561,-0.38204 1.00285,-2.18104 1.39153,-3.59382c0.21497,-0.7814 0.91587,-1.35275 1.21483,-2.10602c0.84362,-2.12555 2.10681,-7.62359 5.21689,-7.78086c1.56316,-0.07905 2.62741,1.8683 3.41868,3.2187c0.47059,0.80313 0.01394,1.86404 0.1025,2.79067c0.34398,3.59924 0.259,7.21271 0.77163,10.80108c0.00191,3.94155 1.0992,7.42497 2.2365,11.1416c0.30134,0.98476 0.99617,1.83893 1.19341,2.8497c0.51936,2.66156 0.38798,7.65832 -0.44474,10.23993c-0.32155,0.99688 -1.17691,1.75424 -1.55267,2.73198c-0.28,0.72857 -0.10398,1.58151 -0.38495,2.30971c-0.93902,2.43363 -2.68537,5.38315 -4.00263,7.64276c-0.78225,1.34187 -1.02176,3.05854 -2.13479,4.1419c-2.72235,2.64978 -5.28583,1.8859 -8.38869,3.19965c-1.57542,0.66703 -3.16035,1.39573 -4.84512,1.69311c-1.87452,-0.00174 -2.94486,-0.20376 -4.61255,0.31132c-4.19087,1.29437 -8.45658,5.08341 -12.99015,4.69591c-0.5554,-0.04747 -1.08479,-0.22848 -1.61041,-0.42878z" fill="#ff0000"/><path d="M234.29901,220.61025c-1.25541,0.1597 -2.58489,0.23768 -3.74313,0.00796c-1.71073,-0.33929 -3.74742,-2.03761 -4.66862,-3.4428c-0.39629,-0.60449 -0.43671,-1.38682 -0.77747,-2.02426c-0.68521,-1.28176 -1.61551,-2.46577 -2.03017,-3.85878c-0.19737,-0.66306 -0.15323,-1.3962 -0.42924,-2.03057c-0.47512,-1.09197 -1.55108,-1.86612 -1.96815,-2.98156c-1.37535,-3.67832 -0.95326,-8.06234 -0.26661,-11.84341c0.87302,0.17159 1.82013,0.12321 2.61905,0.51477c0.50124,0.24566 0.65069,0.91857 1.06616,1.29138c0.89664,0.80456 1.87673,1.55965 2.61325,2.50799c-0.00822,-0.05404 -0.01734,-0.10772 -0.02826,-0.16074c-0.22869,-1.10926 -0.26405,-2.25477 -0.26584,-3.38735c-0.0037,-2.34123 0,-4.68249 0,-7.02372c0,-2.43094 -0.13243,-4.73749 1.04308,-6.95812c0.37094,-0.70073 0.53964,-1.89903 1.32908,-1.97259c2.29053,-0.21343 3.70204,3.29076 4.54363,4.76834c0.34636,0.86778 1.01274,1.76956 1.40659,2.68666c0.24515,-0.98442 0.56468,-1.96016 0.64198,-2.97015c0.08881,-1.16033 0.42242,-2.29483 0.77265,-3.40461c0.27982,-0.88668 0.01853,-1.87195 0.21261,-2.78126c0.28589,-1.33942 0.76563,-2.63595 1.29205,-3.90034c0.63641,-1.52856 1.71611,-4.29329 4.06089,-3.60675c3.21835,0.94231 2.90714,5.18793 4.66496,7.38467c0.81679,2.36528 1.42892,4.82678 2.46315,7.10679c0.14862,0.32765 0.76985,2.31823 1.44212,2.19267c1.28702,-0.24037 0.63095,-1.37223 0.8755,-2.26109c0.13525,-0.49163 0.57623,-0.8511 0.76433,-1.32503c0.53077,-1.33732 1.32552,-4.79648 3.28227,-4.89543c0.98348,-0.04973 1.65307,1.17546 2.15091,2.02509c0.29608,0.5053 0.00877,1.17279 0.06449,1.75579c0.21642,2.26451 0.16295,4.53796 0.48548,6.79563c0.0012,2.47987 0.69157,4.67151 1.40712,7.00988c0.18959,0.61957 0.62676,1.15698 0.75085,1.79292c0.32676,1.67456 0.2441,4.81833 -0.27981,6.44258c-0.20231,0.6272 -0.74047,1.1037 -0.97688,1.71886c-0.17617,0.45839 -0.06542,0.99503 -0.2422,1.45318c-0.5908,1.53115 -1.68954,3.38688 -2.51831,4.80854c-0.49216,0.84425 -0.64285,1.92432 -1.34313,2.60593c-1.7128,1.66714 -3.32565,1.18654 -5.27785,2.0131c-0.99119,0.41967 -1.98838,0.87814 -3.04837,1.06524c-1.17938,-0.00109 -1.85279,-0.1282 -2.90204,0.19587c-2.63674,0.81437 -5.32056,3.19829 -8.17292,2.95449c-0.34944,-0.02987 -0.68251,-0.14375 -1.01321,-0.26977z" fill="#ffb900"/><path d="M238.28253,219.97325c-0.76608,0.09745 -1.57737,0.14504 -2.28416,0.00486c-1.04393,-0.20705 -2.28677,-1.2434 -2.84891,-2.10088c-0.24182,-0.36888 -0.26649,-0.84627 -0.47443,-1.23525c-0.41813,-0.78216 -0.98583,-1.50468 -1.23886,-2.35473c-0.12044,-0.40462 -0.0935,-0.852 -0.26193,-1.23911c-0.28993,-0.66635 -0.94651,-1.13876 -1.20102,-1.81942c-0.83927,-2.24461 -0.5817,-4.91985 -0.16269,-7.22716c0.53274,0.10471 1.11069,0.07519 1.59822,0.31412c0.30587,0.14991 0.39707,0.56054 0.6506,0.78803c0.54715,0.49096 1.14523,0.95174 1.59467,1.53044c-0.00502,-0.03297 -0.01058,-0.06574 -0.01725,-0.09809c-0.13955,-0.6769 -0.16113,-1.37592 -0.16223,-2.06705c-0.00226,-1.42868 0,-2.85738 0,-4.28606c0,-1.48342 -0.08081,-2.89094 0.63651,-4.24603c0.22636,-0.4276 0.3293,-1.15884 0.81104,-1.20372c1.39774,-0.13024 2.25908,2.00811 2.77264,2.90976c0.21136,0.52954 0.618,1.07983 0.85833,1.63947c0.1496,-0.60072 0.34458,-1.19614 0.39176,-1.81246c0.0542,-0.70807 0.25777,-1.40037 0.47149,-2.07758c0.17076,-0.54108 0.0113,-1.14231 0.12974,-1.6972c0.17446,-0.81735 0.46721,-1.60853 0.78844,-2.38009c0.38835,-0.93277 1.04721,-2.61988 2.47806,-2.20094c1.96392,0.57502 1.77401,3.16581 2.84668,4.50632c0.49843,1.44335 0.87197,2.94542 1.50308,4.33675c0.09069,0.19994 0.46978,1.41464 0.88002,1.33803c0.78537,-0.14668 0.38503,-0.83737 0.53425,-1.37978c0.08254,-0.3 0.35163,-0.51937 0.46641,-0.80857c0.32389,-0.81607 0.80887,-2.92693 2.00293,-2.98732c0.60014,-0.03035 1.00874,0.7173 1.31254,1.23576c0.18068,0.30835 0.00535,0.71567 0.03935,1.07143c0.13207,1.38186 0.09944,2.76918 0.29625,4.14687c0.00073,1.51328 0.42201,2.85068 0.85866,4.27761c0.11569,0.37808 0.38246,0.70602 0.45819,1.09409c0.1994,1.02186 0.14896,2.94027 -0.17075,3.93143c-0.12346,0.38273 -0.45185,0.67351 -0.59612,1.04889c-0.1075,0.27972 -0.03992,0.60719 -0.1478,0.88677c-0.36052,0.93434 -1.031,2.06676 -1.53673,2.93429c-0.30033,0.51519 -0.39229,1.17427 -0.81961,1.59021c-1.0452,1.01733 -2.0294,0.72406 -3.22068,1.22845c-0.60485,0.2561 -1.21336,0.53587 -1.86019,0.65004c-0.71969,-0.00067 -1.13062,-0.07823 -1.7709,0.11952c-1.60901,0.49695 -3.24675,1.95168 -4.98733,1.80291c-0.21324,-0.01823 -0.41648,-0.08772 -0.61829,-0.16462z" fill="#f9ff00"/></g></g></g></svg>