<svg version="1.1" xmlns="http://www.w3.org/2000/svg" xmlns:xlink="http://www.w3.org/1999/xlink" width="134.31683" height="228.30673" viewBox="0,0,134.31683,228.30673"><defs><linearGradient x1="177.79328" y1="112.8159" x2="259.88214" y2="112.8159" gradientUnits="userSpaceOnUse" id="color-1"><stop offset="0" stop-color="#ffffff"/><stop offset="1" stop-color="#1a1a1a"/></linearGradient><linearGradient x1="205.50037" y1="243.37636" x2="249.77691" y2="243.37636" gradientUnits="userSpaceOnUse" id="color-2"><stop offset="0" stop-color="#ffffff"/><stop offset="1" stop-color="#1a1a1a"/></linearGradient><linearGradient x1="178.15247" y1="161.51185" x2="283.4929" y2="161.51185" gradientUnits="userSpaceOnUse" id="color-3"><stop offset="0" stop-color="#ff0000"/><stop offset="1" stop-color="#ff8484"/></linearGradient></defs><g transform="translate(-172.8416,-65.84666)"><g data-paper-data="{&quot;isPaintingLayer&quot;:true}" fill-rule="nonzero" stroke="none" stroke-linecap="butt" stroke-linejoin="miter" stroke-miterlimit="10" stroke-dasharray="" stroke-dashoffset="0" style="mix-blend-mode: normal"><path d="M253.10005,130.85528l0.17881,-1.42847c1.30635,-3.08271 1.28933,-6.86852 1.22121,-10.62799c-0.06052,0.11889 -0.11437,0.24066 -0.15877,0.36647c-1.40183,3.97185 -1.63707,8.13358 -4.35449,11.64084c-1.77227,2.28739 -4.11501,4.47344 -6.01861,6.69073c-1.16546,1.59773 -2.32388,2.56404 -3.56985,3.43265c0.95971,0.02028 1.89169,-0.01916 2.72893,-0.19575c0.94308,-0.19891 1.88817,-0.42081 2.83754,-0.60887c0.23226,-0.5688 0.6008,-0.93734 0.6008,-0.93734c2.14155,-2.1395 4.53666,-4.9003 6.8877,-7.00407c-0.35327,-0.64995 -0.35327,-1.32819 -0.35327,-1.32819zM259.68379,103.21361c0.5693,-1.27163 -0.62733,-1.59666 -1.21038,-2.544c-1.04972,-1.70561 -2.19384,-3.36191 -3.08782,-5.15406c-1.17867,-2.36286 -2.81496,-6.66257 -3.25327,-9.25981c-0.14486,-0.85841 0.28325,-1.75971 0.09601,-2.60989c-0.36834,-1.67245 -4.39418,-3.06161 -5.35118,-3.61008c-3.14364,-1.80164 -6.77797,-4.06806 -9.73889,-6.15238c-0.68294,-0.48075 -0.99809,-1.4003 -1.71786,-1.82391c-1.48387,-0.87331 -4.83737,-0.86098 -6.5667,-1.21636c-4.81922,0 -6.99779,3.63252 -11.61199,4.92842c-2.79431,0.78478 -5.87639,1.72306 -8.56725,2.8411c-0.86092,0.35771 -1.39903,1.32076 -2.28386,1.61437c-0.68866,0.22851 -1.49354,-0.39146 -2.17254,-0.13564c-1.45568,0.54845 -1.2503,2.93174 -2.35027,4.0317c-1.47475,1.47475 -3.27378,2.67408 -5.19334,3.48958c-2.81525,1.19601 -7.36517,1.23029 -8.79165,4.76193c-0.35926,0.88947 -0.10972,1.94269 -0.43674,2.84451c-0.33879,0.93426 -1.18671,1.62764 -1.52396,2.56246c-0.15505,0.42979 -1.1332,5.37565 -1.36304,6.52446c-0.60066,3.60401 -0.81044,7.49757 -1.50414,11.02206c-0.17333,0.88063 -0.83845,1.61713 -1,2.5c-0.168,0.91815 0.1539,1.87486 0.03018,2.80003c-0.31513,2.35652 -1.28268,4.60576 -1.49724,6.97355c-0.09796,1.08109 0.20717,2.19906 -0.03889,3.25632c-0.48889,2.10057 -2.11565,3.84686 -2.49405,5.97011c-0.40224,2.25704 -0.1673,5.48091 0.03294,7.78089c0.28716,3.29817 2.84415,7.03312 4.53274,10.19045c2.74209,-4.3618 4.87808,-8.22809 9.21273,-11.51075l3.14653,-1.07048c0,0 0.18376,-0.0525 0.46418,-0.07767c0.40004,-0.47243 0.78629,-0.95618 1.15596,-1.45185l0.76393,-1.61804c0,0 0.13951,-0.27902 0.41853,-0.59065c-0.14803,-1.16846 -0.3221,-2.39093 -0.98463,-3.67459c-0.92554,-1.79324 -2.59651,-3.21493 -3.19546,-5.142c-0.55266,-1.77814 -0.58884,-3.70463 -1.25566,-5.44317c-4.05508,-9.56063 0.43854,-17.17704 5.52667,-25.24587c0.99854,-1.58349 1.37772,-3.48779 2.23218,-5.15345c3.65718,-7.12928 11.09449,-11.18191 18.71269,-12.14205c0.42401,-0.63972 1.06373,-0.95957 1.06373,-0.95957l0.4597,-0.21726c4.13145,-2.57272 6.69882,-3.65891 11.61877,-3.63341c4.92472,2.6827 8.41919,6.57452 12.21927,10.73457c1.99407,2.18296 4.28958,4.11818 6.01329,6.52036c0.96517,1.34508 1.50846,2.95988 2.46044,4.31433c1.49352,2.12493 2.87991,1.81994 3.97992,4.53773c0.61187,1.51172 0.75462,2.90084 0.65151,4.24451c0.90853,-1.30728 1.78382,-2.63258 2.3989,-4.00647zM178.81552,158.37061c-1.88731,-4.25767 -5.18819,-8.55719 -5.7033,-13.269c-0.28756,-2.63037 -0.44042,-6.65139 0.03294,-9.21911c0.39461,-2.14056 2.02146,-3.90788 2.50595,-6.0299c0.20359,-0.89171 -0.12196,-1.8328 -0.03889,-2.74367c0.10448,-1.14564 1.44214,-6.57048 1.50276,-7.02645c0.14057,-1.05741 -0.15954,-2.15027 0.03018,-3.19997c0.15963,-0.88322 0.821,-1.6205 1,-2.5c0.70756,-3.47642 0.89991,-7.4023 1.49586,-10.97794c0.3566,-1.78364 1.25297,-6.39045 1.63696,-7.47554c0.31688,-0.89545 1.15066,-1.54514 1.47604,-2.43753c0.36601,-1.00382 0.09347,-2.19586 0.56326,-3.1555c2.39315,-4.88846 6.81534,-5.44888 11.20835,-7.23806c1.4077,-0.57332 2.73188,-1.43564 3.80666,-2.51042c1.45306,-1.45306 1.85936,-3.9597 3.64974,-4.9683c0.8221,-0.46313 1.93272,0.16394 2.82746,-0.13564c0.69719,-0.23343 1.03776,-1.10214 1.71614,-1.38564c1.30714,-0.54626 2.79599,-0.54242 4.11772,-1.05236c0.92496,-0.35685 1.63356,-1.15682 2.55521,-1.52211c1.67972,-0.66574 3.62589,-0.57309 5.24123,-1.38264c1.73288,-0.86845 2.85632,-2.71399 4.60432,-3.5516c1.94988,-0.93435 4.24284,-0.72179 6.30229,-0.72179c2.38931,0.46706 6.29896,0.64329 8.4333,1.78365c0.92708,0.49533 1.41953,1.57545 2.28213,2.17608c2.8526,1.9863 6.22277,4.11671 9.26112,5.84762c2.85703,1.62761 6.43725,2.88329 7.64882,6.38992c0.36918,1.06851 -0.08752,2.27461 0.09601,3.39011c0.36236,2.20244 1.75231,5.75691 2.74673,7.74019c1.80119,3.59229 5.96303,6.79086 4.7018,11.30194c-0.8104,2.89857 -3.45808,5.64227 -5.06033,8.19478c-0.64079,5.02566 0.2309,10.31974 -0.63394,15.26846c0.62312,-0.99584 1.18244,-2.05795 1.92946,-2.94504c4.42268,-5.25194 8.95589,-10.36145 13.37596,-15.65162c0.04898,-0.36732 0.20034,-0.76821 0.50493,-1.19464c0.04733,-0.06626 0.09528,-0.12883 0.14375,-0.18786c0.03771,-0.04747 0.07789,-0.09502 0.12059,-0.14209c0.53458,-5.08468 2.29783,-8.60493 4.50866,-13.28296c0.38799,-0.82097 2.56854,-6.08859 3.59738,-6.79981c4.68581,-3.23924 6.65895,-1.46199 8.73091,3.83351c0.51358,1.31258 0.60531,2.41103 0.44962,3.42199c3.14952,-1.99403 7.36784,-2.15968 8.90877,2.67064c0.30043,0.94173 0.02235,1.91517 -0.32834,2.89258c2.96294,-0.30466 6.49742,3.0323 6.39242,6.27667c-0.04789,1.47955 -1.36163,2.65671 -2.31197,3.79171c-3.56957,4.26313 -10.72325,3.3971 -12.8796,8.96352l-0.86343,1.1163c0,0 -1.76776,1.76776 -3.53553,0c-0.02407,-0.02407 -0.0475,-0.04815 -0.07028,-0.07222c-0.29204,0.48666 -0.72978,0.76516 -1.13516,0.92454c-1.33405,2.02698 -0.23143,4.31265 -0.94348,7.02007c-0.32139,1.22199 -0.95254,2.34313 -1.51281,3.47567c-2.19961,4.4463 -6.09044,7.73002 -8.377,12.08357c-1.58808,3.02366 -3.00189,6.08743 -4.71445,9.08353c-2.43588,3.87626 -5.53505,7.37845 -8.64475,10.74903c-1.87099,2.02795 -4.86162,4.08606 -5.80631,6.78909c-1.11576,3.19253 -0.53053,8.40376 -0.528,11.84562c0.00646,8.78191 -0.33334,17.54679 -0.33334,26.33334c0,0 0,2.00463 -1.79508,2.42375c-0.43583,0.26262 -0.82925,0.35005 -0.82925,0.35005c-0.796,0.17689 -1.59201,0.35378 -2.38802,0.53067c0.00051,0.12264 0.00426,0.24355 0.01236,0.3622c0.26724,3.91434 -0.72122,7.89145 -0.34533,11.75532c0.59151,6.08036 3.87217,11.48435 4.33806,17.72072c0.70349,9.41696 -0.19007,18.91586 -1.41308,28.17783c-0.51282,1.22504 -1.01443,2.97565 -1.66492,4.62747c0.89628,-0.03467 1.79215,-0.04989 2.68528,-0.048c1.88872,0.004 5.51548,-0.26018 7.09874,1.07801c1.04944,0.887 1.32557,2.41917 1.79762,3.70962c1.80401,4.93169 1.01141,9.70238 -4.58061,11.57553c-2.84955,0.95451 -7.25372,1.20403 -10.31575,1.13683c-1.1099,-0.02436 -2.29263,0.2609 -3.32752,-0.14093c-0.55433,-0.21524 -4.95054,-3.78023 -5.70354,-4.38274c-1.64532,-1.31158 -2.95514,-3.1165 -3.79014,-5.04785l-0.17881,-2.92848c0,0 0,-0.33112 0.1205,-0.75234c-0.43072,-0.23978 -0.79846,-0.51177 -1.08594,-0.81661c-2.05823,-2.18252 -1.63312,-8.01025 -1.63457,-10.66438c-0.00338,-6.17292 0.24921,-12.40314 0.00185,-18.57073c-0.06737,-1.6797 -0.03581,-4.19311 -0.49912,-6.32411l-0.01106,0.01483c-3.55805,2.07893 -2.82733,4.24306 -4.36047,7.86481c-2.38609,5.63668 -4.32066,11.33496 -6.65483,16.97191c-0.91908,2.21956 -0.96228,4.78 -2.10686,6.89212c-0.47543,0.87731 -1.38918,1.94223 -2.45773,2.96358c0.91976,0.34085 1.79707,0.80906 2.5832,1.3463c1.04685,0.71542 2.45149,1.07534 3.14857,2.1345c2.93978,4.46679 -0.27032,8.14561 -3.61633,10.4927c-1.05436,0.73959 -1.87473,1.90882 -3.09969,2.30649c-4.87415,1.58233 -8.84752,-1.28931 -10.26064,-5.78469c-0.28489,-0.90629 -0.02898,-3.5793 0.06141,-4.78381l-1.12829,-1.29057c0,0 -1.5,-2 0.5,-3.5l0.00001,-0.00004c0.32586,-0.24439 0.63844,-0.39587 0.93342,-0.47824c0.07765,-0.50541 0.24839,-0.88936 0.469,-1.18068l-0.83576,-0.07442c0,-11.91092 -2.34543,-23.6243 -2.32951,-35.52841c-0.704,-6.26025 -1.7004,-12.39475 -2.00167,-18.70102c-0.04496,-0.94109 0.02962,-7.26604 0.1171,-7.53351c0.43249,-1.32244 1.12094,-2.32713 1.97989,-3.09886c-1.09915,-0.6927 -1.09915,-2.13819 -1.09915,-2.13819c0.0257,-4.695 -1.66879,-8.91484 -2.611,-13.47536c-1.44995,-7.01809 -1.39304,-13.86635 -1.38917,-20.96388c-3.19961,7.42731 -4.5026,17.09892 -2.72604,24.89692l-0.50386,1.32393l0.43257,1.75361c0.3682,1.16416 1.32242,2.29107 1.10461,3.49249c-0.2451,1.35192 -1.44236,2.35516 -2.35153,3.3853c-1.87455,2.124 -6.9709,6.88161 -10.28452,5.46706c-0.13846,-0.0591 -0.27083,-0.11794 -0.3973,-0.1765c-0.21452,0.25363 -0.47204,0.45938 -0.79203,0.5956c-1.52746,0.65018 -3.36426,-0.477 -4.80903,-1.29463c-5.1977,-2.94152 -3.67273,-11.57239 -3.67273,-16.33786c0,0 0,-0.1182 0.0257,-0.3032c-0.00496,-0.03758 -0.0094,-0.0758 -0.01329,-0.1147c-0.13279,-1.3279 0.51415,-2.01784 1.14621,-2.37253c-1.90369,-5.2723 -1.49195,-11.28725 -1.49195,-16.87623c0,-2.81405 -0.56204,-6.5218 0.06688,-9.24105c0.93169,-4.02833 3.47954,-7.01865 5.90644,-10.11436c-0.44656,-0.42065 -0.6578,-0.89593 -0.6578,-0.89593zM209.96623,282.77459c-0.04019,2.75579 -0.01847,7.91904 3.8063,6.2216c0.77553,-0.34418 1.20446,-1.20802 1.90031,-1.69351c0.60714,-0.4236 1.47166,-0.47082 1.9771,-1.01174c1.9375,-2.07351 -1.35777,-4.0003 -2.84046,-4.56397c-1.22455,-0.46554 -3.37696,0.41321 -4.84325,1.04762zM240.28127,281.75783c0.43994,0.84168 1.07866,1.60041 1.84984,2.12112c1.462,1.16938 2.57184,2.88885 4.29646,3.61726c1.49547,0.63162 5.36426,-0.41732 6.81187,-0.61478c0.51056,-0.06964 5.72359,-0.1572 5.92255,-2.07917c0.06187,-0.59767 -0.77591,-4.67599 -1.16067,-5.02499c-0.2838,-0.25743 -0.76452,0.05819 -1.1476,0.06585c-2.31983,0.04639 -5.12024,-0.40671 -7.4069,-0.012c-3.00837,0.51929 -6.17994,0.89963 -9.05618,1.89587c0,0 -0.03926,0.01309 -0.10936,0.03084zM286.52853,113.86742l2.44593,0.97837c0.00185,0.00069 0.00371,0.00139 0.00556,0.00208c1.28069,-1.71215 2.87887,-2.87121 5.19505,-4.10806c2.87135,-1.53332 5.78865,-1.71863 8.00221,-4.34744c0.84422,-1.00259 -2.61186,-0.25833 -3.88139,-0.62957l-2.87527,-0.31948c-1.2652,-0.12362 -2.2539,-1.19037 -2.2539,-2.48804c0,-0.85068 0.42488,-1.60213 1.07401,-2.0537l1.76904,-1.2636c0.20534,-0.56748 0.53717,-1.44245 0.16208,-1.23217c-0.44689,0.25053 -0.62149,0.84391 -1.05377,1.11887c-1.21137,0.77052 -2.25635,1.27171 -3.29114,1.64547l-3.58907,1.95767c-0.36495,0.20838 -0.78749,0.32746 -1.23782,0.32746c-1.38071,0 -2.5,-1.11929 -2.5,-2.5c0,-0.36938 0.08011,-0.72007 0.22391,-1.0356l0.97823,-2.28253l0.0238,0.0102l0.00612,-0.07727c1.33079,-2.49397 1.60737,-3.8775 0.53012,-6.55948c-0.05989,-0.14911 0.11983,0.32493 0.06844,0.47717c-0.18996,0.56278 -0.52251,1.06696 -0.77164,1.60616c-0.55179,1.19428 -1.06917,2.40442 -1.63098,3.59403c-2.03053,4.29955 -3.77717,7.34374 -4.10204,12.12574c0,0 -0.00001,0.00017 -0.00004,0.00051c1.62904,1.18628 3.17631,2.37933 4.66567,3.78331c0.48609,0.15189 1.06953,0.46601 1.40382,1.1156c0.37657,0.05172 0.63306,0.15432 0.63306,0.15432zM252.10006,142.18861c0,2.5 -2.5,2.5 -2.5,2.5c-1.86949,-0.02786 -3.69072,0.60418 -5.52724,0.95489c-2.61536,0.49944 -5.80403,0.04511 -8.47276,0.04511h-0.86286c-0.10628,0.077 -0.22002,0.14372 -0.34341,0.19731c-0.72133,0.31327 -6.63095,0.23603 -7.39373,0.23603c-4,0 -8,0.00127 -12,0c-4.10551,-0.0013 -7.13937,-0.32752 -10.98719,-1.42036c-1.07312,-0.30478 -2.37624,0.03732 -3.29268,-0.59877c-0.09706,-0.06736 -0.19062,-0.13492 -0.28082,-0.20266c-1.09511,1.43049 -2.3005,2.77984 -3.57154,4.05622c0,0 -1.56073,1.56073 -3.2157,0.28272c-3.38615,2.95526 -5.03505,6.52566 -7.53705,10.38244c-2.54738,3.92675 -6.53752,7.16009 -7.68189,11.90812c-0.55814,2.31573 0.06687,5.68895 0.06687,8.09229c0,4.83865 -0.60503,10.60841 1.17416,15.12219c0,0 0.19872,0.52992 0.15493,1.18005c3.51692,-0.02523 6.73107,0.53227 9.75279,2.23813c-0.8867,-8.10197 0.40832,-17.64886 3.985,-24.44808c-0.07913,-2.79907 -0.24564,-6.13701 1.52857,-8.54001c1.03027,-1.3954 1.93999,-4.05938 3.64059,-3.71798c2.16513,0.43466 3.07143,3.26875 4.03043,5.25799c0.08522,0.17676 0.06687,5.41221 0.06687,5.90771c0,4.88993 -0.40904,9.95952 -0.00573,14.8308c0.65099,7.86272 3.96986,15.30623 4.00573,23.1692c0,0 0,0.05946 -0.00917,0.16005c2.02884,-0.56122 4.25191,-0.73217 6.20371,-0.97465c9.28679,-1.15374 18.55885,-2.67694 27.97212,-2.68539c2.44396,0.01475 5.9722,-0.29274 8.21571,1.29848c0.42958,-0.09546 0.85918,-0.19093 1.28876,-0.28639c0.0392,-8.17688 0.3231,-16.33682 0.32886,-24.51209c0.00282,-4.00913 -0.52862,-9.73067 0.80533,-13.48771c1.23426,-3.47625 4.45294,-5.93761 6.86036,-8.54425c2.86476,-3.10182 5.79885,-6.33775 8.02192,-9.91763c1.67947,-2.93995 3.04228,-5.95929 4.61888,-8.91647c2.28574,-4.28732 6.08724,-7.57079 8.28967,-11.91644c1.71616,-3.38617 0.4311,-5.99559 1.55316,-9.4019c0.3606,-1.09471 1.39786,-1.83293 2.09679,-2.7494l0.37502,-0.14968c-0.04505,-0.06377 -0.08777,-0.13092 -0.1273,-0.20152l-1.76159,-0.61392c-1.32236,-1.33098 -2.70421,-2.42435 -4.15697,-3.49014c-4.24642,5.05786 -8.58664,9.96079 -12.82672,14.99588c-1.8089,2.14807 -2.51385,4.2934 -4.76857,6.07469c-0.66973,0.52911 -1.6841,0.48125 -2.35154,1.01325c-1.89119,1.50743 -3.82238,3.66025 -5.64231,5.6119c0.17193,0.32649 0.28053,0.73895 0.28053,1.26zM224.81606,83.60635c0.01136,0.11053 0.01733,0.22675 0.01733,0.34893c0,2.5 -2.5,2.5 -2.5,2.5c-6.76553,-0.00826 -14.58047,3.03662 -17.77221,9.63444c-0.87484,1.80844 -1.37587,3.80585 -2.43449,5.51322c-4.1265,6.65525 -8.5728,12.83844 -5.14,20.75412c0.69798,1.89445 0.88104,3.94203 1.41101,5.89016c0.44127,1.62208 2.06691,2.68079 2.80454,4.19134c0.6128,1.25492 0.92748,2.64048 1.24399,4.00069c0.04505,0.19361 -0.04218,2.98528 0.83371,3.36849c0.62354,0.2728 1.37946,-0.09342 2.04066,0.0679c0.80859,0.19728 1.48124,0.80372 2.29259,0.98933c5.09439,1.16537 11.15771,0.25699 16.38687,0.25699c2.22222,0 4.44667,-0.09937 6.66667,0c0.36076,0.01615 0.74154,0.22709 1.09762,0.29144c0.2979,-0.29152 0.65315,-0.46579 0.97142,-0.56996c0.20645,-0.39274 0.33242,-0.87687 0.66991,-1.14708c2.80744,-2.24779 4.55425,-2.30508 6.62623,-5.28261c1.90713,-2.22837 4.16389,-4.3698 5.98139,-6.64261c2.38599,-2.98371 2.44275,-6.95134 3.64551,-10.35915c0.27144,-0.76909 1.04915,-1.31007 1.25834,-2.09836c0.21359,-0.80483 -0.21913,-1.68488 -0.03864,-2.49777c0.56842,-2.5601 2.25795,-5.05965 1.15488,-7.88081c-0.58508,-1.49636 -2.42317,-2.15229 -3.35342,-3.46227c-0.97142,-1.36798 -1.52887,-3.00059 -2.50095,-4.3681c-1.61559,-2.27281 -3.81262,-4.0705 -5.69199,-6.13055c-2.91129,-3.19117 -6.02978,-7.10238 -9.78073,-9.26543c-2.37005,0.02533 -4.072,0.80858 -5.89022,1.89766zM178.79327,207.50922c0.0174,0.10734 0.65898,1.54586 1.11597,2.62484l0.26943,-2.42488c0.12362,-1.2652 1.19037,-2.2539 2.48804,-2.2539c0.99801,0 1.85943,0.58479 2.26029,1.4304l0.6783,1.35662c0.47647,0.48225 0.77689,0.99273 0.73597,1.59318c0.41611,-0.41012 0.92541,-0.73035 1.36862,-1.11468c1.95179,-1.69247 4.06162,-2.03449 2.58764,-3.96741l-0.2962,-1.17133c-0.47214,-0.22878 -0.76905,-0.52568 -0.76905,-0.52568l-0.21183,-0.21966c-2.90686,-2.66729 -6.4536,-3.11633 -10.22874,-2.90928c-0.11019,2.49984 -0.37586,5.25459 0.00155,7.58177zM210.14492,274.56964c0.28575,0.41622 0.37368,0.86488 0.37064,1.26583c3.76171,-0.91802 4.56432,-7.05246 5.84147,-10.17026c1.25133,-3.05479 2.14708,-6.16833 3.29832,-9.24399c1.2142,-3.24389 3.38216,-6.4176 4.26507,-9.7865c1.11844,-4.26759 1.51873,-5.58304 5.42131,-8.1328l-0.57774,0.3353c0,0 0.17544,-0.35087 0.52631,-0.70514c-0.26705,-0.63691 -0.32915,-1.50193 0.45587,-2.44395c1.60046,-1.92056 3.52102,-0.32009 3.52102,-0.32009c0.86442,0.79607 2.02812,1.35787 2.59325,2.3882c0.55969,1.02041 0.37816,2.2971 0.60294,3.43901c1.39602,7.09188 1.03668,14.2183 1.03668,21.42668c0,2.83711 -0.14512,5.67768 -0.00483,8.51132c0.06333,1.27916 -0.42584,2.82106 0.37027,3.82429c0.71936,0.90652 2.31065,0.16909 3.4679,0.16438c1.49773,-0.0061 3.30608,0.75743 4.49039,-0.15942c1.1671,-0.90353 1.81367,-4.59763 2.42996,-5.99444c1.01862,-8.71789 1.90381,-17.62778 1.25359,-26.48884c-0.45383,-6.18467 -3.73711,-11.53383 -4.32861,-17.61262c-0.29655,-3.04759 0.32322,-6.18463 0.32133,-9.24468c-0.00062,-1 -0.11376,-2.00649 0,-3c0.05948,-0.51955 0.88011,-1.10986 0.51324,-1.48252c-0.47054,-0.47796 -1.34103,-0.03726 -2.01173,-0.0396c-1.00052,-0.00349 -2.001,0.01475 -3.0015,0.02212c-9.20434,-0.0089 -18.28093,1.5062 -27.3612,2.64793c-1.7467,0.21963 -7.43291,-0.09955 -7.92472,2.61501c-0.49989,2.75912 0.16513,6.91475 0.43915,9.64481c0.49751,4.95664 1.12994,9.81536 1.67628,14.78732c0.01379,11.31249 2.07974,22.45243 2.31536,33.75264z" data-paper-data="{&quot;index&quot;:null}" fill="#000000" stroke-width="0.5"/><path d="M253.1493,130.8639c0,0 -0.00261,0.68764 0.35066,1.33759c-2.35104,2.10377 -4.79757,4.89631 -6.93912,7.03581c0,0 -0.37098,0.36824 -0.60324,0.93704c-0.94937,0.18806 -1.90577,0.40693 -2.84885,0.60584c-0.83724,0.17659 -1.7776,0.21173 -2.73731,0.19145c1.24597,-0.86861 2.45211,-1.92252 3.61757,-3.52025c1.9036,-2.21729 4.17866,-4.37531 5.95093,-6.6627c2.71742,-3.50726 2.97248,-7.6095 4.37431,-11.58135c0.0444,-0.12581 0.15212,-0.33183 0.21264,-0.45072c0.06812,3.75947 0.10817,7.5837 -1.19818,10.66641l-0.17942,1.44088z" data-paper-data="{&quot;noHover&quot;:false,&quot;origItem&quot;:[&quot;Path&quot;,{&quot;applyMatrix&quot;:true,&quot;segments&quot;:[[506.20009,261.71052],[[506.55771,258.85358],[0,0],[2.6127,-6.16542]],[[509.00013,237.5976],[0.13624,7.51894],[-0.12104,0.23778]],[[508.68259,238.33054],[0.0888,-0.25162],[-2.80366,7.9437]],[[499.97361,261.61222],[5.43484,-7.01452],[-3.54454,4.57478]],[[487.93639,274.99368],[3.8072,-4.43458],[-2.33092,3.19546]],[[480.79669,281.85898],[2.49194,-1.73722],[1.91942,0.04056]],[[486.25455,281.46748],[-1.67448,0.35318],[1.88616,-0.39782]],[[491.92963,280.24974],[-1.89874,0.37612],[0.46452,-1.1376]],[[493.13123,278.37506],[0,0],[4.2831,-4.279]],[[506.90663,264.36692],[-4.70208,4.20754],[-0.70654,-1.2999]],[506.20009,261.71054]],&quot;closed&quot;:true,&quot;fillColor&quot;:[0,0,0,1]}],&quot;index&quot;:null}" fill="#ffffff" stroke-width="0.5"/><path d="M259.73246,103.2022c-0.61508,1.37389 -1.58852,2.71784 -2.49705,4.02512c0.10311,-1.34367 -0.03855,-2.72739 -0.65042,-4.23911c-1.10001,-2.71779 -2.48403,-2.40583 -3.97755,-4.53076c-0.95198,-1.35445 -1.4922,-2.96321 -2.45737,-4.30829c-1.72371,-2.40218 -4.01172,-4.32774 -6.00579,-6.5107c-3.80008,-4.16005 -7.27625,-8.04017 -12.20097,-10.72287c-4.91995,-0.0255 -7.4725,1.06367 -11.60395,3.63639l-0.459,0.21729c0,0 -0.63806,0.31988 -1.06207,0.9596c-7.6182,0.96014 -15.02044,4.99838 -18.67762,12.12766c-0.85446,1.66566 -1.22702,3.56191 -2.22556,5.1454c-5.08813,8.06883 -9.57754,15.63792 -5.52246,25.19855c0.66682,1.73854 0.69866,3.65704 1.25132,5.43518c0.59895,1.92707 2.26373,3.34121 3.18927,5.13445c0.66253,1.28366 0.83292,2.50279 0.98095,3.67125c-0.27902,0.31163 -0.41859,0.5906 -0.41859,0.5906l-0.7644,1.61766c-0.36967,0.49567 -0.81829,1.05759 -1.21833,1.53002c-0.28042,0.02517 -0.4645,0.07741 -0.4645,0.07741l-3.14819,1.06907c-4.33465,3.28266 -6.47014,7.14939 -9.21223,11.51119c-1.68859,-3.15733 -4.25234,-6.89938 -4.5395,-10.19755c-0.20024,-2.29998 -0.43885,-5.52924 -0.03661,-7.78628c0.3784,-2.12325 2.00302,-3.8736 2.49191,-5.97417c0.24606,-1.05726 -0.06048,-2.17852 0.03748,-3.25961c0.21456,-2.36779 1.17984,-4.62466 1.49497,-6.98118c0.12372,-0.92517 -0.19881,-1.88553 -0.03081,-2.80368c0.16155,-0.88287 0.82634,-1.62262 0.99967,-2.50325c0.6937,-3.52449 0.90483,-7.4336 1.50549,-11.03761c0.22984,-1.14881 1.21104,-6.1034 1.36609,-6.53319c0.33725,-0.93482 1.18704,-1.63188 1.52583,-2.56614c0.32702,-0.90182 0.07937,-1.95814 0.43863,-2.84761c1.42648,-3.53164 5.98511,-3.57591 8.80036,-4.77192c1.91956,-0.8155 3.72616,-2.02032 5.20091,-3.49507c1.09997,-1.09996 0.89965,-3.48586 2.35533,-4.03431c0.679,-0.25582 1.48643,0.36309 2.17509,0.13458c0.88483,-0.29361 1.42654,-1.25788 2.28746,-1.61559c2.69086,-1.11804 5.78503,-2.05834 8.57934,-2.84312c4.6142,-1.2959 6.80653,-4.9271 11.62575,-4.9271c1.72933,0.35538 5.09007,0.34537 6.57394,1.21868c0.71977,0.42361 1.03735,1.34422 1.72029,1.82497c2.96092,2.08432 6.60648,4.35799 9.75012,6.15963c0.957,0.54847 4.98799,1.94273 5.35633,3.61518c0.18724,0.85018 -0.23944,1.75319 -0.09458,2.6116c0.43831,2.59724 2.08071,6.90674 3.25938,9.2696c0.89398,1.79215 2.04071,3.45519 3.09043,5.1608c0.58305,0.94734 1.78055,1.27558 1.21125,2.54721z" data-paper-data="{&quot;noHover&quot;:false,&quot;origItem&quot;:[&quot;Path&quot;,{&quot;applyMatrix&quot;:true,&quot;segments&quot;:[[[259.68379,103.21359],[0,0],[0.5693,-1.27163]],[[258.47341,100.66959],[0.58305,0.94734],[-1.04972,-1.70561]],[[255.38559,95.51553],[0.89398,1.79215],[-1.17867,-2.36286]],[[252.13232,86.25572],[0.43831,2.59724],[-0.14486,-0.85841]],[[252.22833,83.64583],[0.18724,0.85018],[-0.36834,-1.67245]],[[246.87715,80.03575],[0.957,0.54847],[-3.14364,-1.80164]],[[237.13826,73.88337],[2.96092,2.08432],[-0.68294,-0.48075]],[[235.4204,72.05946],[0.71977,0.42361],[-1.48387,-0.87331]],[[228.8537,70.8431],[1.72933,0.35538],[-4.81922,0]],[[217.24171,75.77152],[4.6142,-1.2959],[-2.79431,0.78478]],[[208.67446,78.61262],[2.69086,-1.11804],[-0.86092,0.35771]],[[206.3906,80.22699],[0.88483,-0.29361],[-0.68866,0.22851]],[[204.21806,80.09135],[0.679,-0.25582],[-1.45568,0.54845]],[[201.86779,84.12305],[1.09997,-1.09996],[-1.47475,1.47475]],[[196.67445,87.61263],[1.91956,-0.8155],[-2.81525,1.19601]],[[187.8828,92.37456],[1.42648,-3.53164],[-0.35926,0.88947]],[[187.44606,95.21907],[0.32702,-0.90182],[-0.33879,0.93426]],[[185.9221,97.78153],[0.33725,-0.93482],[-0.15505,0.42979]],[[184.55906,104.30599],[0.22984,-1.14881],[-0.60066,3.60401]],[[183.05492,115.32805],[0.6937,-3.52449],[-0.17333,0.88063]],[[182.05492,117.82805],[0.16155,-0.88287],[-0.168,0.91815]],[[182.0851,120.62808],[0.12372,-0.92517],[-0.31513,2.35652]],[[180.58786,127.60163],[0.21456,-2.36779],[-0.09796,1.08109]],[[180.54897,130.85795],[0.24606,-1.05726],[-0.48889,2.10057]],[[178.05492,136.82806],[0.3784,-2.12325],[-0.40224,2.25704]],[[178.08786,144.60895],[-0.20024,-2.29998],[0.28716,3.29817]],[[182.6206,154.7994],[-1.68859,-3.15733],[2.74209,-4.3618]],[[191.83333,143.28865],[-4.33465,3.28266],[0,0]],[194.97986,142.21817],[[195.44404,142.1405],[-0.28042,0.02517],[0.40004,-0.47243]],[[196.6,140.68865],[-0.36967,0.49567],[0,0]],[197.36393,139.07061],[[197.78246,138.47996],[-0.27902,0.31163],[-0.14803,-1.16846]],[[196.79783,134.80537],[0.66253,1.28366],[-0.92554,-1.79324]],[[193.60237,129.66337],[0.59895,1.92707],[-0.55266,-1.77814]],[[192.34671,124.2202],[0.66682,1.73854],[-4.05508,-9.56063]],[[197.87338,98.97433],[-5.08813,8.06883],[0.99854,-1.58349]],[[200.10556,93.82088],[-0.85446,1.66566],[3.65718,-7.12928]],[[218.81825,81.67883],[-7.6182,0.96014],[0.42401,-0.63972]],[219.88198,80.71926],[[220.34168,80.502],[0,0],[4.13145,-2.57272]],[[231.96045,76.86859],[-4.91995,-0.0255],[4.92472,2.6827]],[[244.17972,87.60316],[-3.80008,-4.16005],[1.99407,2.18296]],[[250.19301,94.12352],[-1.72371,-2.40218],[0.96517,1.34508]],[[252.65345,98.43785],[-0.95198,-1.35445],[1.49352,2.12493]],[[256.63337,102.97558],[-1.10001,-2.71779],[0.61187,1.51172]],[[257.28488,107.22009],[0.10311,-1.34367],[0.90853,-1.30728]],[[259.68378,103.21362],[-0.61508,1.37389],[0,0]]],&quot;closed&quot;:true,&quot;fillColor&quot;:[0,0,0],&quot;strokeWidth&quot;:0.5}],&quot;index&quot;:null}" fill="url(#color-1)" stroke-width="0.25"/><path d="M224.8174,83.55638c1.81822,-1.08908 3.52968,-1.87116 5.89973,-1.89649c3.75095,2.16305 6.88975,6.08396 9.80104,9.27513c1.87937,2.06005 4.08708,3.86946 5.70267,6.14227c0.97208,1.36751 1.53395,3.00851 2.50537,4.37649c0.93025,1.30998 2.77074,1.97335 3.35582,3.46971c1.10307,2.82116 3.41484,3.83458 2.84642,6.39468c-0.18049,0.81289 -0.74819,4.19753 -0.96178,5.00236c-0.20919,0.78829 2.01233,3.3335 1.74089,4.10259c-1.20276,3.40781 -1.26804,3.39402 -3.65403,6.37773c-0.58509,0.73167 -0.21691,2.45089 -0.86836,3.1642c-1.37217,1.50247 -1.83144,5.9787 -3.12462,7.48971c-2.07198,2.97753 -4.83169,1.54129 -7.63913,3.78908c-0.33749,0.27021 -7.46502,-0.74517 -7.67147,-0.35243c-0.31827,0.10417 -0.67523,0.27891 -0.97313,0.57043c-0.35608,-0.06435 -0.73845,-0.27491 -1.09921,-0.29106c-2.22,-0.09937 -4.45547,0.0012 -6.67769,0.0012c-5.22916,0 -11.31685,0.90196 -16.41124,-0.26341c-0.81135,-0.18561 -1.48712,-0.79396 -2.29571,-0.99124c-0.6612,-0.16132 -1.41915,0.20348 -2.04269,-0.06932c-0.87589,-0.38321 -0.79182,-3.17742 -0.83687,-3.37103c-0.31651,-1.36021 -0.63531,-2.7498 -1.24811,-4.00472c-0.73763,-1.51055 -2.36826,-2.57573 -2.80953,-4.19781c-0.52997,-1.94813 -0.71755,-4.00445 -1.41553,-5.8989c-3.4328,-7.91568 1.01445,-14.13804 5.14095,-20.79329c1.05862,-1.70737 1.56601,-3.71517 2.44085,-5.52361c3.19174,-6.59782 11.04237,-9.66149 17.8079,-9.65323c0,0 2.50483,-0.0001 2.50483,-2.5001c0,-0.12218 -0.00865,-0.13844 -0.02001,-0.24897z" data-paper-data="{&quot;noHover&quot;:false,&quot;origItem&quot;:[&quot;Path&quot;,{&quot;applyMatrix&quot;:true,&quot;segments&quot;:[[[224.81605,83.60633],[0,0],[0.01136,0.11053]],[[224.83338,83.95526],[0,-0.12218],[0,2.5]],[[222.33338,86.45526],[0,0],[-6.76553,-0.00826]],[[204.56117,96.0897],[3.19174,-6.59782],[-0.87484,1.80844]],[[202.12668,101.60292],[1.05862,-1.70737],[-4.1265,6.65525]],[[196.98668,122.35704],[-3.4328,-7.91568],[0.69798,1.89445]],[[198.39769,128.2472],[-0.52997,-1.94813],[0.44127,1.62208]],[[201.20223,132.43854],[-0.73763,-1.51055],[0.6128,1.25492]],[[202.44622,136.43923],[-0.31651,-1.36021],[0.04505,0.19361]],[[203.27993,139.80772],[-0.87589,-0.38321],[0.62354,0.2728]],[[205.32059,139.87562],[-0.6612,-0.16132],[0.80859,0.19728]],[[207.61318,140.86495],[-0.81135,-0.18561],[5.09439,1.16537]],[[224.00005,141.12194],[-5.22916,0],[2.22222,0]],[[230.66672,141.12194],[-2.22,-0.09937],[0.36076,0.01615]],[[231.76434,141.41338],[-0.35608,-0.06435],[0.2979,-0.29152]],[[232.73576,140.84342],[-0.31827,0.10417],[0.20645,-0.39274]],[[233.40567,139.69634],[-0.33749,0.27021],[2.80744,-2.24779]],[[240.0319,134.41373],[-2.07198,2.97753],[1.90713,-2.22837]],[[246.01329,127.77112],[-1.8175,2.27281],[2.38599,-2.98371]],[[249.6588,117.41197],[-1.20276,3.40781],[0.27144,-0.76909]],[[250.91714,115.31361],[-0.20919,0.78829],[0.21359,-0.80483]],[[250.8785,112.81584],[-0.18049,0.81289],[0.56842,-2.5601]],[[252.03338,104.93503],[1.10307,2.82116],[-0.58508,-1.49636]],[[248.67996,101.47276],[0.93025,1.30998],[-0.97142,-1.36798]],[[246.17901,97.10466],[0.97208,1.36751],[-1.61559,-2.27281]],[[240.48702,90.97411],[1.87937,2.06005],[-2.91129,-3.19117]],[[230.70629,81.70868],[3.75095,2.16305],[-2.37005,0.02533]],[[224.81607,83.60634],[1.81822,-1.08908],[0,0]]],&quot;closed&quot;:true,&quot;fillColor&quot;:[0,0,0],&quot;strokeWidth&quot;:0.5}],&quot;index&quot;:null}" fill="#ffffff" stroke-width="0.25"/><path d="M286.50937,113.91364c0,0 -0.25895,-0.1037 -0.63552,-0.15542c-0.33429,-0.64959 -0.92422,-0.96744 -1.41031,-1.11933c-1.48936,-1.40398 -3.05281,-2.61516 -4.68185,-3.80144c0.00003,-0.00034 0.00004,-0.00051 0.00004,-0.00051c0.32487,-4.782 2.0781,-7.88229 4.10863,-12.18184c0.56181,-1.18961 1.09241,-2.41049 1.6442,-3.60477c0.24913,-0.5392 0.58699,-1.04596 0.77695,-1.60874c0.05139,-0.15224 -0.09047,-0.53373 -0.03058,-0.38462c1.07725,2.68198 0.81728,4.05453 -0.51351,6.5485l-0.00584,0.07699l-0.02376,-0.01024l-0.96866,2.26881c-0.1438,0.31553 -0.22121,0.65917 -0.22121,1.02855c0,1.38071 1.12094,2.47912 2.50165,2.47912c0.45033,0 0.77345,-0.10874 1.1384,-0.31712l3.65889,-2.00726c1.03479,-0.37376 2.09815,-0.8612 3.30952,-1.63172c0.43228,-0.27496 0.60601,-0.86935 1.0529,-1.11988c0.37509,-0.21028 0.04746,0.67016 -0.15788,1.23764l-1.76849,1.26444c-0.64913,0.45157 -1.06624,1.23077 -1.06624,2.08145c0,1.29767 0.89547,2.33835 2.16067,2.46197l2.87199,0.32626c1.26953,0.37124 4.81985,-0.33976 3.97563,0.66283c-2.21356,2.62881 -5.16012,2.84565 -8.03147,4.37897c-2.31618,1.23685 -3.94143,2.39869 -5.22212,4.11084c-0.00185,-0.00069 -0.00373,-0.00139 -0.00558,-0.00208l-2.45643,-0.98143z" data-paper-data="{&quot;noHover&quot;:false,&quot;origItem&quot;:[&quot;Path&quot;,{&quot;applyMatrix&quot;:true,&quot;segments&quot;:[[286.52852,113.8674],[[288.97445,114.84577],[0,0],[0.00185,0.00069]],[[288.98001,114.84785],[-0.00185,-0.00069],[1.28069,-1.71215]],[[294.17506,110.73979],[-2.31618,1.23685],[2.87135,-1.53332]],[[302.17727,106.39235],[-2.21356,2.62881],[0.84422,-1.00259]],[[298.29588,105.76278],[1.26953,0.37124],[0,0]],[[295.42061,105.4433],[0,0],[-1.2652,-0.12362]],[[293.16671,102.95526],[0,1.29767],[0,-0.85068]],[[294.24072,100.90156],[-0.64913,0.45157],[0,0]],[[296.00976,99.63796],[0,0],[0.20534,-0.56748]],[[296.17184,98.40579],[0.37509,-0.21028],[-0.44689,0.25053]],[[295.11807,99.52466],[0.43228,-0.27496],[-1.21137,0.77052]],[[291.82693,101.17013],[1.03479,-0.37376],[0,0]],[[288.23786,103.1278],[0,0],[-0.36495,0.20838]],[[287.00004,103.45526],[0.45033,0],[-1.38071,0]],[[284.50004,100.95526],[0,1.38071],[0,-0.36938]],[[284.72395,99.91966],[-0.1438,0.31553],[0,0]],[285.70218,97.63713],[285.72598,97.64733],[[285.7321,97.57006],[0,0],[1.33079,-2.49397]],[[286.26222,91.01058],[1.07725,2.68198],[-0.05989,-0.14911]],[[286.33066,91.48775],[0.05139,-0.15224],[-0.18996,0.56278]],[[285.55902,93.09391],[0.24913,-0.5392],[-0.55179,1.19428]],[[283.92804,96.68794],[0.56181,-1.18961],[-2.03053,4.29955]],[[279.826,108.81368],[0.32487,-4.782],[0,0]],[[279.82596,108.81419],[0.00003,-0.00034],[1.62904,1.18628]],[[284.49163,112.5975],[-1.48936,-1.40398],[0.48609,0.15189]],[[285.89545,113.7131],[-0.33429,-0.64959],[0.37657,0.05172]],[286.52851,113.86742]],&quot;closed&quot;:true,&quot;fillColor&quot;:[0,0,0],&quot;strokeWidth&quot;:0.5}],&quot;index&quot;:null}" fill="#ffffff" stroke-width="0.25"/><path d="M240.23229,281.74785c0.0701,-0.01775 0.10942,-0.03111 0.10942,-0.03111c2.87624,-0.99624 6.09317,-1.4162 9.10154,-1.93549c2.28666,-0.39471 5.13467,0.08456 7.4545,0.03817c0.38308,-0.00766 0.865,-0.32091 1.1488,-0.06348c0.38476,0.349 1.22697,4.45454 1.1651,5.05221c-0.19896,1.92197 -5.42466,2.03729 -5.93522,2.10693c-1.44761,0.19746 -5.38607,1.25058 -6.88154,0.61896c-1.72462,-0.72841 -2.85175,-2.48442 -4.31375,-3.6538c-0.77118,-0.52071 -1.40891,-1.29072 -1.84885,-2.1324z" data-paper-data="{&quot;noHover&quot;:false,&quot;origItem&quot;:[&quot;Path&quot;,{&quot;applyMatrix&quot;:true,&quot;segments&quot;:[[[240.28126,281.75781],[0,0],[0.43994,0.84168]],[[242.1311,283.87893],[-0.77118,-0.52071],[1.462,1.16938]],[[246.42756,287.49619],[-1.72462,-0.72841],[1.49547,0.63162]],[[253.23943,286.88141],[-1.44761,0.19746],[0.51056,-0.06964]],[[259.16198,284.80224],[-0.19896,1.92197],[0.06187,-0.59767]],[[258.00131,279.77725],[0.38476,0.349],[-0.2838,-0.25743]],[[256.85371,279.8431],[0.38308,-0.00766],[-2.31983,0.04639]],[[249.44681,279.8311],[2.28666,-0.39471],[-3.00837,0.51929]],[[240.39063,281.72697],[2.87624,-0.99624],[0,0]],[[240.28127,281.75781],[0.0701,-0.01775],[0,0]]],&quot;closed&quot;:true,&quot;fillColor&quot;:[0,0,0],&quot;strokeWidth&quot;:0.5}],&quot;index&quot;:null}" fill="#ffffff" stroke-width="0.25"/><path d="M214.81879,281.67786c1.48269,0.56367 4.81735,2.55094 2.87985,4.62445c-0.50544,0.54092 -1.38618,0.6148 -1.99332,1.0384c-0.69585,0.48549 -1.1619,1.3611 -1.93743,1.70528c-3.82477,1.69744 -3.88377,-3.54285 -3.84358,-6.29864c1.46629,-0.63441 3.66992,-1.53503 4.89447,-1.06949z" data-paper-data="{&quot;noHover&quot;:false,&quot;origItem&quot;:[&quot;Path&quot;,{&quot;applyMatrix&quot;:true,&quot;segments&quot;:[[[209.96622,282.77458],[1.46629,-0.63441],[-0.04019,2.75579]],[[213.77252,288.99618],[-3.82477,1.69744],[0.77553,-0.34418]],[[215.67283,287.30267],[-0.69585,0.48549],[0.60714,-0.4236]],[[217.64993,286.29093],[-0.50544,0.54092],[1.9375,-2.07351]],[[214.80947,281.72696],[1.48269,0.56367],[-1.22455,-0.46554]]],&quot;closed&quot;:true,&quot;fillColor&quot;:[0,0,0],&quot;strokeWidth&quot;:0.5}],&quot;index&quot;:null}" fill="#ffffff" stroke-width="0.25"/><path d="M178.74722,207.52872c-0.37741,-2.32718 -0.1036,-5.13406 0.00659,-7.6339c3.77514,-0.20705 7.40446,0.25217 10.31132,2.91946l0.21308,0.22233c0,0 0.29927,0.30368 0.77141,0.53246l0.29786,1.18203c1.47398,1.93292 -0.65427,2.31603 -2.60606,4.0085c-0.44321,0.38433 -0.96789,0.71307 -1.384,1.12319c0.04092,-0.60045 -0.26209,-1.11012 -0.73856,-1.59237l-0.68571,-1.35513c-0.40086,-0.84561 -1.31725,-1.46927 -2.31526,-1.46927c-1.29767,0 -2.27268,0.95228 -2.3963,2.21748l-0.34646,2.48709c-0.45699,-1.07898 -1.11049,-2.53454 -1.12789,-2.64188z" data-paper-data="{&quot;noHover&quot;:false,&quot;origItem&quot;:[&quot;Path&quot;,{&quot;applyMatrix&quot;:true,&quot;segments&quot;:[[[178.79326,207.5092],[0,0],[0.0174,0.10734]],[[179.90923,210.13404],[-0.45699,-1.07898],[0,0]],[[180.17866,207.70916],[0,0],[0.12362,-1.2652]],[[182.6667,205.45526],[-1.29767,0],[0.99801,0]],[[184.92699,206.88566],[-0.40086,-0.84561],[0,0]],[[185.60529,208.24228],[0,0],[0.47647,0.48225]],[[186.34126,209.83546],[0.04092,-0.60045],[0.41611,-0.41012]],[[187.70988,208.72078],[-0.44321,0.38433],[1.95179,-1.69247]],[[190.29752,204.75337],[1.47398,1.93292],[0,0]],[[190.00132,203.58204],[0,0],[-0.47214,-0.22878]],[189.23227,203.05636],[[189.02044,202.8367],[0,0],[-2.90686,-2.66729]],[[178.7917,199.92742],[3.77514,-0.20705],[-0.11019,2.49984]],[[178.79325,207.50919],[-0.37741,-2.32718],[0,0]]],&quot;closed&quot;:true,&quot;fillColor&quot;:[0,0,0],&quot;strokeWidth&quot;:0.5}],&quot;index&quot;:null}" fill="#ffffff" stroke-width="0.25"/><path d="M210.12049,274.61325c-0.23562,-11.30021 -2.32671,-22.49017 -2.3405,-33.80266c-0.54634,-4.97196 -1.16808,-9.85569 -1.66559,-14.81233c-0.27402,-2.73006 -0.93166,-6.89309 -0.43177,-9.65221c0.49181,-2.71456 6.18817,-2.40177 7.93487,-2.6214c9.08027,-1.14173 18.19737,-2.65781 27.40171,-2.64891c1.0005,-0.00737 2.00445,-0.02401 3.00497,-0.02052c0.6707,0.00234 1.54334,-0.4372 2.01388,0.04076c0.36687,0.37266 -0.45341,0.96317 -0.51289,1.48272c-0.11376,0.99351 0.00133,2.00119 0.00195,3.00119c0.00189,3.06005 -0.61055,6.20284 -0.314,9.25043c0.5915,6.07879 3.89034,11.46219 4.34417,17.64686c0.65022,8.86106 -0.25356,17.81193 -1.27218,26.52982c-0.61629,1.39681 -1.26928,5.0953 -2.43638,5.99883c-1.18431,0.91685 -2.9978,0.1559 -4.49553,0.162c-1.15725,0.00471 -2.75294,0.7438 -3.4723,-0.16272c-0.79611,-1.00323 -0.3391,-2.63981 -0.40243,-3.91897c-0.14029,-2.83364 -0.00124,-5.67159 -0.00124,-8.5087c0,-7.20838 0.33361,-14.27832 -1.06241,-21.3702c-0.22478,-1.14191 -0.036,-2.40239 -0.59569,-3.4228c-0.56513,-1.03033 -1.71632,-1.57944 -2.58074,-2.37551c0,0 -1.90504,-1.59315 -3.5055,0.32741c-0.78502,0.94202 -0.69458,1.71116 -0.42753,2.34807c-0.35087,0.35427 -0.52929,0.7043 -0.52929,0.7043l0.54908,-0.23961c-3.90258,2.54976 -4.24874,3.78504 -5.36718,8.05263c-0.88291,3.3689 -3.06236,6.53294 -4.27656,9.77683c-1.15124,3.07566 -2.0505,6.18724 -3.30183,9.24203c-1.27715,3.1178 -2.12565,9.34108 -5.88736,10.2591c0.00304,-0.40095 -0.08602,-0.85022 -0.37177,-1.26644z" data-paper-data="{&quot;noHover&quot;:false,&quot;origItem&quot;:[&quot;Path&quot;,{&quot;applyMatrix&quot;:true,&quot;segments&quot;:[[[210.14491,274.56964],[0,0],[0.28575,0.41622]],[[210.51555,275.83547],[0.00304,-0.40095],[3.76171,-0.91802]],[[216.35702,265.66521],[-1.27715,3.1178],[1.25133,-3.05479]],[[219.65534,256.42122],[-1.15124,3.07566],[1.2142,-3.24389]],[[223.92041,246.63472],[-0.88291,3.3689],[1.11844,-4.26759]],[[229.34172,238.50192],[-3.90258,2.54976],[0,0]],[228.76398,238.83722],[[229.29029,238.13208],[-0.35087,0.35427],[-0.26705,-0.63691]],[[229.74616,235.68813],[-0.78502,0.94202],[1.60046,-1.92056]],[[233.26718,235.36804],[0,0],[0.86442,0.79607]],[[235.86043,237.75624],[-0.56513,-1.03033],[0.55969,1.02041]],[[236.46337,241.19525],[-0.22478,-1.14191],[1.39602,7.09188]],[[237.50005,262.62193],[0,-7.20838],[0,2.83711]],[[237.49522,271.13325],[-0.14029,-2.83364],[0.06333,1.27916]],[[237.86549,274.95754],[-0.79611,-1.00323],[0.71936,0.90652]],[[241.33339,275.12192],[-1.15725,0.00471],[1.49773,-0.0061]],[[245.82378,274.9625],[-1.18431,0.91685],[1.1671,-0.90353]],[[248.25374,268.96806],[-0.61629,1.39681],[1.01862,-8.71789]],[[249.50733,242.47922],[0.65022,8.86106],[-0.45383,-6.18467]],[[245.17872,224.8666],[0.5915,6.07879],[-0.29655,-3.04759]],[[245.50005,215.62192],[0.00189,3.06005],[-0.00062,-1]],[[245.50005,212.62192],[-0.11376,0.99351],[0.05948,-0.51955]],[[246.01329,211.1394],[0.36687,0.37266],[-0.47054,-0.47796]],[[244.00156,211.0998],[0.6707,0.00234],[-1.00052,-0.00349]],[[241.00006,211.12192],[1.0005,-0.00737],[-9.20434,-0.0089]],[[213.63886,213.76985],[9.08027,-1.14173],[-1.7467,0.21963]],[[205.71414,216.38486],[0.49181,-2.71456],[-0.49989,2.75912]],[[206.15329,226.02967],[-0.27402,-2.73006],[0.49751,4.95664]],[[207.82957,240.81699],[-0.54634,-4.97196],[0.01379,11.31249]],[[210.14493,274.56963],[-0.23562,-11.30021],[0,0]]],&quot;closed&quot;:true,&quot;fillColor&quot;:[0,0,0],&quot;strokeWidth&quot;:0.5}],&quot;index&quot;:null}" fill="url(#color-2)" stroke-width="0.25"/><path d="M252.06304,142.22224c0,-0.52105 -0.10729,-0.93212 -0.27922,-1.25861c1.81993,-1.95165 3.82248,-4.17453 5.71367,-5.68196c0.66744,-0.532 1.68262,-0.4833 2.35235,-1.01241c2.25472,-1.78129 2.88761,-3.8573 4.69651,-6.00537c4.24008,-5.03509 8.65062,-10.0091 12.89704,-15.06696c1.45276,1.06579 2.83738,2.16205 4.15974,3.49303l1.76236,0.61482c0.03953,0.0706 0.08236,0.13788 0.12741,0.20165l-0.37508,0.14961c-0.69893,0.91647 -1.73582,1.65514 -2.09642,2.74985c-1.12206,3.40631 0.16621,6.02011 -1.54995,9.40628c-2.20243,4.34565 -6.00092,7.63442 -8.28666,11.92174c-1.5766,2.95718 -2.93647,5.984 -4.61594,8.92395c-2.22307,3.57988 -5.15503,6.82868 -8.01979,9.9305c-2.40742,2.60664 -5.62913,5.08686 -6.86339,8.56311c-1.33395,3.75704 -0.81507,9.49767 -0.81789,13.5068c-0.00576,8.17527 -0.30425,16.34483 -0.34345,24.52171c-0.42958,0.09546 -0.86039,0.19143 -1.28997,0.28689c-2.24351,-1.59122 -5.77922,-1.2814 -8.22318,-1.29615c-9.41327,0.00845 -18.71406,1.5297 -28.00085,2.68344c-1.9518,0.24248 -4.17952,0.4114 -6.20836,0.97262c0.00917,-0.10059 0.00912,-0.16008 0.00912,-0.16008c-0.03587,-7.86297 -3.36976,-15.31796 -4.02075,-23.18068c-0.40331,-4.87128 -0.00396,-9.95714 -0.00396,-14.84707c0,-0.4955 0.01593,-5.74053 -0.06929,-5.91729c-0.959,-1.98924 -1.86583,-4.83238 -4.03096,-5.26704c-1.7006,-0.3414 -2.51049,2.3205 -3.54076,3.7159c-1.77421,2.403 -1.60968,5.73026 -1.53055,8.52933c-3.57668,6.79922 -4.88176,16.32781 -3.99506,24.42978c-3.02172,-1.70586 -6.31552,-2.20326 -9.83244,-2.17803c0.04379,-0.65013 -0.15541,-1.1808 -0.15541,-1.1808c-1.77919,-4.51378 -1.17938,-10.29465 -1.17938,-15.1333c0,-2.40334 -0.62676,-5.78362 -0.06862,-8.09935c1.14437,-4.74803 5.13389,-7.99308 7.68127,-11.91983c2.502,-3.85678 4.15371,-7.44077 7.53986,-10.39603c1.65497,1.27801 3.21635,-0.28444 3.21635,-0.28444c1.27104,-1.27638 2.47961,-2.63227 3.57472,-4.06276c0.0902,0.06774 0.18374,0.13534 0.2808,0.2027c0.91644,0.63609 2.22048,0.29246 3.2936,0.59724c3.84782,1.09284 6.88819,1.41076 10.9937,1.41206c4,0.00127 8.02378,-0.01367 12.02378,-0.01367c0.76278,0 6.6956,0.07701 7.41693,-0.23626c0.12339,-0.05359 0.238,-0.1201 0.34428,-0.1971l0.86531,0.00067c2.66873,0 5.875,0.46382 8.49036,-0.03562c1.83652,-0.35071 3.66294,-0.97773 5.53243,-0.94987c0,0 2.42575,0.06698 2.42575,-2.43302z" data-paper-data="{&quot;noHover&quot;:false,&quot;origItem&quot;:[&quot;Path&quot;,{&quot;applyMatrix&quot;:true,&quot;segments&quot;:[[[252.10005,142.18859],[0,0],[0,2.5]],[[249.60005,144.68859],[0,0],[-1.86949,-0.02786]],[[244.07281,145.64348],[1.83652,-0.35071],[-2.61536,0.49944]],[[235.60005,145.68859],[2.66873,0],[0,0]],[[234.73719,145.68859],[0,0],[-0.10628,0.077]],[[234.39378,145.8859],[0.12339,-0.05359],[-0.72133,0.31327]],[[227.00005,146.12193],[0.76278,0],[-4,0]],[[215.00005,146.12193],[4,0.00127],[-4.10551,-0.0013]],[[204.01286,144.70157],[3.84782,1.09284],[-1.07312,-0.30478]],[[200.72018,144.1028],[0.91644,0.63609],[-0.09706,-0.06736]],[[200.43936,143.90014],[0.0902,0.06774],[-1.09511,1.43049]],[[196.86782,147.95636],[1.27104,-1.27638],[0,0]],[[193.65212,148.23908],[1.65497,1.27801],[-3.38615,2.95526]],[[186.11507,158.62152],[2.502,-3.85678],[-2.54738,3.92675]],[[178.43318,170.52964],[1.14437,-4.74803],[-0.55814,2.31573]],[[178.50005,178.62193],[0,-2.40334],[0,4.83865]],[[179.67421,193.74412],[-1.77919,-4.51378],[0,0]],[[179.82914,194.92417],[0.04379,-0.65013],[3.51692,-0.02523]],[[189.58193,197.1623],[-3.02172,-1.70586],[-0.8867,-8.10197]],[[193.56693,172.71422],[-3.57668,6.79922],[-0.07913,-2.79907]],[[195.0955,164.17421],[-1.77421,2.403],[1.03027,-1.3954]],[[198.73609,160.45623],[-1.7006,-0.3414],[2.16513,0.43466]],[[202.76652,165.71422],[-0.959,-1.98924],[0.08522,0.17676]],[[202.83339,171.62193],[0,-0.4955],[0,4.88993]],[[202.82766,186.45273],[-0.40331,-4.87128],[0.65099,7.86272]],[[206.83339,209.62193],[-0.03587,-7.86297],[0,0]],[[206.82422,209.78198],[0.00917,-0.10059],[2.02884,-0.56122]],[[213.02793,208.80733],[-1.9518,0.24248],[9.28679,-1.15374]],[[241.00005,206.12194],[-9.41327,0.00845],[2.44396,0.01475]],[[249.21576,207.42042],[-2.24351,-1.59122],[0.42958,-0.09546]],[[250.50452,207.13403],[-0.42958,0.09546],[0.0392,-8.17688]],[[250.83338,182.62194],[-0.00576,8.17527],[0.00282,-4.00913]],[[251.63871,169.13423],[-1.33395,3.75704],[1.23426,-3.47625]],[[258.49907,160.58998],[-2.40742,2.60664],[2.86476,-3.10182]],[[266.52099,150.67235],[-2.22307,3.57988],[1.67947,-2.93995]],[[271.13987,141.75588],[-1.5766,2.95718],[2.28574,-4.28732]],[[279.42954,129.83944],[-2.20243,4.34565],[1.71616,-3.38617]],[[280.9827,120.43754],[-1.12206,3.40631],[0.3606,-1.09471]],[[283.07949,117.68814],[-0.69893,0.91647],[0,0]],[[283.45451,117.53846],[0,0],[-0.04505,-0.06377]],[[283.32721,117.33694],[0.03953,0.0706],[0,0]],[[281.56562,116.72302],[0,0],[-1.32236,-1.33098]],[[277.40865,113.23288],[1.45276,1.06579],[-4.24642,5.05786]],[[264.58193,128.22876],[4.24008,-5.03509],[-1.8089,2.14807]],[[259.81336,134.30345],[2.25472,-1.78129],[-0.66973,0.52911]],[[257.46182,135.3167],[0.66744,-0.532],[-1.89119,1.50743]],[[251.81951,140.9286],[1.81993,-1.95165],[0.17193,0.32649]],[[252.10004,142.1886],[0,-0.52105],[0,0]]],&quot;closed&quot;:true,&quot;fillColor&quot;:[0,0,0],&quot;strokeWidth&quot;:0.5}],&quot;index&quot;:null}" fill="url(#color-3)" stroke-width="0.25"/></g></g></svg>