<svg version="1.1" xmlns="http://www.w3.org/2000/svg" xmlns:xlink="http://www.w3.org/1999/xlink" width="192" height="167" viewBox="0,0,192,167"><defs><linearGradient x1="141.33336" y1="24.16668" x2="332.33338" y2="24.16668" gradientUnits="userSpaceOnUse" id="color-1"><stop offset="0" stop-color="#00ccff"/><stop offset="1" stop-color="#cc00ff"/></linearGradient><linearGradient x1="142.33336" y1="110.16668" x2="333.33338" y2="110.16668" gradientUnits="userSpaceOnUse" id="color-2"><stop offset="0" stop-color="#00ccff"/><stop offset="1" stop-color="#cc00ff"/></linearGradient></defs><g transform="translate(-141.33336,-4.16668)"><g data-paper-data="{&quot;isPaintingLayer&quot;:true}" fill-rule="nonzero" stroke="none" stroke-linecap="butt" stroke-linejoin="miter" stroke-miterlimit="10" stroke-dasharray="" stroke-dashoffset="0" style="mix-blend-mode: normal"><path d="M141.33336,44.16668c0,0 0,-28.04604 0,-34.58333c0,-2.5872 4.34584,-5.41667 9.49999,-5.41667c22.52857,0 181.50001,0 181.50001,0c0,0 0,24.50881 0,31.66667c0,3.67191 -4.21845,8.33333 -9.25001,8.33333c-22.30331,0 -181.74999,0 -181.74999,0z" fill="url(#color-1)" stroke-width="0"/><text transform="translate(161.08334,31.97223) scale(0.5,0.5)" font-size="40" xml:space="preserve" fill="#ffffff" fill-rule="nonzero" stroke="none" stroke-width="1" stroke-linecap="butt" stroke-linejoin="miter" stroke-miterlimit="10" stroke-dasharray="" stroke-dashoffset="0" font-family="Handwriting" font-weight="normal" text-anchor="start" style="mix-blend-mode: normal"><tspan x="0" dy="0">SCHOOL-PASS</tspan></text><path d="M142.33336,171.16668c0,0 0,-85.54042 0,-105.47915c0,-7.89096 4.34584,-16.52085 9.49999,-16.52085c22.52857,0 181.50001,0 181.50001,0c0,0 0,74.75187 0,96.58335c0,11.19933 -4.21845,25.41665 -9.25001,25.41665c-22.30331,0 -181.74999,0 -181.74999,0z" fill="url(#color-2)" stroke-width="0"/></g></g></svg>